<svg width="216.379639" height="179.699219" viewBox="0 0 216.38 179.699" fill="none" xmlns="http://www.w3.org/2000/svg" xmlns:xlink="http://www.w3.org/1999/xlink">
	<desc>
			Created with Pixso.
	</desc>
	<defs/>
	<path id="path" d="M96.04 152.32L93.57 154.36L91.71 153.64L94.65 151.21C94.9 151 94.93 150.64 94.74 150.38C94.54 150.13 94.18 150.09 93.93 150.29L90.47 153.17L89.49 152.79L89.9 151.67C90.01 151.37 89.86 151.03 89.57 150.91C89.27 150.8 88.94 150.95 88.83 151.26L88.42 152.38L85.65 151.31L87.98 149.45L88.7 150.39C88.83 150.56 89.04 150.64 89.24 150.61C89.33 150.59 89.42 150.55 89.5 150.49C89.75 150.29 89.79 149.92 89.6 149.67L88.88 148.72L89.7 148.07L93.85 149.74C93.95 149.78 94.05 149.78 94.14 149.77C94.34 149.74 94.51 149.61 94.59 149.4C94.7 149.1 94.56 148.76 94.27 148.64L90.75 147.23L92.32 145.97L95.27 147.16C95.36 147.2 95.47 147.21 95.56 147.19C95.76 147.16 95.93 147.03 96.01 146.83C96.12 146.53 95.98 146.19 95.68 146.07L93.36 145.13L94.88 143.91C95.13 143.71 95.18 143.35 94.98 143.09C94.79 142.84 94.43 142.79 94.18 142.99L92.66 144.21L92.34 141.67C92.3 141.35 92.01 141.12 91.7 141.17C91.39 141.22 91.16 141.51 91.2 141.82L91.61 145.05L90.05 146.3L89.55 142.46C89.51 142.14 89.23 141.91 88.91 141.95C88.61 142 88.38 142.29 88.42 142.61L89 147.14L88.18 147.8L87.46 146.86C87.27 146.6 86.91 146.56 86.66 146.76C86.41 146.96 86.37 147.32 86.56 147.58L87.28 148.52L84.91 150.42L84.46 147.37L85.61 147.19C85.92 147.14 86.13 146.84 86.09 146.52C86.04 146.2 85.75 145.98 85.43 146.03L84.28 146.22L84.12 145.16L87.57 142.27C87.82 142.06 87.85 141.69 87.65 141.44C87.45 141.19 87.09 141.15 86.85 141.36L83.92 143.81L83.62 141.8L86.07 139.74C86.32 139.53 86.35 139.16 86.15 138.91C85.95 138.66 85.59 138.63 85.35 138.83L83.42 140.45L83.13 138.49C83.08 138.17 82.79 137.95 82.47 138C82.16 138.05 81.95 138.35 82 138.67L82.29 140.63L79.97 139.68C79.68 139.56 79.35 139.7 79.23 140C79.11 140.31 79.26 140.64 79.55 140.77L82.49 141.97L82.79 143.99L79.28 142.55C78.99 142.43 78.66 142.58 78.54 142.88C78.42 143.18 78.57 143.52 78.86 143.64L82.99 145.34L83.15 146.39L82 146.58C81.69 146.63 81.47 146.92 81.52 147.24C81.57 147.56 81.86 147.78 82.17 147.73L83.33 147.55L83.78 150.6L80.97 149.52L81.38 148.39C81.49 148.09 81.34 147.75 81.05 147.64C80.75 147.53 80.42 147.68 80.31 147.98L79.9 149.1L78.92 148.73L78.15 144.23C78.1 143.91 77.81 143.7 77.5 143.75C77.19 143.81 76.97 144.11 77.03 144.43L77.68 148.25L75.82 147.53L75.27 144.33C75.21 144.02 74.92 143.81 74.62 143.86C74.31 143.91 74.09 144.22 74.14 144.54L74.58 147.06L72.77 146.36C72.47 146.25 72.14 146.4 72.03 146.71C71.92 147.01 72.07 147.35 72.37 147.46L74.17 148.16L72.23 149.76C71.99 149.97 71.95 150.34 72.15 150.59C72.28 150.76 72.48 150.83 72.68 150.8C72.78 150.78 72.87 150.74 72.95 150.67L75.42 148.63L77.28 149.35L74.34 151.78C74.09 151.99 74.06 152.36 74.25 152.61C74.39 152.78 74.59 152.85 74.79 152.82C74.88 152.81 74.98 152.76 75.06 152.7L78.52 149.83L79.5 150.2L79.09 151.32C78.98 151.63 79.13 151.96 79.42 152.08C79.52 152.11 79.62 152.12 79.71 152.11C79.91 152.08 80.09 151.94 80.16 151.73L80.57 150.61L83.34 151.68L81.01 153.55L80.29 152.6C80.1 152.35 79.74 152.3 79.49 152.5C79.24 152.7 79.2 153.07 79.39 153.32L80.11 154.27L79.29 154.93L75.14 153.25C74.85 153.14 74.52 153.28 74.4 153.59C74.28 153.89 74.43 154.23 74.72 154.35L78.24 155.76L76.67 157.02L73.72 155.83C73.43 155.71 73.1 155.86 72.98 156.16C72.87 156.47 73.01 156.81 73.31 156.92L75.63 157.86L74.11 159.08C73.86 159.28 73.81 159.65 74.01 159.9C74.14 160.07 74.35 160.15 74.55 160.12C74.64 160.1 74.73 160.07 74.81 160L76.33 158.78L76.65 161.32C76.7 161.64 76.98 161.87 77.3 161.82C77.6 161.78 77.83 161.48 77.79 161.17L77.38 157.94L78.95 156.69L79.44 160.53C79.48 160.85 79.76 161.08 80.08 161.04C80.38 160.99 80.61 160.7 80.57 160.38L79.99 155.85L80.81 155.19L81.53 156.13C81.66 156.31 81.87 156.38 82.07 156.35C82.16 156.34 82.25 156.3 82.33 156.23C82.58 156.03 82.62 155.67 82.43 155.41L81.71 154.47L84.08 152.57L84.53 155.62L83.38 155.8C83.07 155.85 82.86 156.15 82.9 156.47C82.95 156.79 83.24 157.01 83.56 156.96L84.71 156.77L84.87 157.83L81.42 160.72C81.17 160.93 81.14 161.3 81.34 161.55C81.54 161.8 81.9 161.84 82.14 161.63L85.07 159.18L85.37 161.2L82.92 163.25C82.67 163.46 82.64 163.83 82.84 164.08C83.04 164.33 83.4 164.37 83.64 164.16L85.57 162.54L85.86 164.5C85.91 164.82 86.2 165.04 86.52 164.99C86.83 164.94 87.04 164.64 86.99 164.32L86.7 162.36L89.02 163.31C89.12 163.35 89.22 163.36 89.31 163.35C89.51 163.32 89.68 163.19 89.76 162.99C89.88 162.69 89.73 162.35 89.44 162.23L86.5 161.02L86.2 159L89.71 160.44C89.8 160.48 89.91 160.49 90 160.48C90.2 160.45 90.37 160.31 90.45 160.11C90.57 159.81 90.42 159.47 90.13 159.35L86 157.65L85.84 156.6L86.99 156.42C87.3 156.37 87.51 156.07 87.47 155.75C87.42 155.43 87.13 155.21 86.82 155.26L85.66 155.44L85.21 152.39L88.02 153.48L87.61 154.6C87.5 154.9 87.65 155.24 87.94 155.35C88.04 155.39 88.14 155.4 88.23 155.38C88.43 155.35 88.6 155.21 88.68 155.01L89.09 153.89L90.07 154.26L90.84 158.76C90.89 159.08 91.18 159.29 91.49 159.24C91.8 159.18 92.02 158.88 91.97 158.56L91.31 154.74L93.17 155.46L93.72 158.66C93.78 158.97 94.07 159.18 94.37 159.14C94.68 159.08 94.9 158.77 94.85 158.45L94.41 155.93L96.22 156.63C96.32 156.67 96.42 156.67 96.51 156.66C96.71 156.63 96.88 156.49 96.96 156.28C97.07 155.98 96.92 155.64 96.62 155.53L94.81 154.84L96.76 153.23C97 153.03 97.04 152.66 96.84 152.4C96.64 152.15 96.28 152.11 96.04 152.32Z" fill="#FFFFFF" fill-opacity="0.500000" fill-rule="nonzero"/>
	<path id="path" d="M164.15 44.73L161.98 46.54L160.34 45.9L162.93 43.74C163.15 43.56 163.18 43.23 163.01 43.01C162.83 42.78 162.52 42.75 162.3 42.93L159.25 45.48L158.39 45.15L158.75 44.15C158.85 43.88 158.72 43.58 158.46 43.48C158.2 43.38 157.91 43.51 157.81 43.78L157.45 44.78L155.01 43.83L157.06 42.17L157.69 43.01C157.81 43.16 157.99 43.23 158.17 43.21C158.25 43.19 158.33 43.16 158.4 43.1C158.62 42.92 158.66 42.6 158.49 42.37L157.85 41.53L158.58 40.95L162.23 42.43C162.31 42.47 162.4 42.47 162.49 42.46C162.66 42.43 162.81 42.32 162.88 42.14C162.98 41.87 162.85 41.57 162.59 41.46L159.5 40.2L160.88 39.08L163.47 40.14C163.56 40.18 163.65 40.18 163.73 40.17C163.91 40.14 164.06 40.02 164.13 39.85C164.23 39.58 164.1 39.28 163.84 39.17L161.8 38.34L163.14 37.25C163.36 37.08 163.39 36.75 163.22 36.52C163.05 36.3 162.74 36.26 162.52 36.43L161.18 37.52L160.89 35.26C160.86 34.98 160.61 34.78 160.33 34.81C160.06 34.86 159.86 35.12 159.9 35.4L160.26 38.26L158.88 39.38L158.45 35.96C158.41 35.68 158.16 35.48 157.88 35.51C157.62 35.56 157.42 35.82 157.45 36.1L157.96 40.12L157.24 40.71L156.6 39.87C156.43 39.65 156.12 39.61 155.9 39.78C155.68 39.96 155.64 40.29 155.81 40.51L156.44 41.35L154.36 43.04L153.96 40.33L154.98 40.17C155.25 40.13 155.44 39.86 155.39 39.58C155.35 39.29 155.1 39.1 154.82 39.14L153.81 39.3L153.67 38.36L156.7 35.79C156.92 35.61 156.95 35.28 156.77 35.06C156.6 34.83 156.28 34.8 156.07 34.98L153.49 37.17L153.23 35.37L155.38 33.54C155.6 33.36 155.63 33.03 155.45 32.81C155.28 32.59 154.96 32.55 154.75 32.74L153.05 34.18L152.79 32.44C152.75 32.15 152.49 31.96 152.22 32C151.94 32.04 151.75 32.31 151.8 32.59L152.05 34.34L150.02 33.49C149.76 33.38 149.47 33.51 149.36 33.78C149.26 34.05 149.39 34.35 149.64 34.46L152.23 35.53L152.5 37.33L149.41 36.04C149.15 35.94 148.86 36.07 148.75 36.33C148.65 36.6 148.78 36.91 149.03 37.01L152.67 38.52L152.81 39.46L151.8 39.62C151.53 39.67 151.34 39.93 151.38 40.22C151.42 40.5 151.68 40.7 151.95 40.65L152.97 40.49L153.37 43.2L150.89 42.24L151.25 41.24C151.35 40.97 151.22 40.67 150.96 40.57C150.7 40.47 150.41 40.61 150.31 40.87L149.95 41.87L149.09 41.54L148.41 37.54C148.36 37.26 148.11 37.07 147.84 37.11C147.57 37.16 147.37 37.43 147.42 37.72L148 41.11L146.36 40.48L145.87 37.63C145.83 37.35 145.57 37.16 145.3 37.21C145.03 37.26 144.84 37.53 144.88 37.81L145.27 40.05L143.67 39.43C143.42 39.33 143.13 39.47 143.03 39.74C142.93 40.01 143.06 40.31 143.32 40.41L144.91 41.03L143.21 42.46C142.99 42.64 142.96 42.96 143.13 43.19C143.25 43.34 143.43 43.4 143.6 43.37C143.68 43.36 143.77 43.33 143.84 43.27L146.01 41.45L147.65 42.09L145.06 44.25C144.84 44.43 144.81 44.76 144.98 44.99C145.1 45.13 145.28 45.2 145.45 45.17C145.53 45.16 145.62 45.12 145.69 45.06L148.74 42.51L149.6 42.84L149.24 43.84C149.14 44.11 149.27 44.41 149.53 44.51C149.62 44.54 149.7 44.55 149.79 44.54C149.96 44.51 150.12 44.39 150.18 44.21L150.54 43.21L152.98 44.16L150.93 45.82L150.3 44.98C150.13 44.75 149.81 44.71 149.59 44.89C149.37 45.07 149.33 45.39 149.5 45.62L150.14 46.46L149.41 47.04L145.76 45.56C145.5 45.45 145.21 45.59 145.11 45.85C145.01 46.12 145.14 46.42 145.4 46.53L148.49 47.79L147.11 48.91L144.52 47.85C144.26 47.75 143.97 47.88 143.87 48.15C143.76 48.41 143.89 48.72 144.15 48.82L146.19 49.65L144.85 50.74C144.64 50.91 144.6 51.24 144.77 51.47C144.88 51.62 145.07 51.69 145.24 51.66C145.32 51.65 145.4 51.61 145.47 51.56L146.81 50.47L147.1 52.73C147.13 53.01 147.38 53.21 147.66 53.18C147.93 53.13 148.13 52.87 148.09 52.59L147.73 49.73L149.11 48.61L149.54 52.03C149.58 52.31 149.83 52.51 150.11 52.48C150.38 52.43 150.58 52.17 150.54 51.89L150.03 47.87L150.75 47.28L151.39 48.12C151.5 48.27 151.69 48.34 151.86 48.31C151.94 48.3 152.02 48.26 152.09 48.21C152.31 48.03 152.35 47.7 152.18 47.48L151.55 46.64L153.63 44.95L154.03 47.66L153.02 47.82C152.74 47.86 152.55 48.13 152.6 48.41C152.64 48.7 152.89 48.89 153.17 48.85L154.18 48.69L154.32 49.63L151.29 52.2C151.07 52.38 151.04 52.71 151.22 52.93C151.39 53.16 151.71 53.19 151.92 53.01L154.5 50.82L154.77 52.62L152.61 54.45C152.39 54.63 152.36 54.96 152.54 55.18C152.71 55.4 153.03 55.44 153.24 55.25L154.94 53.81L155.2 55.55C155.24 55.84 155.5 56.03 155.77 55.99C156.05 55.95 156.24 55.68 156.19 55.39L155.94 53.65L157.97 54.5C158.06 54.54 158.15 54.55 158.24 54.53C158.41 54.5 158.56 54.39 158.63 54.21C158.73 53.94 158.61 53.64 158.35 53.53L155.76 52.46L155.49 50.66L158.58 51.95C158.67 51.98 158.76 51.99 158.84 51.98C159.01 51.95 159.17 51.83 159.23 51.66C159.34 51.39 159.21 51.09 158.95 50.98L155.32 49.47L155.17 48.53L156.19 48.37C156.46 48.33 156.65 48.06 156.61 47.78C156.57 47.49 156.31 47.3 156.04 47.34L155.02 47.5L154.62 44.79L157.1 45.76L156.74 46.75C156.64 47.02 156.77 47.32 157.03 47.42C157.11 47.46 157.2 47.46 157.28 47.45C157.46 47.42 157.61 47.3 157.68 47.12L158.04 46.12L158.9 46.46L159.58 50.46C159.63 50.73 159.88 50.92 160.15 50.88C160.42 50.83 160.62 50.56 160.57 50.27L159.99 46.88L161.63 47.52L162.12 50.36C162.16 50.64 162.42 50.83 162.69 50.79C162.96 50.74 163.15 50.46 163.11 50.18L162.72 47.94L164.32 48.56C164.4 48.59 164.49 48.6 164.57 48.58C164.74 48.56 164.9 48.44 164.96 48.25C165.06 47.98 164.93 47.68 164.67 47.58L163.08 46.96L164.79 45.54C165 45.36 165.04 45.03 164.86 44.8C164.69 44.58 164.37 44.54 164.15 44.73Z" fill="#FFFFFF" fill-opacity="0.500000" fill-rule="nonzero"/>
	<path id="path" d="M204.03 160.41L198.84 161.5L196.65 159.02L202.84 157.72C203.35 157.61 203.69 157.1 203.59 156.58C203.49 156.06 202.99 155.72 202.48 155.83L195.19 157.37L194.04 156.07L195.5 154.75C195.89 154.39 195.93 153.78 195.58 153.39C195.24 152.99 194.63 152.97 194.24 153.32L192.78 154.65L189.52 150.96L194.38 150.02L194.71 151.95C194.77 152.3 195.02 152.58 195.33 152.68C195.48 152.73 195.65 152.75 195.81 152.71C196.33 152.61 196.68 152.11 196.59 151.59L196.25 149.65L197.96 149.32L202.78 154.95C202.89 155.08 203.04 155.17 203.19 155.22C203.5 155.33 203.85 155.27 204.12 155.03C204.52 154.68 204.57 154.07 204.23 153.67L200.14 148.9L203.4 148.26L206.83 152.27C206.94 152.4 207.09 152.49 207.24 152.54C207.55 152.64 207.91 152.58 208.17 152.35C208.57 152 208.62 151.39 208.28 150.99L205.58 147.84L208.75 147.22C209.27 147.12 209.61 146.62 209.52 146.09C209.43 145.57 208.94 145.23 208.42 145.33L205.25 145.95L206.72 141.99C206.9 141.49 206.65 140.93 206.16 140.76C205.67 140.59 205.12 140.85 204.94 141.34L203.08 146.37L199.81 147.01L202.03 141C202.21 140.5 201.96 139.95 201.47 139.77C200.98 139.61 200.43 139.86 200.25 140.36L197.63 147.43L195.92 147.76L195.59 145.83C195.5 145.31 195 144.97 194.49 145.07C193.97 145.17 193.62 145.67 193.71 146.2L194.05 148.13L189.12 149.09L190.78 144.28L192.61 144.9C193.11 145.07 193.65 144.8 193.82 144.29C194 143.78 193.74 143.24 193.24 143.07L191.41 142.45L191.98 140.79L199.26 139.2C199.78 139.09 200.11 138.57 200.01 138.05C199.91 137.53 199.4 137.2 198.89 137.32L192.71 138.66L193.81 135.48L198.99 134.35C199.5 134.24 199.84 133.72 199.73 133.2C199.63 132.68 199.13 132.35 198.62 132.47L194.54 133.36L195.61 130.27C195.78 129.76 195.52 129.22 195.02 129.05C194.53 128.88 193.98 129.15 193.81 129.66L192.74 132.75L190.07 129.58C189.73 129.18 189.13 129.14 188.72 129.49C188.32 129.84 188.27 130.45 188.61 130.85L192.01 134.87L190.91 138.06L186.86 133.26C186.52 132.86 185.92 132.81 185.52 133.16C185.11 133.51 185.06 134.12 185.4 134.52L190.18 140.18L189.61 141.85L187.78 141.23C187.28 141.06 186.74 141.34 186.56 141.84C186.39 142.35 186.65 142.89 187.15 143.06L188.98 143.68L187.32 148.48L184.02 144.74L185.47 143.42C185.87 143.06 185.91 142.45 185.56 142.06C185.21 141.67 184.61 141.64 184.22 141.99L182.76 143.32L181.61 142.02L183.91 134.84C184.07 134.34 183.81 133.81 183.32 133.64C182.82 133.49 182.26 133.77 182.1 134.28L180.15 140.37L177.95 137.89L179.59 132.78C179.75 132.28 179.49 131.75 179 131.59C178.5 131.43 177.94 131.71 177.78 132.22L176.49 136.24L174.36 133.83C174.02 133.44 173.42 133.41 173.02 133.77C172.63 134.13 172.59 134.74 172.94 135.13L175.06 137.54L170.98 138.4C170.47 138.51 170.13 139.02 170.23 139.54C170.29 139.89 170.54 140.15 170.85 140.25C171 140.31 171.17 140.32 171.34 140.28L176.53 139.19L178.72 141.67L172.53 142.97C172.02 143.08 171.68 143.59 171.78 144.11C171.84 144.46 172.09 144.73 172.4 144.83C172.55 144.88 172.72 144.89 172.89 144.86L180.18 143.32L181.33 144.62L179.87 145.94C179.48 146.3 179.44 146.91 179.79 147.3C179.9 147.43 180.04 147.52 180.19 147.57C180.5 147.67 180.86 147.61 181.13 147.36L182.59 146.04L185.85 149.72L180.99 150.67L180.66 148.74C180.57 148.22 180.07 147.87 179.56 147.97C179.04 148.08 178.69 148.58 178.78 149.1L179.12 151.03L177.41 151.37L172.59 145.74C172.25 145.34 171.65 145.3 171.25 145.66C170.85 146.01 170.8 146.62 171.14 147.02L175.23 151.79L171.97 152.43L168.54 148.42C168.2 148.03 167.59 147.99 167.2 148.34C166.8 148.69 166.75 149.3 167.09 149.7L169.79 152.85L166.62 153.47C166.1 153.57 165.76 154.07 165.85 154.6C165.91 154.95 166.16 155.22 166.47 155.33C166.62 155.38 166.78 155.39 166.95 155.36L170.12 154.74L168.65 158.7C168.47 159.2 168.72 159.75 169.21 159.93C169.7 160.1 170.25 159.84 170.44 159.35L172.29 154.32L175.56 153.68L173.34 159.68C173.16 160.19 173.41 160.74 173.9 160.91C174.39 161.08 174.94 160.82 175.13 160.33L177.74 153.26L179.45 152.92L179.78 154.86C179.84 155.21 180.09 155.48 180.41 155.59C180.56 155.64 180.72 155.65 180.88 155.62C181.4 155.52 181.75 155.01 181.66 154.49L181.32 152.56L186.25 151.6L184.59 156.4L182.76 155.79C182.26 155.62 181.72 155.89 181.55 156.4C181.37 156.9 181.63 157.45 182.13 157.61L183.96 158.23L183.39 159.9L176.11 161.49C175.6 161.6 175.26 162.11 175.36 162.63C175.46 163.15 175.97 163.48 176.48 163.37L182.66 162.02L181.56 165.21L176.38 166.34C175.87 166.45 175.53 166.96 175.64 167.48C175.74 168 176.24 168.33 176.75 168.22L180.83 167.33L179.77 170.42C179.59 170.93 179.85 171.47 180.35 171.64C180.84 171.81 181.39 171.53 181.56 171.03L182.63 167.94L185.3 171.11C185.42 171.24 185.56 171.34 185.71 171.39C186.02 171.49 186.38 171.43 186.64 171.2C187.05 170.85 187.1 170.24 186.76 169.84L183.36 165.81L184.45 162.63L188.51 167.43C188.63 167.57 188.77 167.66 188.92 167.71C189.23 167.82 189.59 167.76 189.85 167.53C190.25 167.18 190.31 166.57 189.97 166.17L185.19 160.51L185.76 158.84L187.59 159.46C188.09 159.63 188.63 159.35 188.81 158.85C188.98 158.34 188.72 157.8 188.22 157.63L186.39 157.01L188.04 152.21L191.35 155.95L189.89 157.27C189.5 157.63 189.46 158.24 189.81 158.63C189.92 158.76 190.06 158.85 190.21 158.9C190.52 159 190.89 158.94 191.15 158.69L192.61 157.37L193.76 158.67L191.46 165.85C191.3 166.35 191.56 166.88 192.05 167.05C192.55 167.2 193.11 166.92 193.27 166.41L195.22 160.32L197.42 162.8L195.78 167.91C195.62 168.41 195.88 168.94 196.37 169.1C196.87 169.26 197.43 168.98 197.59 168.47L198.88 164.45L201 166.86C201.12 166.98 201.25 167.07 201.4 167.12C201.72 167.23 202.08 167.16 202.35 166.92C202.74 166.56 202.78 165.95 202.43 165.56L200.3 163.15L204.39 162.29C204.9 162.18 205.24 161.67 205.14 161.15C205.04 160.63 204.54 160.3 204.03 160.41Z" fill="#FFFFFF" fill-opacity="0.500000" fill-rule="nonzero"/>
	<line id="Line 4" x1="74.000000" y1="0.000000" x2="74.000000" y2="58.000000" stroke="#FFFFFF" stroke-opacity="1.000000" stroke-width="2.000000"/>
	<line id="Line 5" x1="179.000000" y1="0.000000" x2="179.000000" y2="63.000000" stroke="#FFFFFF" stroke-opacity="1.000000" stroke-width="2.000000"/>
	<line id="Line 6" x1="129.000000" y1="0.000000" x2="129.000000" y2="132.000000" stroke="#FFFFFF" stroke-opacity="1.000000" stroke-width="2.000000"/>
	<rect id="rect" x="107.364258" y="132.032227" width="41.564247" height="10.179063" transform="rotate(-0.546886 107.364258 132.032227)" stroke="#FFFFFF" stroke-opacity="1.000000" stroke-width="2.000000"/>
	<path id="polyline" d="M145.36 141.85L143.34 165.69L113.58 165.98L111.1 142.17" stroke="#FFFFFF" stroke-opacity="1.000000" stroke-width="2.000000"/>
	<rect id="rect" x="125.426025" y="142.041016" width="5.631031" height="23.817146" transform="rotate(-0.546886 125.426025 142.041016)" stroke="#FFFFFF" stroke-opacity="1.000000" stroke-width="2.000000"/>
	<rect id="rect" x="124.497070" y="131.868164" width="7.299040" height="10.172059" transform="rotate(-0.546886 124.497070 131.868164)" stroke="#FFFFFF" stroke-opacity="1.000000" stroke-width="2.000000"/>
	<path id="path" d="M128.62 131.83C133.58 123.35 136.97 120.2 139.69 121.61C142.41 123.01 142.17 129.99 138.41 131.74" stroke="#FFFFFF" stroke-opacity="1.000000" stroke-width="2.000000"/>
	<path id="path" d="M131.33 131.81C133.06 129.53 135.31 126.96 136.71 127.67C138.1 128.37 133.84 131.78 133.84 131.78" stroke="#FFFFFF" stroke-opacity="1.000000" stroke-width="2.000000"/>
	<path id="path" d="M128.13 131.84C123.02 123.45 119.57 120.37 116.88 121.82C114.18 123.28 114.56 130.25 118.35 131.93" stroke="#FFFFFF" stroke-opacity="1.000000" stroke-width="2.000000"/>
	<path id="path" d="M125.43 131.86C123.66 129.62 121.36 127.1 119.97 127.82C118.59 128.55 122.92 131.89 122.92 131.89" stroke="#FFFFFF" stroke-opacity="1.000000" stroke-width="2.000000"/>
	<path id="path" d="M90.55 76.34C89.39 79.12 85.96 87.38 85.33 88.9C84.7 90.41 84.18 94.05 87.07 98.51C89.96 102.98 93.69 106.6 90.87 111.96C88.06 117.31 82.52 117.78 75.84 112.93C69.16 108.08 62.99 97.71 62.26 95.42C61.52 93.14 61.38 91.11 63.38 86.3C65.37 81.5 70.89 67.93 70.89 67.93" stroke="#FFFFFF" stroke-opacity="1.000000" stroke-width="1.891800" stroke-linejoin="round" stroke-linecap="round"/>
	<path id="path" d="M93.49 76.92L97.24 67.9C89.64 63.07 81.52 59.66 72.84 57.76L69.09 66.79C76.75 71.37 84.89 74.76 93.49 76.92Z" stroke="#FFFFFF" stroke-opacity="1.000000" stroke-width="1.833100" stroke-linejoin="round"/>
	<path id="path" d="M90.37 103.76C85.29 104.2 80.16 110.92 79.58 115.04" stroke="#FFFFFF" stroke-opacity="1.000000" stroke-width="1.833100" stroke-linejoin="round" stroke-linecap="round"/>
	<path id="path" d="M64.68 99.59C67.52 93.87 67.67 89.17 63.75 85.53" stroke="#FFFFFF" stroke-opacity="1.000000" stroke-width="1.833100" stroke-linejoin="round" stroke-linecap="round"/>
	<path id="path" d="M206.54 86.88C206.93 82.9 205.52 79.7 202.34 77.27C189.67 81 177.74 86.17 166.58 92.9C165.86 96.72 167.36 99.9 170.79 102.52C183.3 98.56 195.23 93.36 206.54 86.88Z" stroke="#FFFFFF" stroke-opacity="1.000000" stroke-width="2.000000" stroke-linejoin="round"/>
	<path id="path" d="M201.04 77.13C198.52 72.19 194.52 68.43 192.26 66.85C186.75 62.98 179.77 61.75 172.61 64.42C167.47 66.33 161.57 71.51 160.27 76.67C158.24 84.65 161.18 91.23 162.96 93.8" stroke="#FFFFFF" stroke-opacity="1.000000" stroke-width="2.000000" stroke-linejoin="round" stroke-linecap="round"/>
	<path id="path" d="M167.39 91.99C166.42 89.36 164.57 83.16 166.04 78.84" stroke="#FFFFFF" stroke-opacity="1.000000" stroke-width="2.000000" stroke-linejoin="round" stroke-linecap="round"/>
	<path id="path" d="M166.43 94.49C164.81 90.96 161.91 89.69 163.43 95.42" stroke="#FFFFFF" stroke-opacity="1.000000" stroke-width="2.000000" stroke-linejoin="round" stroke-linecap="round"/>
	<path id="path" d="M163.17 94.82C158.76 92.62 155.69 94.87 158.14 98.65" stroke="#FFFFFF" stroke-opacity="1.000000" stroke-width="2.000000" stroke-linejoin="round" stroke-linecap="round"/>
	<path id="path" d="M160.1 97.77C157.99 98.39 156.11 99.9 158.57 101.97" stroke="#FFFFFF" stroke-opacity="1.000000" stroke-width="2.000000" stroke-linejoin="round" stroke-linecap="round"/>
	<path id="path" d="M157.79 101.32C153.93 104.19 156.95 108.32 160.71 104.71C161.28 107.49 163.6 107.42 163.79 105.25" stroke="#FFFFFF" stroke-opacity="1.000000" stroke-width="2.000000" stroke-linejoin="round" stroke-linecap="round"/>
	<path id="path" d="M163.57 106.28C166.43 109.44 169.2 106.85 167.87 104.3" stroke="#FFFFFF" stroke-opacity="1.000000" stroke-width="2.000000" stroke-linejoin="round" stroke-linecap="round"/>
	<path id="path" d="M170.81 102.36C171.91 104.95 169.56 105.51 168.2 104.85" stroke="#FFFFFF" stroke-opacity="1.000000" stroke-width="2.000000" stroke-linejoin="round" stroke-linecap="round"/>
	<path id="path" d="M165.83 101.72C165.01 103.55 161.77 103.59 161.94 100.48" stroke="#FFFFFF" stroke-opacity="1.000000" stroke-width="2.000000" stroke-linejoin="round" stroke-linecap="round"/>
	<path id="path" d="M33.66 34.62L30.2 37.42L27.59 36.44L31.71 33.1C32.06 32.82 32.11 32.32 31.83 31.97C31.56 31.62 31.05 31.57 30.71 31.85L25.85 35.78L24.49 35.27L25.06 33.73C25.22 33.32 25.01 32.86 24.59 32.7C24.18 32.54 23.72 32.75 23.56 33.17L22.99 34.71L19.11 33.25L22.37 30.69L23.38 31.98C23.56 32.21 23.86 32.32 24.13 32.28C24.26 32.26 24.39 32.2 24.5 32.12C24.85 31.84 24.91 31.34 24.64 30.99L23.63 29.7L24.78 28.79L30.59 31.08C30.73 31.14 30.87 31.15 31 31.13C31.28 31.09 31.52 30.91 31.63 30.63C31.79 30.22 31.59 29.75 31.17 29.59L26.25 27.65L28.45 25.92L32.57 27.55C32.71 27.61 32.85 27.62 32.99 27.6C33.26 27.56 33.5 27.37 33.61 27.1C33.77 26.69 33.57 26.22 33.16 26.06L29.91 24.78L32.04 23.1C32.39 22.83 32.45 22.33 32.18 21.98C31.91 21.63 31.4 21.57 31.06 21.84L28.92 23.51L28.47 20.03C28.42 19.59 28.01 19.28 27.58 19.34C27.15 19.41 26.83 19.81 26.89 20.24L27.46 24.66L25.27 26.38L24.58 21.11C24.52 20.67 24.12 20.36 23.68 20.42C23.25 20.49 22.94 20.89 22.99 21.32L23.8 27.53L22.65 28.43L21.65 27.14C21.37 26.79 20.87 26.73 20.52 27C20.17 27.27 20.11 27.78 20.38 28.13L21.39 29.42L18.08 32.02L17.44 27.85L19.05 27.6C19.49 27.53 19.79 27.12 19.72 26.68C19.66 26.24 19.25 25.94 18.81 26.01L17.2 26.26L16.98 24.81L21.8 20.85C22.14 20.57 22.19 20.06 21.91 19.72C21.64 19.37 21.13 19.32 20.79 19.6L16.69 22.97L16.27 20.2L19.7 17.38C20.05 17.1 20.1 16.59 19.82 16.25C19.54 15.91 19.03 15.86 18.69 16.14L15.99 18.36L15.58 15.68C15.51 15.24 15.1 14.94 14.67 15C14.23 15.07 13.93 15.48 14 15.92L14.41 18.6L11.16 17.3C10.76 17.14 10.29 17.34 10.13 17.75C9.96 18.16 10.16 18.63 10.57 18.79L14.69 20.45L15.11 23.21L10.2 21.24C9.79 21.07 9.32 21.27 9.16 21.69C8.99 22.1 9.19 22.57 9.6 22.73L15.39 25.06L15.62 26.51L14 26.75C13.57 26.82 13.27 27.23 13.33 27.67C13.4 28.11 13.81 28.41 14.25 28.34L15.86 28.09L16.5 32.26L12.56 30.78L13.13 29.25C13.29 28.83 13.08 28.37 12.67 28.21C12.25 28.06 11.79 28.27 11.64 28.68L11.06 30.22L9.7 29.7L8.61 23.54C8.54 23.11 8.13 22.82 7.7 22.88C7.27 22.96 6.96 23.38 7.04 23.82L7.96 29.05L5.35 28.07L4.58 23.68C4.5 23.25 4.1 22.96 3.67 23.03C3.23 23.11 2.92 23.53 3 23.96L3.61 27.41L1.08 26.46C0.66 26.31 0.2 26.52 0.05 26.93C-0.11 27.35 0.1 27.81 0.51 27.97L3.05 28.92L0.33 31.12C-0.01 31.4 -0.07 31.91 0.21 32.25C0.39 32.48 0.68 32.58 0.95 32.54C1.09 32.52 1.22 32.46 1.33 32.37L4.79 29.57L7.4 30.55L3.28 33.89C2.93 34.17 2.88 34.68 3.16 35.02C3.34 35.25 3.63 35.35 3.9 35.31C4.04 35.29 4.17 35.23 4.28 35.14L9.14 31.21L10.5 31.72L9.93 33.26C9.77 33.67 9.98 34.14 10.4 34.29C10.53 34.34 10.67 34.35 10.8 34.33C11.08 34.29 11.32 34.1 11.43 33.82L12 32.29L15.88 33.74L12.62 36.31L11.61 35.01C11.34 34.66 10.83 34.6 10.49 34.87C10.14 35.15 10.08 35.65 10.35 36L11.35 37.29L10.2 38.2L4.4 35.91C3.99 35.74 3.52 35.95 3.36 36.36C3.2 36.77 3.4 37.24 3.81 37.4L8.74 39.34L6.55 41.07L2.42 39.44C2.01 39.28 1.54 39.48 1.38 39.89C1.22 40.31 1.42 40.77 1.83 40.93L5.08 42.22L2.95 43.89C2.6 44.16 2.54 44.67 2.81 45.01C3 45.25 3.29 45.36 3.57 45.31C3.7 45.29 3.82 45.24 3.94 45.15L6.07 43.48L6.52 46.96C6.58 47.4 6.98 47.71 7.42 47.65C7.84 47.58 8.16 47.18 8.1 46.75L7.53 42.33L9.73 40.61L10.41 45.88C10.47 46.32 10.87 46.63 11.31 46.57C11.74 46.5 12.05 46.1 12 45.67L11.19 39.46L12.34 38.56L13.34 39.85C13.53 40.09 13.82 40.19 14.1 40.15C14.23 40.13 14.36 40.08 14.47 39.99C14.82 39.72 14.88 39.21 14.61 38.86L13.6 37.57L16.91 34.97L17.55 39.14L15.94 39.39C15.5 39.46 15.2 39.87 15.27 40.31C15.33 40.75 15.74 41.05 16.18 40.98L17.79 40.73L18.01 42.18L13.19 46.14C12.85 46.42 12.79 46.93 13.08 47.27C13.35 47.62 13.86 47.67 14.2 47.39L18.3 44.02L18.72 46.79L15.29 49.61C14.94 49.89 14.89 50.39 15.17 50.74C15.45 51.08 15.96 51.13 16.3 50.85L19 48.63L19.41 51.31C19.48 51.75 19.89 52.05 20.32 51.99C20.76 51.92 21.06 51.51 20.99 51.07L20.58 48.39L23.83 49.69C23.96 49.75 24.11 49.76 24.24 49.74C24.51 49.7 24.76 49.52 24.86 49.24C25.03 48.83 24.83 48.36 24.42 48.2L20.3 46.54L19.88 43.78L24.79 45.75C24.93 45.81 25.07 45.82 25.21 45.8C25.48 45.76 25.72 45.58 25.83 45.31C25.99 44.9 25.79 44.43 25.38 44.26L19.59 41.93L19.37 40.49L20.99 40.24C21.42 40.17 21.72 39.76 21.66 39.32C21.59 38.88 21.18 38.58 20.74 38.65L19.13 38.9L18.49 34.73L22.43 36.21L21.85 37.75C21.7 38.16 21.91 38.62 22.32 38.78C22.46 38.83 22.59 38.84 22.73 38.82C23 38.78 23.25 38.59 23.35 38.31L23.93 36.77L25.29 37.29L26.38 43.45C26.45 43.88 26.86 44.17 27.29 44.11C27.72 44.03 28.03 43.61 27.95 43.18L27.03 37.94L29.64 38.92L30.41 43.31C30.49 43.74 30.89 44.03 31.32 43.96C31.76 43.89 32.07 43.47 31.99 43.03L31.38 39.58L33.91 40.53C34.05 40.58 34.18 40.59 34.32 40.57C34.59 40.53 34.84 40.34 34.94 40.06C35.1 39.64 34.89 39.18 34.48 39.03L31.94 38.07L34.66 35.87C35 35.59 35.06 35.09 34.78 34.74C34.5 34.4 34 34.34 33.66 34.62Z" fill="#FFFFFF" fill-opacity="0.500000" fill-rule="nonzero"/>
</svg>
