<svg width="207.870361" height="130.160156" viewBox="0 0 207.87 130.16" fill="none" xmlns="http://www.w3.org/2000/svg" xmlns:xlink="http://www.w3.org/1999/xlink">
	<desc>
			Created with Pixso.
	</desc>
	<defs/>
	<path id="path" d="M205.04 49.9L197.74 55.87L192.22 53.78L200.93 46.65C201.65 46.06 201.77 44.98 201.18 44.24C200.59 43.5 199.53 43.38 198.8 43.98L188.54 52.38L185.65 51.28L186.86 48C187.19 47.12 186.75 46.13 185.87 45.79C185 45.46 184.03 45.91 183.7 46.8L182.48 50.08L174.28 46.96L181.18 41.5L183.31 44.26C183.7 44.76 184.31 44.99 184.9 44.89C185.18 44.85 185.45 44.74 185.68 44.55C186.42 43.97 186.55 42.89 185.97 42.14L183.85 39.39L186.28 37.46L198.55 42.35C198.84 42.46 199.14 42.49 199.43 42.45C200 42.36 200.52 41.97 200.74 41.38C201.09 40.5 200.66 39.5 199.79 39.16L189.37 35.01L194.02 31.33L202.75 34.81C203.03 34.92 203.34 34.95 203.62 34.91C204.2 34.82 204.71 34.43 204.94 33.84C205.28 32.96 204.86 31.96 203.99 31.61L197.11 28.88L201.62 25.31C202.35 24.73 202.48 23.65 201.91 22.9C201.33 22.16 200.27 22.03 199.54 22.61L195.03 26.18L194.07 18.75C193.95 17.81 193.11 17.15 192.18 17.27C191.27 17.42 190.6 18.27 190.72 19.2L191.94 28.63L187.29 32.31L185.84 21.05C185.72 20.12 184.87 19.45 183.95 19.58C183.04 19.72 182.37 20.57 182.49 21.5L184.2 34.76L181.77 36.68L179.64 33.92C179.07 33.18 178 33.05 177.27 33.63C176.53 34.21 176.4 35.29 176.98 36.03L179.1 38.79L172.1 44.34L170.75 35.44L174.16 34.9C175.08 34.76 175.72 33.89 175.58 32.95C175.43 32.01 174.57 31.37 173.65 31.51L170.24 32.05L169.77 28.96L179.97 20.49C180.7 19.89 180.8 18.81 180.21 18.08C179.62 17.34 178.55 17.23 177.83 17.83L169.17 25.02L168.28 19.11L175.53 13.09C176.26 12.49 176.37 11.41 175.77 10.68C175.18 9.95 174.12 9.84 173.39 10.44L167.68 15.18L166.81 9.45C166.67 8.51 165.81 7.87 164.88 8.02C163.96 8.16 163.33 9.03 163.47 9.97L164.34 15.7L157.48 12.92C156.62 12.57 155.63 12.99 155.28 13.87C154.94 14.75 155.36 15.75 156.23 16.1L164.93 19.64L165.83 25.54L155.44 21.33C154.57 20.97 153.59 21.4 153.24 22.28C152.89 23.16 153.32 24.16 154.18 24.51L166.42 29.48L166.89 32.57L163.48 33.1C162.56 33.25 161.92 34.12 162.07 35.06C162.21 36 163.07 36.64 164 36.49L167.41 35.96L168.76 44.87L160.43 41.71L161.65 38.42C161.97 37.54 161.53 36.55 160.66 36.22C159.78 35.89 158.81 36.34 158.48 37.22L157.27 40.5L154.38 39.4L152.08 26.23C151.92 25.31 151.07 24.7 150.16 24.84C149.24 25 148.59 25.9 148.75 26.83L150.7 38.01L145.18 35.91L143.55 26.54C143.39 25.62 142.53 25.01 141.63 25.15C140.71 25.31 140.06 26.21 140.22 27.14L141.5 34.51L136.15 32.48C135.28 32.15 134.3 32.6 133.97 33.48C133.64 34.37 134.09 35.36 134.96 35.69L140.32 37.72L134.57 42.43C133.85 43.02 133.73 44.1 134.32 44.84C134.71 45.33 135.32 45.55 135.89 45.46C136.18 45.41 136.46 45.29 136.7 45.09L143.99 39.12L149.51 41.22L140.81 48.34C140.08 48.94 139.96 50.02 140.55 50.75C140.94 51.25 141.55 51.46 142.13 51.37C142.41 51.33 142.69 51.21 142.93 51.01L153.19 42.61L156.08 43.71L154.87 46.99C154.54 47.87 154.98 48.86 155.86 49.2C156.14 49.3 156.43 49.33 156.71 49.29C157.29 49.2 157.81 48.79 158.03 48.19L159.25 44.91L167.45 48.03L160.55 53.5L158.42 50.74C157.85 49.99 156.78 49.86 156.05 50.44C155.31 51.02 155.18 52.1 155.76 52.85L157.88 55.61L155.45 57.53L143.18 52.64C142.31 52.3 141.33 52.73 140.99 53.61C140.64 54.49 141.07 55.49 141.94 55.83L152.36 59.98L147.71 63.66L138.98 60.19C138.12 59.84 137.13 60.27 136.79 61.16C136.45 62.04 136.88 63.03 137.75 63.38L144.62 66.12L140.12 69.68C139.38 70.27 139.25 71.35 139.83 72.09C140.22 72.6 140.83 72.82 141.41 72.73C141.69 72.69 141.96 72.57 142.2 72.39L146.7 68.82L147.66 76.24C147.78 77.18 148.63 77.84 149.56 77.72C150.46 77.58 151.13 76.72 151.01 75.79L149.79 66.37L154.44 62.69L155.89 73.94C156.01 74.88 156.86 75.54 157.79 75.41C158.69 75.27 159.36 74.42 159.24 73.49L157.53 60.23L159.97 58.31L162.09 61.07C162.48 61.57 163.1 61.8 163.68 61.71C163.96 61.66 164.23 61.55 164.46 61.36C165.2 60.78 165.33 59.7 164.76 58.96L162.63 56.2L169.63 50.65L170.98 59.55L167.57 60.09C166.65 60.23 166.01 61.1 166.16 62.04C166.3 62.98 167.16 63.62 168.08 63.47L171.5 62.94L171.96 66.03L161.76 74.5C161.03 75.1 160.93 76.18 161.52 76.91C162.11 77.65 163.18 77.75 163.9 77.15L172.56 69.97L173.46 75.88L166.2 81.9C165.47 82.5 165.37 83.58 165.96 84.31C166.55 85.04 167.61 85.15 168.34 84.55L174.05 79.81L174.92 85.54C175.06 86.48 175.93 87.12 176.85 86.97C177.77 86.83 178.4 85.96 178.26 85.02L177.39 79.29L184.25 82.08C184.54 82.19 184.84 82.22 185.13 82.18C185.71 82.09 186.22 81.71 186.45 81.12C186.79 80.24 186.37 79.24 185.5 78.89L176.8 75.36L175.9 69.45L186.29 73.67C186.58 73.79 186.88 73.82 187.17 73.77C187.75 73.68 188.26 73.3 188.49 72.71C188.84 71.84 188.41 70.84 187.55 70.49L175.31 65.52L174.84 62.42L178.25 61.89C179.17 61.75 179.8 60.87 179.66 59.94C179.52 59 178.66 58.36 177.74 58.5L174.32 59.04L172.97 50.13L181.3 53.29L180.08 56.57C179.76 57.46 180.2 58.44 181.08 58.78C181.35 58.88 181.65 58.91 181.92 58.87C182.51 58.78 183.03 58.37 183.25 57.77L184.46 54.49L187.35 55.59L189.65 68.76C189.81 69.68 190.66 70.3 191.57 70.16C192.49 69.99 193.14 69.1 192.98 68.16L191.03 56.99L196.55 59.09L198.18 68.45C198.34 69.37 199.2 69.99 200.1 69.85C201.02 69.68 201.67 68.79 201.51 67.86L200.23 60.48L205.58 62.51C205.86 62.62 206.15 62.65 206.43 62.6C207.01 62.51 207.54 62.11 207.76 61.51C208.09 60.62 207.64 59.64 206.77 59.3L201.41 57.27L207.16 52.57C207.89 51.97 208 50.89 207.41 50.16C206.83 49.42 205.76 49.3 205.04 49.9Z" fill="#FFFFFF" fill-opacity="0.200000" fill-rule="nonzero"/>
	<path id="path" d="M8.2 60.93C15.62 64.73 23.16 64.7 30.84 60.4C24.06 56.62 20.67 49.66 19.07 41.04C17.97 50.27 14.01 56.56 8.2 60.93Z" stroke="#FFFFFF" stroke-opacity="1.000000" stroke-width="1.922100" stroke-linejoin="round"/>
	<path id="path" d="M14.31 63.23C11.82 67.66 8.53 71.25 4.61 74.2C14.59 79.31 24.72 79.28 35.03 73.5C30.48 70.96 27.07 67.35 24.52 62.92" stroke="#FFFFFF" stroke-opacity="1.000000" stroke-width="1.922100" stroke-linejoin="round" stroke-linecap="round"/>
	<path id="path" d="M12.35 77.28C9.33 82.16 5.5 86.21 1.01 89.58C13.58 96.01 26.35 95.98 39.33 88.69C34.2 85.83 30.21 81.88 27.13 77.08" stroke="#FFFFFF" stroke-opacity="1.000000" stroke-width="1.922100" stroke-linejoin="round" stroke-linecap="round"/>
	<path id="polyline" d="" stroke="#FFFFFF" stroke-opacity="1.000000" stroke-width="1.000000"/>
	<path id="path" d="M17.21 60.1C16.47 60.12 15.86 59.53 15.84 58.79C15.82 58.05 16.41 57.44 17.15 57.42C17.88 57.4 18.5 57.99 18.51 58.73C18.53 59.47 17.95 60.08 17.21 60.1Z" stroke="#FFFFFF" stroke-opacity="1.000000" stroke-width="0.800000" stroke-linejoin="round"/>
	<path id="path" d="M23.98 73.64C22.98 73.66 22.16 72.87 22.13 71.87C22.11 70.88 22.9 70.05 23.9 70.03C24.89 70 25.72 70.79 25.74 71.79C25.76 72.79 24.97 73.61 23.98 73.64Z" stroke="#FFFFFF" stroke-opacity="1.000000" stroke-width="0.800000" stroke-linejoin="round"/>
	<path id="path" d="M14.54 88.48C13.16 88.51 12.02 87.42 11.98 86.04C11.95 84.65 13.05 83.51 14.43 83.47C15.81 83.44 16.95 84.54 16.99 85.92C17.02 87.3 15.92 88.45 14.54 88.48Z" stroke="#FFFFFF" stroke-opacity="1.000000" stroke-width="0.800000" stroke-linejoin="round"/>
	<path id="path" d="M26.75 89.25C26.13 89.26 25.61 88.77 25.59 88.14C25.58 87.51 26.07 86.99 26.7 86.98C27.33 86.96 27.85 87.46 27.86 88.09C27.88 88.71 27.38 89.24 26.75 89.25Z" stroke="#FFFFFF" stroke-opacity="1.000000" stroke-width="0.800000" stroke-linejoin="round"/>
	<path id="path" d="M15.01 70.99C14.66 71 14.37 70.72 14.36 70.36C14.35 70.01 14.63 69.72 14.98 69.71C15.34 69.7 15.63 69.98 15.64 70.33C15.65 70.69 15.37 70.98 15.01 70.99Z" stroke="#FFFFFF" stroke-opacity="1.000000" stroke-width="0.800000" stroke-linejoin="round"/>
	<path id="path" d="M20.19 54.2C19.94 54.21 19.74 54.02 19.74 53.78C19.73 53.53 19.92 53.33 20.16 53.33C20.41 53.32 20.61 53.51 20.61 53.76C20.62 54 20.43 54.2 20.19 54.2Z" stroke="#FFFFFF" stroke-opacity="1.000000" stroke-width="0.800000" stroke-linejoin="round"/>
	<path id="path" d="M60.84 101.13C67.35 102.27 72.25 108.01 72.14 114.83C72.02 122.39 65.8 128.42 58.26 128.29C50.71 128.17 44.69 121.95 44.81 114.39C44.92 107.58 49.98 102.02 56.5 101.07" stroke="#FFFFFF" stroke-opacity="1.000000" stroke-width="1.922100" stroke-linejoin="round" stroke-linecap="round"/>
	<path id="path" d="M56.5 101.07L57.3 98.15L60.13 98.19L60.84 101.14C59.41 101.8 57.96 101.78 56.5 101.07Z" stroke="#FFFFFF" stroke-opacity="1.000000" stroke-width="1.922100" stroke-linejoin="round"/>
	<path id="path" d="M53.17 91.1C54.97 89.27 58.39 95.64 58.62 98.06C52.86 96.42 51.37 92.94 53.17 91.1Z" stroke="#FFFFFF" stroke-opacity="1.000000" stroke-width="1.922100" stroke-linejoin="round"/>
	<path id="path" d="M61.31 89.69C64.52 87.01 67.31 91.83 65.48 94.08C63.65 96.33 58.57 98.09 58.57 98.09C58.57 98.09 58.1 92.37 61.31 89.69Z" stroke="#FFFFFF" stroke-opacity="1.000000" stroke-width="1.922100" stroke-linejoin="round"/>
	<path id="path" d="M59.36 97.87C61.78 96.56 65.71 96.74 66.08 99.1C66.46 101.47 68.67 101.39 69.71 99.88" stroke="#FFFFFF" stroke-opacity="1.000000" stroke-width="1.922100" stroke-linejoin="round" stroke-linecap="round"/>
	<path id="path" d="M57.56 97.81C55.28 97.4 53.85 97.08 52.38 99.35C50.92 101.63 49.42 99.09 50.4 98.16" stroke="#FFFFFF" stroke-opacity="1.000000" stroke-width="1.922100" stroke-linejoin="round" stroke-linecap="round"/>
	<path id="path" d="M44.88 114.12C45.09 114.26 45.32 114.35 45.59 114.35C47.76 114.39 47.84 109.38 50.01 109.41C52.18 109.45 52.1 114.46 54.26 114.49C56.43 114.52 56.51 109.52 58.68 109.55C60.85 109.59 60.77 114.6 62.94 114.63C65.1 114.67 65.18 109.66 67.35 109.69C69.52 109.73 69.44 114.74 71.61 114.77C71.78 114.77 71.95 114.74 72.1 114.69" stroke="#FFFFFF" stroke-opacity="1.000000" stroke-width="1.922100" stroke-linejoin="round" stroke-linecap="round"/>
	<path id="path" d="M46.57 120.78C46.67 120.81 46.79 120.82 46.91 120.82C48.84 120.82 48.98 116.81 50.91 116.81C52.84 116.8 52.7 120.82 54.63 120.82C56.56 120.82 56.7 116.8 58.63 116.8C60.56 116.8 60.42 120.81 62.35 120.81C64.28 120.81 64.42 116.8 66.35 116.8C68.28 116.8 68.14 120.81 70.07 120.81" stroke="#FFFFFF" stroke-opacity="1.000000" stroke-width="1.922100" stroke-linejoin="round" stroke-linecap="round"/>
	<path id="path" d="M23.21 116.34L21.43 117.81L20.08 117.3L22.21 115.54C22.38 115.39 22.41 115.12 22.27 114.94C22.13 114.76 21.87 114.73 21.69 114.88L19.19 116.95L18.48 116.68L18.78 115.87C18.86 115.65 18.75 115.41 18.54 115.33C18.33 115.24 18.09 115.35 18.01 115.57L17.71 116.38L15.71 115.61L17.4 114.27L17.91 114.95C18.01 115.07 18.16 115.13 18.3 115.1C18.37 115.09 18.43 115.06 18.49 115.02C18.67 114.87 18.7 114.61 18.56 114.43L18.04 113.74L18.64 113.27L21.63 114.47C21.7 114.5 21.77 114.51 21.84 114.5C21.98 114.48 22.11 114.38 22.16 114.24C22.25 114.02 22.14 113.77 21.93 113.69L19.39 112.66L20.52 111.76L22.65 112.61C22.72 112.64 22.79 112.65 22.86 112.64C23 112.62 23.13 112.52 23.18 112.37C23.27 112.16 23.16 111.91 22.95 111.83L21.28 111.15L22.37 110.27C22.55 110.13 22.59 109.86 22.45 109.68C22.31 109.49 22.05 109.46 21.87 109.6L20.77 110.48L20.54 108.65C20.51 108.42 20.3 108.26 20.07 108.29C19.85 108.32 19.69 108.53 19.72 108.76L20.02 111.09L18.88 112L18.53 109.22C18.5 108.99 18.29 108.82 18.07 108.85C17.85 108.89 17.69 109.1 17.71 109.33L18.13 112.6L17.54 113.08L17.02 112.4C16.88 112.21 16.62 112.18 16.44 112.32C16.26 112.47 16.23 112.73 16.37 112.92L16.89 113.6L15.18 114.97L14.85 112.77L15.68 112.64C15.91 112.6 16.06 112.39 16.03 112.15C15.99 111.92 15.78 111.77 15.56 111.8L14.73 111.93L14.61 111.17L17.1 109.08C17.28 108.93 17.3 108.66 17.16 108.48C17.01 108.3 16.75 108.28 16.58 108.42L14.47 110.2L14.25 108.74L16.02 107.25C16.2 107.11 16.22 106.84 16.08 106.66C15.93 106.48 15.67 106.45 15.5 106.6L14.1 107.77L13.89 106.35C13.86 106.12 13.65 105.97 13.42 106C13.2 106.04 13.04 106.25 13.08 106.48L13.29 107.9L11.62 107.21C11.41 107.12 11.17 107.23 11.08 107.45C11 107.66 11.1 107.91 11.31 108L13.44 108.87L13.65 110.33L11.12 109.29C10.91 109.2 10.67 109.31 10.59 109.52C10.5 109.74 10.6 109.98 10.82 110.07L13.8 111.3L13.91 112.06L13.08 112.19C12.86 112.23 12.7 112.44 12.74 112.68C12.77 112.91 12.98 113.06 13.21 113.03L14.04 112.9L14.37 115.1L12.34 114.32L12.63 113.51C12.71 113.29 12.61 113.04 12.39 112.96C12.18 112.88 11.94 112.99 11.86 113.21L11.57 114.02L10.86 113.75L10.3 110.5C10.27 110.27 10.06 110.12 9.84 110.15C9.61 110.19 9.45 110.42 9.49 110.64L9.97 113.4L8.62 112.89L8.23 110.57C8.19 110.35 7.98 110.19 7.76 110.23C7.53 110.27 7.37 110.49 7.41 110.72L7.73 112.54L6.42 112.04C6.21 111.96 5.97 112.07 5.89 112.29C5.81 112.51 5.92 112.75 6.13 112.83L7.44 113.33L6.04 114.49C5.86 114.64 5.83 114.91 5.98 115.09C6.07 115.21 6.22 115.26 6.36 115.24C6.43 115.23 6.5 115.2 6.56 115.15L8.33 113.68L9.68 114.2L7.56 115.95C7.38 116.1 7.35 116.37 7.49 116.55C7.59 116.67 7.74 116.72 7.88 116.7C7.95 116.69 8.02 116.66 8.07 116.61L10.57 114.54L11.28 114.81L10.98 115.62C10.9 115.84 11.01 116.08 11.22 116.17C11.29 116.19 11.36 116.2 11.43 116.19C11.57 116.17 11.7 116.07 11.76 115.92L12.05 115.11L14.05 115.88L12.37 117.23L11.85 116.55C11.71 116.36 11.45 116.33 11.27 116.47C11.09 116.62 11.06 116.88 11.2 117.07L11.72 117.75L11.13 118.22L8.13 117.02C7.92 116.93 7.68 117.04 7.6 117.26C7.52 117.47 7.62 117.72 7.83 117.8L10.37 118.83L9.24 119.74L7.11 118.88C6.9 118.79 6.66 118.9 6.58 119.12C6.5 119.34 6.6 119.58 6.81 119.67L8.49 120.34L7.39 121.22C7.21 121.37 7.18 121.63 7.32 121.82C7.41 121.94 7.56 122 7.7 121.97C7.77 121.96 7.84 121.94 7.9 121.89L8.99 121.01L9.23 122.84C9.26 123.07 9.46 123.24 9.69 123.21C9.91 123.17 10.07 122.96 10.04 122.73L9.75 120.4L10.88 119.5L11.23 122.27C11.26 122.5 11.47 122.67 11.69 122.64C11.91 122.6 12.08 122.39 12.05 122.16L11.63 118.89L12.23 118.41L12.74 119.1C12.84 119.22 12.99 119.28 13.13 119.25C13.2 119.24 13.26 119.21 13.32 119.17C13.5 119.02 13.53 118.76 13.39 118.57L12.87 117.89L14.58 116.52L14.91 118.72L14.08 118.85C13.85 118.89 13.7 119.1 13.73 119.34C13.77 119.57 13.98 119.72 14.2 119.69L15.04 119.56L15.15 120.32L12.66 122.41C12.49 122.56 12.46 122.83 12.6 123.01C12.75 123.19 13.01 123.21 13.18 123.07L15.29 121.29L15.51 122.75L13.74 124.24C13.57 124.39 13.54 124.65 13.69 124.83C13.83 125.01 14.09 125.04 14.27 124.89L15.66 123.72L15.87 125.14C15.9 125.37 16.11 125.53 16.34 125.49C16.56 125.46 16.72 125.24 16.68 125.01L16.47 123.59L18.14 124.28C18.21 124.31 18.29 124.32 18.36 124.31C18.5 124.28 18.62 124.19 18.68 124.05C18.76 123.83 18.66 123.58 18.45 123.5L16.33 122.62L16.11 121.17L18.64 122.21C18.71 122.24 18.78 122.24 18.86 122.23C18.99 122.21 19.12 122.11 19.18 121.97C19.26 121.75 19.16 121.51 18.95 121.42L15.96 120.19L15.85 119.43L16.68 119.3C16.91 119.26 17.06 119.05 17.03 118.82C16.99 118.59 16.78 118.43 16.56 118.46L15.72 118.59L15.39 116.39L17.42 117.18L17.13 117.99C17.05 118.2 17.16 118.45 17.37 118.53C17.44 118.56 17.51 118.56 17.58 118.55C17.72 118.53 17.85 118.43 17.9 118.28L18.2 117.47L18.9 117.74L19.46 120.99C19.5 121.22 19.71 121.37 19.93 121.34C20.15 121.3 20.31 121.08 20.27 120.85L19.8 118.09L21.14 118.61L21.54 120.92C21.58 121.15 21.78 121.3 22.01 121.26C22.23 121.22 22.39 121 22.35 120.77L22.04 118.95L23.34 119.45C23.41 119.48 23.48 119.49 23.55 119.47C23.69 119.45 23.82 119.35 23.87 119.21C23.95 118.99 23.84 118.74 23.63 118.66L22.32 118.16L23.73 117C23.9 116.85 23.93 116.58 23.79 116.4C23.64 116.22 23.38 116.19 23.21 116.34Z" fill="#FFFFFF" fill-opacity="0.500000" fill-rule="nonzero"/>
	<path id="path" d="M48.13 28.19L46.56 29.5L45.38 29.04L47.25 27.48C47.4 27.35 47.43 27.11 47.3 26.95C47.17 26.79 46.95 26.76 46.79 26.89L44.59 28.73L43.97 28.49L44.23 27.77C44.3 27.58 44.21 27.36 44.02 27.29C43.83 27.22 43.62 27.31 43.55 27.51L43.29 28.23L41.53 27.54L43.01 26.35L43.47 26.95C43.55 27.06 43.68 27.11 43.81 27.09C43.87 27.08 43.93 27.06 43.98 27.02C44.13 26.89 44.16 26.65 44.04 26.49L43.58 25.88L44.1 25.46L46.74 26.53C46.8 26.56 46.86 26.56 46.92 26.55C47.05 26.54 47.16 26.45 47.21 26.32C47.28 26.13 47.19 25.91 47 25.83L44.77 24.92L45.76 24.11L47.64 24.88C47.7 24.9 47.76 24.91 47.82 24.9C47.95 24.88 48.06 24.79 48.11 24.66C48.18 24.47 48.09 24.25 47.9 24.18L46.43 23.58L47.39 22.79C47.55 22.67 47.58 22.43 47.46 22.27C47.33 22.1 47.1 22.07 46.95 22.2L45.98 22.98L45.78 21.36C45.75 21.15 45.57 21 45.37 21.03C45.18 21.06 45.03 21.25 45.06 21.45L45.32 23.52L44.32 24.33L44.01 21.86C43.99 21.65 43.8 21.51 43.6 21.54C43.41 21.57 43.27 21.75 43.29 21.96L43.66 24.87L43.14 25.29L42.68 24.68C42.56 24.52 42.33 24.49 42.17 24.62C42.01 24.75 41.99 24.98 42.11 25.15L42.57 25.75L41.06 26.97L40.77 25.02L41.51 24.9C41.7 24.87 41.84 24.68 41.81 24.47C41.78 24.26 41.59 24.12 41.4 24.16L40.66 24.27L40.56 23.59L42.75 21.74C42.91 21.61 42.93 21.37 42.8 21.21C42.68 21.05 42.45 21.02 42.29 21.15L40.44 22.73L40.24 21.43L41.8 20.11C41.96 19.98 41.98 19.75 41.85 19.58C41.72 19.42 41.5 19.4 41.34 19.53L40.12 20.57L39.93 19.31C39.9 19.11 39.71 18.97 39.52 19C39.32 19.03 39.18 19.22 39.21 19.43L39.4 20.69L37.93 20.08C37.74 20 37.53 20.09 37.46 20.29C37.38 20.48 37.47 20.7 37.66 20.77L39.53 21.55L39.72 22.85L37.49 21.92C37.31 21.84 37.09 21.94 37.02 22.13C36.95 22.32 37.04 22.54 37.22 22.62L39.85 23.71L39.95 24.39L39.22 24.5C39.02 24.54 38.88 24.73 38.91 24.93C38.94 25.14 39.13 25.28 39.33 25.25L40.06 25.13L40.35 27.08L38.56 26.39L38.82 25.67C38.89 25.48 38.8 25.26 38.61 25.19C38.42 25.12 38.21 25.21 38.14 25.41L37.88 26.13L37.26 25.89L36.77 23C36.74 22.79 36.55 22.66 36.36 22.69C36.16 22.73 36.02 22.92 36.06 23.13L36.48 25.58L35.29 25.12L34.94 23.06C34.91 22.86 34.72 22.73 34.53 22.76C34.33 22.79 34.19 22.99 34.23 23.2L34.5 24.81L33.36 24.37C33.17 24.29 32.96 24.39 32.89 24.59C32.82 24.78 32.91 25 33.1 25.07L34.25 25.52L33.02 26.55C32.86 26.68 32.84 26.92 32.96 27.08C33.05 27.19 33.18 27.23 33.3 27.21C33.36 27.2 33.42 27.18 33.47 27.13L35.04 25.82L36.22 26.28L34.35 27.85C34.2 27.98 34.17 28.21 34.3 28.38C34.38 28.48 34.51 28.53 34.64 28.51C34.7 28.5 34.76 28.48 34.81 28.43L37.01 26.59L37.63 26.83L37.37 27.55C37.3 27.75 37.39 27.96 37.58 28.04C37.64 28.06 37.7 28.06 37.76 28.05C37.89 28.04 38 27.95 38.05 27.81L38.31 27.1L40.07 27.78L38.59 28.98L38.13 28.37C38.01 28.21 37.78 28.18 37.62 28.31C37.46 28.44 37.44 28.67 37.56 28.84L38.02 29.44L37.49 29.86L34.86 28.79C34.68 28.72 34.47 28.81 34.39 29C34.32 29.2 34.41 29.42 34.6 29.49L36.83 30.4L35.84 31.21L33.96 30.45C33.78 30.37 33.57 30.47 33.49 30.66C33.42 30.85 33.51 31.07 33.7 31.15L35.17 31.75L34.21 32.53C34.05 32.66 34.02 32.89 34.14 33.06C34.23 33.17 34.36 33.22 34.48 33.2C34.54 33.19 34.6 33.16 34.65 33.12L35.62 32.34L35.82 33.97C35.85 34.17 36.03 34.32 36.23 34.29C36.42 34.26 36.57 34.07 36.54 33.87L36.28 31.8L37.28 31L37.59 33.46C37.61 33.67 37.8 33.81 37.99 33.79C38.19 33.76 38.33 33.57 38.31 33.37L37.94 30.46L38.46 30.03L38.92 30.64C39 30.75 39.13 30.8 39.26 30.78C39.32 30.77 39.38 30.75 39.43 30.7C39.58 30.58 39.61 30.34 39.49 30.18L39.03 29.57L40.54 28.35L40.82 30.31L40.09 30.42C39.89 30.46 39.76 30.65 39.79 30.85C39.82 31.06 40 31.2 40.2 31.17L40.93 31.05L41.04 31.73L38.85 33.59C38.69 33.72 38.67 33.96 38.8 34.12C38.92 34.28 39.15 34.3 39.31 34.17L41.16 32.59L41.36 33.89L39.8 35.21C39.64 35.34 39.62 35.58 39.75 35.74C39.87 35.9 40.1 35.92 40.26 35.79L41.48 34.75L41.67 36.01C41.7 36.21 41.88 36.36 42.08 36.32C42.28 36.29 42.42 36.1 42.39 35.9L42.2 34.64L43.67 35.25C43.73 35.28 43.8 35.28 43.86 35.27C43.98 35.25 44.09 35.17 44.14 35.04C44.22 34.85 44.12 34.63 43.94 34.55L42.07 33.77L41.88 32.48L44.11 33.4C44.17 33.43 44.23 33.44 44.3 33.43C44.42 33.41 44.53 33.32 44.58 33.2C44.65 33 44.56 32.78 44.38 32.71L41.75 31.62L41.65 30.94L42.38 30.82C42.58 30.79 42.72 30.6 42.69 30.39C42.66 30.19 42.47 30.05 42.27 30.08L41.54 30.19L41.25 28.24L43.04 28.93L42.78 29.65C42.71 29.85 42.8 30.06 42.99 30.14C43.05 30.16 43.11 30.17 43.17 30.16C43.3 30.14 43.41 30.05 43.46 29.92L43.72 29.2L44.34 29.44L44.83 32.33C44.86 32.53 45.04 32.66 45.24 32.63C45.44 32.6 45.58 32.4 45.54 32.2L45.12 29.75L46.31 30.21L46.66 32.26C46.69 32.46 46.87 32.6 47.07 32.57C47.27 32.53 47.41 32.33 47.37 32.13L47.1 30.51L48.24 30.96C48.3 30.98 48.37 30.99 48.43 30.98C48.55 30.96 48.66 30.87 48.71 30.74C48.78 30.54 48.69 30.33 48.5 30.25L47.35 29.81L48.58 28.77C48.74 28.64 48.76 28.41 48.64 28.25C48.51 28.08 48.28 28.06 48.13 28.19Z" fill="#FFFFFF" fill-opacity="0.500000" fill-rule="nonzero"/>
	<path id="path" d="M112.74 115.85L109 116.64L107.42 114.85L111.88 113.9C112.25 113.83 112.5 113.46 112.42 113.08C112.35 112.71 111.99 112.46 111.62 112.54L106.36 113.65L105.53 112.72L106.59 111.76C106.87 111.5 106.9 111.06 106.65 110.78C106.4 110.49 105.96 110.47 105.68 110.73L104.63 111.69L102.28 109.03L105.78 108.35L106.02 109.74C106.06 110 106.24 110.19 106.47 110.27C106.58 110.31 106.69 110.31 106.81 110.29C107.19 110.22 107.44 109.85 107.37 109.48L107.13 108.08L108.36 107.84L111.84 111.91C111.92 112 112.02 112.07 112.13 112.11C112.36 112.18 112.61 112.14 112.81 111.97C113.1 111.71 113.13 111.27 112.88 110.98L109.93 107.54L112.29 107.08L114.76 109.97C114.84 110.06 114.95 110.13 115.06 110.17C115.28 110.24 115.54 110.2 115.73 110.03C116.02 109.77 116.05 109.33 115.81 109.05L113.86 106.77L116.15 106.33C116.52 106.25 116.77 105.89 116.7 105.51C116.64 105.13 116.28 104.89 115.91 104.96L113.62 105.41L114.68 102.54C114.81 102.18 114.63 101.79 114.28 101.66C113.93 101.54 113.53 101.72 113.39 102.08L112.05 105.71L109.7 106.17L111.3 101.83C111.43 101.47 111.25 101.07 110.9 100.95C110.54 100.83 110.14 101.01 110.01 101.37L108.13 106.48L106.89 106.72L106.65 105.32C106.59 104.94 106.23 104.7 105.86 104.77C105.48 104.84 105.23 105.21 105.3 105.59L105.54 106.98L101.99 107.67L103.18 104.2L104.5 104.65C104.86 104.77 105.25 104.57 105.38 104.21C105.5 103.84 105.32 103.45 104.96 103.33L103.64 102.88L104.05 101.68L109.3 100.53C109.67 100.45 109.91 100.08 109.84 99.7C109.77 99.33 109.4 99.09 109.03 99.17L104.58 100.14L105.37 97.84L109.1 97.03C109.47 96.95 109.72 96.58 109.64 96.2C109.57 95.83 109.21 95.59 108.84 95.67L105.9 96.31L106.66 94.08C106.79 93.71 106.6 93.32 106.24 93.2C105.89 93.08 105.49 93.28 105.37 93.64L104.6 95.87L102.67 93.58C102.42 93.29 101.99 93.26 101.7 93.52C101.41 93.77 101.38 94.21 101.62 94.5L104.07 97.41L103.28 99.71L100.35 96.24C100.11 95.95 99.68 95.92 99.39 96.17C99.1 96.42 99.06 96.86 99.3 97.15L102.75 101.24L102.34 102.45L101.02 102C100.66 101.88 100.27 102.08 100.14 102.44C100.02 102.81 100.2 103.2 100.56 103.32L101.88 103.77L100.69 107.24L98.3 104.54L99.36 103.58C99.64 103.32 99.67 102.88 99.42 102.6C99.17 102.31 98.73 102.29 98.45 102.55L97.4 103.51L96.57 102.57L98.23 97.38C98.34 97.02 98.15 96.64 97.8 96.52C97.44 96.41 97.04 96.61 96.92 96.98L95.51 101.38L93.93 99.58L95.11 95.9C95.23 95.53 95.04 95.15 94.69 95.03C94.33 94.92 93.92 95.12 93.81 95.49L92.88 98.39L91.34 96.66C91.09 96.37 90.66 96.35 90.37 96.61C90.09 96.87 90.06 97.31 90.31 97.59L91.85 99.33L88.9 99.95C88.53 100.03 88.29 100.4 88.36 100.78C88.41 101.03 88.58 101.22 88.81 101.29C88.92 101.33 89.04 101.34 89.16 101.31L92.9 100.52L94.48 102.31L90.02 103.26C89.65 103.34 89.41 103.7 89.48 104.08C89.53 104.33 89.7 104.52 89.93 104.6C90.04 104.64 90.16 104.64 90.28 104.62L95.54 103.51L96.37 104.44L95.32 105.4C95.03 105.66 95 106.1 95.25 106.38C95.33 106.48 95.43 106.54 95.54 106.58C95.77 106.65 96.03 106.6 96.22 106.43L97.28 105.47L99.63 108.13L96.13 108.82L95.88 107.42C95.82 107.04 95.46 106.8 95.09 106.87C94.71 106.94 94.47 107.31 94.53 107.68L94.77 109.08L93.54 109.32L90.06 105.25C89.82 104.97 89.38 104.94 89.09 105.19C88.81 105.45 88.77 105.89 89.02 106.18L91.97 109.63L89.61 110.09L87.14 107.19C86.89 106.91 86.46 106.88 86.17 107.13C85.88 107.39 85.85 107.83 86.1 108.12L88.04 110.39L85.76 110.84C85.38 110.91 85.13 111.27 85.2 111.65C85.24 111.91 85.42 112.1 85.65 112.18C85.76 112.22 85.87 112.22 85.99 112.2L88.28 111.76L87.22 114.62C87.09 114.98 87.27 115.38 87.63 115.51C87.98 115.62 88.38 115.44 88.51 115.08L89.85 111.45L92.21 110.99L90.61 115.33C90.47 115.69 90.65 116.09 91.01 116.22C91.36 116.33 91.76 116.15 91.89 115.79L93.78 110.68L95.01 110.44L95.25 111.84C95.3 112.1 95.47 112.29 95.7 112.37C95.81 112.4 95.93 112.41 96.05 112.39C96.42 112.32 96.67 111.95 96.6 111.58L96.36 110.18L99.92 109.49L98.72 112.96L97.4 112.51C97.04 112.39 96.65 112.59 96.52 112.95C96.4 113.32 96.59 113.71 96.95 113.83L98.27 114.28L97.85 115.48L92.6 116.63C92.23 116.71 91.99 117.08 92.06 117.46C92.14 117.83 92.5 118.07 92.87 117.99L97.33 117.02L96.53 119.32L92.8 120.13C92.43 120.21 92.19 120.58 92.26 120.96C92.33 121.33 92.69 121.57 93.07 121.49L96.01 120.85L95.24 123.08C95.11 123.45 95.3 123.84 95.66 123.96C96.02 124.08 96.41 123.88 96.53 123.52L97.3 121.29L99.23 123.58C99.32 123.67 99.42 123.74 99.53 123.78C99.75 123.85 100.01 123.81 100.2 123.64C100.49 123.39 100.53 122.95 100.28 122.66L97.83 119.75L98.62 117.45L101.55 120.92C101.63 121.02 101.73 121.09 101.84 121.13C102.07 121.2 102.32 121.16 102.52 120.99C102.81 120.74 102.84 120.3 102.6 120.01L99.15 115.92L99.56 114.72L100.88 115.16C101.24 115.28 101.63 115.09 101.76 114.72C101.89 114.36 101.7 113.96 101.34 113.84L100.02 113.4L101.21 109.93L103.6 112.63L102.54 113.58C102.26 113.84 102.23 114.28 102.48 114.57C102.56 114.66 102.66 114.72 102.77 114.76C103 114.84 103.26 114.79 103.45 114.61L104.51 113.65L105.33 114.59L103.67 119.78C103.56 120.14 103.75 120.52 104.1 120.64C104.46 120.76 104.86 120.55 104.98 120.19L106.39 115.79L107.97 117.58L106.79 121.27C106.67 121.63 106.86 122.01 107.21 122.13C107.58 122.24 107.98 122.04 108.1 121.67L109.02 118.77L110.56 120.51C110.64 120.6 110.74 120.66 110.85 120.7C111.07 120.77 111.33 120.73 111.53 120.55C111.81 120.29 111.84 119.85 111.59 119.57L110.05 117.83L113 117.21C113.37 117.13 113.61 116.76 113.54 116.39C113.47 116.01 113.11 115.77 112.74 115.85Z" fill="#FFFFFF" fill-opacity="0.500000" fill-rule="nonzero"/>
	<line id="Line 7" x1="18.953125" y1="0.000000" x2="18.953125" y2="41.888672" stroke="#FFFFFF" stroke-opacity="1.000000" stroke-width="2.000000"/>
	<line id="Line 9" x1="94.688232" y1="0.000000" x2="94.688232" y2="45.500000" stroke="#FFFFFF" stroke-opacity="1.000000" stroke-width="2.000000"/>
	<line id="Line 11" x1="58.623779" y1="0.000000" x2="58.623779" y2="95.333984" stroke="#FFFFFF" stroke-opacity="1.000000" stroke-width="2.000000"/>
	<rect id="rect" x="79.082520" y="46.245117" width="29.996881" height="7.347559" transform="rotate(-0.568764 79.082520 46.245117)" stroke="#FFFFFF" stroke-opacity="1.000000" stroke-width="2.000000"/>
	<path id="polyline" d="M106.49 53.33L105.03 70.55L83.56 70.76L81.78 53.57" stroke="#FFFFFF" stroke-opacity="1.000000" stroke-width="2.000000"/>
	<rect id="rect" x="92.110352" y="53.473633" width="4.063910" height="17.191946" transform="rotate(-0.568764 92.110352 53.473633)" stroke="#FFFFFF" stroke-opacity="1.000000" stroke-width="2.000000"/>
	<rect id="rect" x="91.440186" y="46.126953" width="5.267710" height="7.342505" transform="rotate(-0.568764 91.440186 46.126953)" stroke="#FFFFFF" stroke-opacity="1.000000" stroke-width="2.000000"/>
	<path id="path" d="M94.42 46.1C97.99 39.97 100.44 37.7 102.4 38.71C104.36 39.73 104.19 44.77 101.47 46.03" stroke="#FFFFFF" stroke-opacity="1.000000" stroke-width="2.000000"/>
	<path id="path" d="M96.37 46.08C97.61 44.44 99.24 42.58 100.25 43.09C101.25 43.6 98.18 46.06 98.18 46.06" stroke="#FFFFFF" stroke-opacity="1.000000" stroke-width="2.000000"/>
	<path id="path" d="M94.06 46.1C90.37 40.04 87.88 37.82 85.94 38.87C84 39.92 84.27 44.96 87 46.17" stroke="#FFFFFF" stroke-opacity="1.000000" stroke-width="2.000000"/>
	<path id="path" d="M92.11 46.12C90.84 44.5 89.17 42.68 88.18 43.21C87.18 43.73 90.3 46.14 90.3 46.14" stroke="#FFFFFF" stroke-opacity="1.000000" stroke-width="2.000000"/>
</svg>
