<svg width="220.461182" height="219.275391" viewBox="0 0 220.461 219.275" fill="none" xmlns="http://www.w3.org/2000/svg" xmlns:xlink="http://www.w3.org/1999/xlink">
	<desc>
			Created with Pixso.
	</desc>
	<defs/>
	<path id="path" d="M29.04 101.74C41.23 107.97 53.6 107.93 66.19 100.88C55.08 94.67 49.52 83.26 46.88 69.1C45.07 84.25 38.58 94.57 29.04 101.74Z" stroke="#0ED881" stroke-opacity="1.000000" stroke-width="1.922100" stroke-linejoin="round"/>
	<path id="path" d="M39.08 105.52C34.99 112.78 29.59 118.68 23.15 123.51C39.53 131.89 56.16 131.84 73.08 122.36C65.61 118.19 60.01 112.27 55.83 105.01" stroke="#0ED881" stroke-opacity="1.000000" stroke-width="1.922100" stroke-linejoin="round" stroke-linecap="round"/>
	<path id="path" d="M35.85 128.56C30.9 136.58 24.61 143.21 17.25 148.75C37.88 159.3 58.83 159.24 80.14 147.29C71.71 142.59 65.17 136.11 60.11 128.24" stroke="#0ED881" stroke-opacity="1.000000" stroke-width="1.922100" stroke-linejoin="round" stroke-linecap="round"/>
	<path id="polyline" d="" stroke="#0ED881" stroke-opacity="1.000000" stroke-width="1.000000"/>
	<path id="path" d="M43.83 100.38C42.62 100.41 41.61 99.45 41.58 98.23C41.55 97.02 42.52 96.01 43.73 95.99C44.94 95.96 45.95 96.92 45.97 98.13C46 99.35 45.04 100.35 43.83 100.38Z" stroke="#0ED881" stroke-opacity="1.000000" stroke-width="0.800000" stroke-linejoin="round"/>
	<path id="path" d="M54.94 122.59C53.31 122.63 51.95 121.33 51.91 119.7C51.87 118.06 53.17 116.7 54.8 116.67C56.44 116.63 57.79 117.92 57.83 119.56C57.87 121.19 56.58 122.55 54.94 122.59Z" stroke="#0ED881" stroke-opacity="1.000000" stroke-width="0.800000" stroke-linejoin="round"/>
	<path id="path" d="M39.46 146.94C37.19 147 35.31 145.2 35.26 142.93C35.21 140.66 37 138.78 39.27 138.73C41.53 138.67 43.42 140.47 43.47 142.74C43.52 145.01 41.72 146.89 39.46 146.94Z" stroke="#0ED881" stroke-opacity="1.000000" stroke-width="0.800000" stroke-linejoin="round"/>
	<path id="path" d="M59.49 148.2C58.47 148.22 57.61 147.41 57.59 146.38C57.57 145.35 58.38 144.5 59.41 144.47C60.44 144.45 61.29 145.27 61.31 146.29C61.34 147.32 60.52 148.18 59.49 148.2Z" stroke="#0ED881" stroke-opacity="1.000000" stroke-width="0.800000" stroke-linejoin="round"/>
	<path id="path" d="M40.23 118.25C39.65 118.26 39.17 117.8 39.15 117.22C39.14 116.64 39.6 116.16 40.18 116.14C40.76 116.13 41.24 116.59 41.25 117.17C41.27 117.75 40.81 118.23 40.23 118.25Z" stroke="#0ED881" stroke-opacity="1.000000" stroke-width="0.800000" stroke-linejoin="round"/>
	<path id="path" d="M48.72 90.71C48.32 90.72 47.99 90.4 47.98 90.01C47.97 89.61 48.29 89.28 48.68 89.27C49.08 89.26 49.41 89.58 49.41 89.97C49.42 90.37 49.11 90.7 48.72 90.71Z" stroke="#0ED881" stroke-opacity="1.000000" stroke-width="0.800000" stroke-linejoin="round"/>
	<path id="path" d="M117.99 170.37C128.96 172.28 137.22 181.95 137.04 193.45C136.83 206.18 126.36 216.33 113.64 216.13C100.92 215.92 90.78 205.44 90.98 192.71C91.17 181.24 99.69 171.86 110.67 170.27" stroke="#5DA5FF" stroke-opacity="1.000000" stroke-width="1.922100" stroke-linejoin="round" stroke-linecap="round"/>
	<path id="path" d="M110.68 170.27L112.03 165.35L116.79 165.42L117.99 170.39C115.58 171.5 113.14 171.47 110.68 170.27Z" stroke="#5DA5FF" stroke-opacity="1.000000" stroke-width="1.922100" stroke-linejoin="round"/>
	<path id="path" d="M105.07 153.48C108.1 150.39 113.86 161.13 114.25 165.2C104.55 162.43 102.03 156.57 105.07 153.48Z" stroke="#5DA5FF" stroke-opacity="1.000000" stroke-width="1.922100" stroke-linejoin="round"/>
	<path id="path" d="M118.78 151.09C124.19 146.57 128.9 154.69 125.82 158.48C122.73 162.27 114.17 165.25 114.17 165.25C114.17 165.25 113.38 155.61 118.78 151.09Z" stroke="#5DA5FF" stroke-opacity="1.000000" stroke-width="1.922100" stroke-linejoin="round"/>
	<path id="path" d="M115.5 164.88C119.57 162.67 126.19 162.97 126.83 166.96C127.46 170.94 131.19 170.81 132.94 168.26" stroke="#5DA5FF" stroke-opacity="1.000000" stroke-width="1.922100" stroke-linejoin="round" stroke-linecap="round"/>
	<path id="path" d="M112.46 164.78C108.62 164.08 106.21 163.54 103.74 167.38C101.27 171.21 98.75 166.94 100.4 165.37" stroke="#5DA5FF" stroke-opacity="1.000000" stroke-width="1.922100" stroke-linejoin="round" stroke-linecap="round"/>
	<path id="path" d="M91.09 192.26C91.45 192.49 91.85 192.63 92.3 192.64C95.95 192.7 96.09 184.26 99.74 184.32C103.4 184.38 103.26 192.82 106.91 192.87C110.56 192.93 110.7 184.5 114.35 184.56C118.01 184.61 117.87 193.05 121.52 193.11C125.18 193.17 125.31 184.73 128.97 184.79C132.62 184.85 132.48 193.29 136.14 193.35C136.44 193.35 136.71 193.3 136.97 193.2" stroke="#5DA5FF" stroke-opacity="1.000000" stroke-width="1.922100" stroke-linejoin="round" stroke-linecap="round"/>
	<path id="path" d="M91.56 198.97C91.76 199.04 91.97 199.07 92.2 199.08C95.85 199.14 95.99 190.7 99.64 190.76C103.29 190.82 103.16 199.26 106.81 199.31C110.46 199.37 110.6 190.94 114.25 191C117.9 191.05 117.77 199.49 121.42 199.55C125.07 199.61 125.21 191.17 128.86 191.23C132.52 191.29 132.38 199.73 136.04 199.79" stroke="#5DA5FF" stroke-opacity="1.000000" stroke-width="1.922100" stroke-linejoin="round" stroke-linecap="round"/>
	<path id="path" d="M166.34 83.01C154.54 89.03 149.17 101.14 152.09 104.5C155.01 107.87 159.78 102.83 159.78 102.83C159.78 102.83 152.46 133.57 175.26 134.12C198.06 134.67 191.46 93.86 184.49 83.38" stroke="#FF3C4D" stroke-opacity="1.000000" stroke-width="1.822900" stroke-linejoin="round" stroke-linecap="round"/>
	<path id="path" d="M164.69 82.57C163.74 82.55 162.99 81.76 163.02 80.81L163.12 76.33C163.15 75.38 163.93 74.63 164.88 74.65L186.17 75.17C187.12 75.19 187.87 75.98 187.84 76.92L187.74 81.41C187.71 82.36 186.93 83.11 185.98 83.08L164.69 82.57Z" stroke="#FF3C4D" stroke-opacity="1.000000" stroke-width="1.822900" stroke-linejoin="round"/>
	<line id="line" x1="162.825928" y1="128.333984" x2="186.549805" y2="128.906250" stroke="#FF3C4D" stroke-opacity="1.000000" stroke-width="0.954800"/>
	<line id="line" x1="160.891113" y1="125.142578" x2="188.404541" y2="125.805664" stroke="#FF3C4D" stroke-opacity="1.000000" stroke-width="0.954800"/>
	<line id="line" x1="154.887695" y1="93.467773" x2="189.163574" y2="94.293945" stroke="#FF3C4D" stroke-opacity="1.000000" stroke-width="0.954800"/>
	<line id="line" x1="156.616943" y1="90.589844" x2="188.073486" y2="91.348633" stroke="#FF3C4D" stroke-opacity="1.000000" stroke-width="0.954800"/>
	<path id="path" d="M175.24 107.17C174.41 107.15 173.73 107.81 173.71 108.64C173.69 109.47 174.34 110.16 175.17 110.18C176 110.2 176.69 109.54 176.71 108.71C176.73 107.88 176.07 107.19 175.24 107.17Z" stroke="#FF3C4D" stroke-opacity="1.000000" stroke-width="0.954800"/>
	<path id="path" d="M175.06 114.94C174.55 114.93 174.13 115.33 174.12 115.83C174.11 116.34 174.51 116.76 175.01 116.77C175.52 116.78 175.94 116.38 175.95 115.88C175.96 115.37 175.56 114.95 175.06 114.94Z" stroke="#FF3C4D" stroke-opacity="1.000000" stroke-width="0.581300"/>
	<line id="line" x1="175.062744" y1="114.921875" x2="175.177490" y2="110.180664" stroke="#FF3C4D" stroke-opacity="1.000000" stroke-width="0.954800"/>
	<path id="path" d="M175.36 102.41C174.85 102.4 174.45 101.98 174.47 101.47C174.48 100.97 174.9 100.57 175.4 100.58C175.91 100.59 176.31 101.01 176.3 101.52C176.28 102.02 175.87 102.42 175.36 102.41Z" stroke="#FF3C4D" stroke-opacity="1.000000" stroke-width="0.581300"/>
	<line id="line" x1="175.364014" y1="102.437500" x2="175.249756" y2="107.179688" stroke="#FF3C4D" stroke-opacity="1.000000" stroke-width="0.954800"/>
	<path id="path" d="M179.53 113.21C179.16 113.56 179.15 114.14 179.5 114.51C179.85 114.87 180.43 114.89 180.79 114.54C181.16 114.19 181.17 113.61 180.82 113.24C180.47 112.88 179.89 112.86 179.53 113.21Z" stroke="#FF3C4D" stroke-opacity="1.000000" stroke-width="0.581300"/>
	<line id="line" x1="179.516846" y1="113.201172" x2="176.247803" y2="109.767578" stroke="#FF3C4D" stroke-opacity="1.000000" stroke-width="0.954800"/>
	<path id="path" d="M170.89 104.14C170.52 104.49 169.94 104.47 169.59 104.11C169.25 103.74 169.26 103.16 169.63 102.81C169.99 102.46 170.57 102.48 170.92 102.84C171.27 103.21 171.26 103.79 170.89 104.14Z" stroke="#FF3C4D" stroke-opacity="1.000000" stroke-width="0.581300"/>
	<line id="line" x1="170.908936" y1="104.159180" x2="174.178223" y2="107.593750" stroke="#FF3C4D" stroke-opacity="1.000000" stroke-width="0.954800"/>
	<path id="path" d="M181.47 108.83C181.46 109.33 181.86 109.75 182.36 109.76C182.87 109.78 183.29 109.38 183.3 108.87C183.31 108.36 182.91 107.94 182.41 107.93C181.9 107.92 181.48 108.32 181.47 108.83Z" stroke="#FF3C4D" stroke-opacity="1.000000" stroke-width="0.581300"/>
	<line id="line" x1="181.450195" y1="108.830078" x2="176.713135" y2="108.716797" stroke="#FF3C4D" stroke-opacity="1.000000" stroke-width="0.954800"/>
	<path id="path" d="M168.95 108.52C168.94 109.03 168.52 109.43 168.01 109.42C167.51 109.4 167.11 108.98 167.12 108.48C167.13 107.97 167.55 107.57 168.06 107.59C168.56 107.6 168.96 108.02 168.95 108.52Z" stroke="#FF3C4D" stroke-opacity="1.000000" stroke-width="0.581300"/>
	<line id="line" x1="168.977051" y1="108.529297" x2="173.714355" y2="108.643555" stroke="#FF3C4D" stroke-opacity="1.000000" stroke-width="0.954800"/>
	<path id="path" d="M179.74 104.35C180.09 104.72 180.67 104.73 181.04 104.38C181.4 104.03 181.42 103.45 181.07 103.09C180.72 102.72 180.14 102.71 179.77 103.06C179.41 103.41 179.39 103.99 179.74 104.35Z" stroke="#FF3C4D" stroke-opacity="1.000000" stroke-width="0.581300"/>
	<line id="line" x1="179.729004" y1="104.372070" x2="176.299072" y2="107.644531" stroke="#FF3C4D" stroke-opacity="1.000000" stroke-width="0.954800"/>
	<path id="path" d="M170.67 113C171.02 113.37 171.01 113.94 170.64 114.29C170.28 114.64 169.7 114.63 169.35 114.26C169 113.9 169.02 113.32 169.38 112.97C169.75 112.62 170.33 112.63 170.67 113Z" stroke="#FF3C4D" stroke-opacity="1.000000" stroke-width="0.581300"/>
	<line id="line" x1="170.696533" y1="112.988281" x2="174.127441" y2="109.715820" stroke="#FF3C4D" stroke-opacity="1.000000" stroke-width="0.954800"/>
	<path id="path" d="M74.19 185.32L71.19 187.81L68.93 186.93L72.5 183.97C72.8 183.72 72.85 183.27 72.61 182.97C72.37 182.66 71.93 182.61 71.63 182.86L67.42 186.35L66.23 185.9L66.73 184.53C66.86 184.16 66.68 183.75 66.32 183.61C65.97 183.48 65.56 183.66 65.43 184.03L64.93 185.39L61.56 184.1L64.4 181.83L65.27 182.97C65.43 183.18 65.68 183.28 65.92 183.24C66.04 183.22 66.15 183.17 66.24 183.1C66.55 182.85 66.6 182.41 66.36 182.1L65.49 180.95L66.49 180.15L71.53 182.18C71.65 182.23 71.77 182.24 71.89 182.22C72.13 182.18 72.34 182.02 72.43 181.78C72.57 181.41 72.39 181 72.04 180.85L67.76 179.13L69.67 177.6L73.25 179.04C73.37 179.09 73.49 179.1 73.61 179.09C73.85 179.05 74.06 178.89 74.15 178.64C74.29 178.27 74.12 177.86 73.76 177.72L70.94 176.58L72.79 175.1C73.09 174.85 73.14 174.4 72.91 174.1C72.67 173.78 72.24 173.73 71.93 173.97L70.08 175.46L69.69 172.37C69.64 171.98 69.29 171.7 68.91 171.75C68.54 171.81 68.26 172.17 68.31 172.55L68.81 176.47L66.91 178.01L66.31 173.33C66.26 172.94 65.91 172.66 65.53 172.71C65.16 172.77 64.89 173.13 64.93 173.51L65.64 179.02L64.64 179.82L63.76 178.68C63.53 178.37 63.09 178.31 62.79 178.55C62.49 178.8 62.43 179.25 62.67 179.56L63.54 180.7L60.67 183.01L60.11 179.31L61.51 179.09C61.89 179.03 62.15 178.66 62.09 178.27C62.04 177.88 61.68 177.62 61.3 177.68L59.9 177.9L59.71 176.61L63.9 173.09C64.2 172.84 64.24 172.39 64 172.09C63.76 171.78 63.32 171.74 63.02 171.99L59.46 174.97L59.1 172.52L62.08 170.02C62.37 169.77 62.42 169.32 62.18 169.01C61.93 168.71 61.5 168.66 61.2 168.91L58.85 170.88L58.5 168.5C58.44 168.11 58.08 167.84 57.7 167.9C57.32 167.96 57.07 168.33 57.12 168.72L57.48 171.1L54.66 169.94C54.31 169.8 53.9 169.97 53.76 170.34C53.62 170.71 53.79 171.12 54.15 171.27L57.72 172.74L58.09 175.19L53.83 173.44C53.47 173.29 53.07 173.47 52.92 173.84C52.78 174.2 52.95 174.62 53.31 174.76L58.34 176.83L58.53 178.12L57.13 178.34C56.75 178.4 56.49 178.76 56.55 179.15C56.61 179.54 56.96 179.81 57.34 179.75L58.74 179.52L59.29 183.23L55.88 181.91L56.37 180.55C56.51 180.18 56.33 179.77 55.97 179.63C55.61 179.49 55.21 179.68 55.07 180.05L54.58 181.41L53.39 180.96L52.45 175.48C52.38 175.1 52.03 174.84 51.66 174.9C51.28 174.97 51.01 175.34 51.08 175.73L51.88 180.38L49.61 179.5L48.94 175.61C48.88 175.23 48.53 174.97 48.16 175.03C47.78 175.1 47.51 175.47 47.58 175.86L48.1 178.92L45.91 178.08C45.55 177.94 45.15 178.13 45.01 178.49C44.88 178.86 45.06 179.27 45.42 179.41L47.62 180.26L45.26 182.21C44.96 182.46 44.91 182.91 45.15 183.22C45.31 183.42 45.56 183.51 45.8 183.47C45.92 183.45 46.03 183.4 46.13 183.32L49.13 180.84L51.39 181.71L47.82 184.67C47.52 184.92 47.47 185.37 47.71 185.68C47.87 185.88 48.12 185.97 48.36 185.93C48.48 185.91 48.59 185.86 48.69 185.78L52.9 182.29L54.09 182.75L53.59 184.11C53.46 184.48 53.64 184.89 54 185.03C54.11 185.07 54.23 185.08 54.35 185.07C54.59 185.03 54.8 184.86 54.89 184.61L55.39 183.25L58.76 184.54L55.92 186.82L55.05 185.67C54.81 185.36 54.38 185.3 54.08 185.55C53.77 185.79 53.72 186.24 53.96 186.55L54.83 187.69L53.83 188.49L48.79 186.46C48.43 186.32 48.03 186.5 47.89 186.86C47.75 187.23 47.93 187.64 48.28 187.79L52.56 189.51L50.65 191.04L47.07 189.6C46.71 189.45 46.31 189.64 46.17 190C46.03 190.37 46.2 190.78 46.56 190.93L49.38 192.06L47.53 193.55C47.23 193.79 47.18 194.24 47.41 194.55C47.57 194.76 47.83 194.85 48.07 194.81C48.18 194.8 48.29 194.75 48.39 194.67L50.24 193.19L50.63 196.27C50.68 196.66 51.03 196.94 51.41 196.89C51.78 196.83 52.06 196.47 52.01 196.09L51.51 192.17L53.42 190.64L54.01 195.32C54.06 195.71 54.41 195.98 54.79 195.93C55.16 195.87 55.44 195.52 55.39 195.13L54.69 189.62L55.68 188.82L56.56 189.96C56.72 190.17 56.97 190.27 57.21 190.23C57.32 190.21 57.43 190.16 57.53 190.09C57.83 189.84 57.89 189.4 57.65 189.09L56.78 187.94L59.65 185.63L60.21 189.34L58.81 189.56C58.43 189.62 58.17 189.98 58.23 190.37C58.28 190.76 58.64 191.03 59.02 190.97L60.42 190.74L60.61 192.03L56.42 195.55C56.12 195.8 56.08 196.25 56.32 196.55C56.57 196.86 57 196.9 57.3 196.65L60.86 193.67L61.22 196.12L58.24 198.63C57.95 198.88 57.9 199.33 58.15 199.63C58.39 199.93 58.83 199.98 59.12 199.73L61.47 197.76L61.83 200.14C61.88 200.53 62.24 200.8 62.62 200.74C63 200.68 63.26 200.31 63.2 199.92L62.84 197.54L65.66 198.7C65.78 198.75 65.9 198.76 66.02 198.74C66.25 198.71 66.46 198.55 66.56 198.3C66.7 197.94 66.53 197.52 66.17 197.38L62.6 195.91L62.23 193.45L66.49 195.2C66.61 195.25 66.74 195.27 66.86 195.25C67.09 195.21 67.3 195.05 67.4 194.81C67.54 194.44 67.37 194.03 67.01 193.88L61.98 191.81L61.79 190.53L63.19 190.31C63.57 190.25 63.83 189.88 63.77 189.49C63.72 189.1 63.36 188.84 62.98 188.9L61.58 189.12L61.03 185.42L64.44 186.73L63.95 188.09C63.81 188.46 63.99 188.87 64.35 189.01C64.47 189.06 64.59 189.07 64.7 189.05C64.94 189.01 65.16 188.85 65.25 188.59L65.74 187.23L66.93 187.69L67.87 193.16C67.94 193.55 68.29 193.8 68.66 193.74C69.04 193.68 69.31 193.3 69.24 192.92L68.44 188.27L70.71 189.14L71.38 193.04C71.44 193.42 71.79 193.68 72.17 193.62C72.54 193.55 72.81 193.18 72.74 192.79L72.22 189.72L74.42 190.57C74.53 190.61 74.65 190.62 74.76 190.6C75 190.57 75.22 190.4 75.31 190.15C75.44 189.78 75.26 189.37 74.9 189.23L72.7 188.39L75.06 186.43C75.36 186.18 75.41 185.73 75.17 185.43C74.93 185.12 74.49 185.07 74.19 185.32Z" fill="#FFFFFF" fill-opacity="0.500000" fill-rule="nonzero"/>
	<path id="path" d="M149.71 77.48L147.08 79.69L145.08 78.92L148.23 76.28C148.49 76.06 148.53 75.66 148.32 75.39C148.11 75.12 147.72 75.08 147.46 75.3L143.75 78.4L142.71 78L143.15 76.78C143.26 76.46 143.1 76.09 142.79 75.97C142.47 75.84 142.12 76.01 142 76.34L141.56 77.55L138.6 76.4L141.09 74.38L141.86 75.4C142 75.58 142.23 75.67 142.44 75.63C142.54 75.62 142.63 75.58 142.72 75.51C142.99 75.29 143.03 74.89 142.82 74.62L142.06 73.6L142.93 72.89L147.37 74.69C147.47 74.74 147.58 74.75 147.69 74.73C147.89 74.7 148.08 74.55 148.16 74.33C148.29 74.01 148.13 73.64 147.82 73.51L144.05 71.98L145.73 70.62L148.89 71.91C148.99 71.95 149.1 71.96 149.2 71.94C149.41 71.91 149.6 71.76 149.68 71.55C149.8 71.22 149.65 70.85 149.33 70.73L146.85 69.71L148.48 68.39C148.74 68.18 148.79 67.78 148.58 67.51C148.38 67.23 147.99 67.18 147.73 67.4L146.1 68.71L145.75 65.97C145.71 65.62 145.4 65.38 145.07 65.42C144.74 65.48 144.5 65.79 144.54 66.14L144.98 69.62L143.3 70.98L142.78 66.82C142.73 66.47 142.43 66.23 142.09 66.28C141.77 66.33 141.52 66.64 141.57 66.99L142.18 71.89L141.31 72.6L140.54 71.58C140.33 71.3 139.94 71.25 139.68 71.47C139.41 71.69 139.37 72.08 139.57 72.36L140.34 73.38L137.81 75.43L137.32 72.14L138.56 71.94C138.89 71.89 139.12 71.56 139.07 71.22C139.02 70.87 138.7 70.64 138.37 70.69L137.14 70.88L136.97 69.74L140.66 66.61C140.92 66.39 140.96 65.99 140.74 65.72C140.53 65.45 140.14 65.41 139.88 65.63L136.75 68.29L136.43 66.1L139.05 63.88C139.31 63.66 139.35 63.26 139.14 62.99C138.92 62.72 138.54 62.68 138.28 62.9L136.21 64.65L135.9 62.53C135.85 62.19 135.54 61.95 135.2 62C134.87 62.06 134.64 62.38 134.69 62.73L135.01 64.84L132.53 63.81C132.22 63.68 131.86 63.84 131.74 64.17C131.61 64.49 131.76 64.86 132.08 64.99L135.22 66.3L135.55 68.48L131.79 66.92C131.48 66.79 131.12 66.95 131 67.28C130.87 67.6 131.02 67.97 131.34 68.1L135.76 69.94L135.93 71.08L134.7 71.28C134.36 71.33 134.13 71.65 134.19 72C134.24 72.34 134.55 72.58 134.88 72.53L136.12 72.33L136.6 75.62L133.6 74.46L134.03 73.24C134.15 72.91 133.99 72.55 133.68 72.43C133.36 72.3 133.01 72.47 132.89 72.8L132.45 74.01L131.41 73.6L130.58 68.74C130.52 68.4 130.21 68.17 129.88 68.22C129.55 68.28 129.32 68.61 129.38 68.96L130.08 73.09L128.08 72.31L127.5 68.85C127.44 68.51 127.13 68.28 126.8 68.33C126.47 68.4 126.23 68.73 126.29 69.07L126.76 71.8L124.82 71.04C124.51 70.92 124.15 71.09 124.03 71.42C123.92 71.74 124.08 72.11 124.39 72.23L126.33 72.98L124.25 74.72C123.99 74.94 123.95 75.34 124.16 75.61C124.3 75.8 124.52 75.87 124.73 75.84C124.83 75.82 124.93 75.78 125.02 75.71L127.66 73.5L129.65 74.27L126.5 76.91C126.24 77.13 126.2 77.53 126.41 77.8C126.55 77.98 126.77 78.06 126.98 78.03C127.08 78.01 127.18 77.97 127.27 77.89L130.98 74.79L132.02 75.2L131.58 76.41C131.47 76.74 131.63 77.1 131.94 77.22C132.04 77.26 132.15 77.27 132.25 77.26C132.46 77.22 132.65 77.08 132.73 76.85L133.17 75.64L136.13 76.79L133.64 78.81L132.87 77.79C132.66 77.52 132.28 77.47 132.01 77.68C131.75 77.9 131.7 78.3 131.91 78.57L132.67 79.59L131.8 80.3L127.36 78.5C127.05 78.37 126.69 78.53 126.57 78.86C126.44 79.18 126.6 79.55 126.91 79.68L130.68 81.21L129 82.57L125.84 81.29C125.53 81.16 125.18 81.32 125.05 81.64C124.93 81.97 125.08 82.34 125.4 82.47L127.88 83.48L126.25 84.8C125.99 85.01 125.94 85.41 126.15 85.69C126.29 85.87 126.51 85.96 126.72 85.92C126.82 85.91 126.92 85.86 127.01 85.79L128.63 84.48L128.98 87.22C129.02 87.57 129.33 87.81 129.66 87.77C129.99 87.71 130.23 87.4 130.19 87.06L129.75 83.57L131.43 82.21L131.95 86.37C132 86.72 132.3 86.96 132.64 86.91C132.97 86.86 133.21 86.55 133.17 86.2L132.55 81.3L133.43 80.59L134.19 81.61C134.34 81.8 134.56 81.88 134.77 81.85C134.87 81.83 134.97 81.79 135.05 81.72C135.32 81.5 135.37 81.11 135.16 80.83L134.39 79.81L136.92 77.76L137.41 81.05L136.17 81.25C135.84 81.3 135.61 81.62 135.66 81.97C135.71 82.32 136.03 82.55 136.36 82.5L137.59 82.3L137.76 83.45L134.07 86.58C133.81 86.8 133.77 87.2 133.99 87.47C134.2 87.74 134.59 87.78 134.85 87.56L137.98 84.9L138.3 87.09L135.68 89.31C135.42 89.53 135.38 89.93 135.59 90.2C135.81 90.47 136.19 90.51 136.45 90.29L138.52 88.54L138.83 90.66C138.88 91 139.19 91.24 139.53 91.19C139.86 91.13 140.09 90.81 140.04 90.46L139.72 88.35L142.2 89.38C142.31 89.42 142.42 89.43 142.52 89.41C142.73 89.38 142.91 89.24 143 89.02C143.12 88.7 142.97 88.33 142.66 88.2L139.51 86.89L139.19 84.71L142.94 86.27C143.04 86.31 143.15 86.32 143.26 86.31C143.47 86.28 143.65 86.13 143.73 85.92C143.86 85.59 143.71 85.22 143.39 85.09L138.97 83.26L138.8 82.11L140.03 81.92C140.37 81.86 140.6 81.54 140.54 81.19C140.49 80.85 140.18 80.61 139.85 80.66L138.61 80.86L138.13 77.57L141.13 78.74L140.7 79.95C140.58 80.28 140.74 80.64 141.06 80.77C141.16 80.8 141.26 80.81 141.36 80.8C141.57 80.76 141.76 80.62 141.84 80.39L142.28 79.18L143.32 79.59L144.15 84.46C144.21 84.79 144.52 85.02 144.85 84.97C145.18 84.91 145.41 84.58 145.36 84.23L144.65 80.1L146.65 80.88L147.24 84.34C147.29 84.68 147.6 84.91 147.93 84.86C148.26 84.8 148.5 84.47 148.44 84.12L147.98 81.4L149.91 82.15C150.01 82.19 150.12 82.2 150.22 82.18C150.43 82.15 150.62 82 150.7 81.78C150.82 81.45 150.66 81.08 150.34 80.96L148.4 80.21L150.48 78.47C150.74 78.25 150.78 77.85 150.57 77.58C150.36 77.31 149.97 77.26 149.71 77.48Z" fill="#FFFFFF" fill-opacity="0.500000" fill-rule="nonzero"/>
	<path id="path" d="M17.53 63.85L15.73 65.33L14.37 64.81L16.52 63.05C16.7 62.91 16.72 62.64 16.58 62.46C16.44 62.28 16.17 62.25 15.99 62.4L13.47 64.47L12.75 64.2L13.05 63.39C13.13 63.17 13.02 62.92 12.81 62.84C12.59 62.76 12.35 62.87 12.27 63.09L11.97 63.9L9.95 63.13L11.65 61.78L12.18 62.46C12.27 62.59 12.42 62.64 12.57 62.62C12.64 62.61 12.7 62.58 12.76 62.54C12.94 62.39 12.97 62.13 12.83 61.94L12.31 61.26L12.91 60.79L15.93 61.99C16 62.02 16.08 62.03 16.15 62.02C16.29 62 16.42 61.9 16.47 61.75C16.56 61.54 16.45 61.29 16.24 61.21L13.67 60.18L14.82 59.28L16.97 60.13C17.04 60.16 17.11 60.17 17.18 60.16C17.32 60.14 17.45 60.04 17.51 59.9C17.59 59.68 17.49 59.43 17.27 59.35L15.58 58.67L16.69 57.79C16.87 57.65 16.9 57.39 16.76 57.2C16.62 57.02 16.36 56.99 16.17 57.13L15.07 58.01L14.83 56.18C14.8 55.95 14.59 55.78 14.36 55.81C14.14 55.85 13.97 56.06 14 56.29L14.3 58.61L13.16 59.52L12.8 56.75C12.77 56.51 12.56 56.35 12.33 56.38C12.11 56.42 11.95 56.63 11.98 56.86L12.4 60.12L11.8 60.6L11.27 59.92C11.13 59.73 10.87 59.7 10.69 59.84C10.51 59.99 10.47 60.25 10.62 60.44L11.14 61.12L9.41 62.49L9.08 60.29L9.92 60.16C10.15 60.12 10.31 59.91 10.27 59.68C10.24 59.45 10.02 59.29 9.8 59.32L8.96 59.46L8.84 58.69L11.35 56.61C11.53 56.46 11.56 56.19 11.41 56.01C11.27 55.83 11.01 55.8 10.83 55.95L8.69 57.72L8.47 56.27L10.26 54.78C10.44 54.64 10.47 54.37 10.32 54.19C10.17 54.01 9.91 53.98 9.73 54.13L8.33 55.3L8.11 53.89C8.08 53.66 7.86 53.5 7.64 53.53C7.41 53.57 7.25 53.78 7.29 54.01L7.5 55.43L5.81 54.74C5.6 54.65 5.36 54.76 5.27 54.98C5.19 55.19 5.29 55.44 5.5 55.53L7.65 56.4L7.87 57.85L5.31 56.81C5.1 56.73 4.85 56.83 4.77 57.05C4.68 57.26 4.79 57.51 5 57.6L8.02 58.82L8.13 59.58L7.29 59.71C7.06 59.75 6.91 59.97 6.94 60.2C6.98 60.43 7.19 60.59 7.42 60.55L8.26 60.42L8.59 62.61L6.54 61.83L6.84 61.03C6.92 60.81 6.81 60.57 6.6 60.48C6.38 60.4 6.14 60.51 6.06 60.73L5.76 61.54L5.05 61.27L4.48 58.02C4.44 57.8 4.23 57.64 4.01 57.68C3.78 57.72 3.62 57.94 3.66 58.17L4.14 60.92L2.78 60.41L2.38 58.1C2.34 57.87 2.13 57.72 1.91 57.75C1.68 57.8 1.52 58.02 1.56 58.25L1.88 60.06L0.56 59.56C0.34 59.48 0.1 59.59 0.02 59.81C-0.06 60.03 0.05 60.27 0.27 60.35L1.58 60.85L0.17 62.01C-0.01 62.16 -0.04 62.43 0.11 62.61C0.2 62.73 0.35 62.78 0.49 62.76C0.56 62.75 0.63 62.72 0.69 62.67L2.49 61.2L3.85 61.71L1.7 63.47C1.53 63.62 1.5 63.88 1.64 64.06C1.74 64.19 1.89 64.24 2.03 64.22C2.1 64.21 2.17 64.18 2.23 64.13L4.76 62.06L5.47 62.33L5.17 63.14C5.09 63.36 5.2 63.6 5.41 63.68C5.48 63.71 5.55 63.71 5.62 63.7C5.77 63.68 5.9 63.58 5.95 63.43L6.25 62.62L8.27 63.39L6.57 64.74L6.05 64.06C5.9 63.88 5.64 63.84 5.46 63.99C5.28 64.13 5.25 64.4 5.39 64.58L5.91 65.26L5.31 65.74L2.29 64.53C2.08 64.45 1.83 64.55 1.75 64.77C1.66 64.99 1.77 65.23 1.98 65.32L4.55 66.34L3.41 67.25L1.26 66.39C1.04 66.3 0.8 66.41 0.72 66.63C0.63 66.84 0.74 67.09 0.95 67.18L2.64 67.85L1.54 68.73C1.35 68.87 1.32 69.14 1.46 69.32C1.56 69.45 1.71 69.5 1.85 69.48C1.92 69.47 1.99 69.44 2.05 69.4L3.16 68.52L3.39 70.34C3.42 70.58 3.63 70.74 3.86 70.71C4.08 70.67 4.25 70.46 4.22 70.24L3.92 67.91L5.06 67L5.42 69.78C5.45 70.01 5.66 70.17 5.89 70.14C6.11 70.11 6.28 69.9 6.25 69.67L5.83 66.4L6.43 65.93L6.95 66.61C7.05 66.73 7.2 66.79 7.34 66.76C7.41 66.75 7.48 66.72 7.53 66.68C7.71 66.53 7.75 66.27 7.61 66.09L7.08 65.41L8.81 64.04L9.14 66.23L8.3 66.36C8.07 66.4 7.92 66.62 7.95 66.85C7.99 67.08 8.2 67.23 8.43 67.2L9.27 67.07L9.38 67.83L6.87 69.92C6.69 70.06 6.66 70.33 6.81 70.51C6.95 70.69 7.22 70.72 7.39 70.57L9.53 68.8L9.75 70.25L7.96 71.74C7.78 71.89 7.76 72.15 7.9 72.33C8.05 72.51 8.31 72.54 8.49 72.39L9.9 71.22L10.11 72.64C10.14 72.87 10.36 73.03 10.59 72.99C10.81 72.96 10.97 72.74 10.93 72.51L10.72 71.1L12.41 71.78C12.48 71.81 12.56 71.82 12.63 71.81C12.77 71.79 12.89 71.69 12.95 71.55C13.04 71.33 12.93 71.08 12.72 71L10.57 70.13L10.35 68.67L12.91 69.71C12.98 69.74 13.06 69.75 13.13 69.74C13.27 69.71 13.4 69.62 13.45 69.48C13.54 69.26 13.43 69.01 13.22 68.93L10.21 67.7L10.09 66.94L10.93 66.81C11.16 66.77 11.31 66.56 11.28 66.33C11.24 66.1 11.03 65.94 10.8 65.97L9.96 66.11L9.63 63.91L11.68 64.69L11.38 65.5C11.3 65.72 11.41 65.96 11.63 66.04C11.7 66.07 11.77 66.07 11.84 66.06C11.98 66.04 12.11 65.94 12.16 65.79L12.46 64.99L13.17 65.26L13.74 68.5C13.78 68.73 13.99 68.88 14.21 68.85C14.44 68.8 14.6 68.58 14.56 68.35L14.08 65.6L15.44 66.12L15.84 68.43C15.88 68.65 16.09 68.8 16.31 68.77C16.54 68.73 16.7 68.51 16.66 68.28L16.35 66.46L17.66 66.96C17.73 66.99 17.8 67 17.87 66.98C18.02 66.96 18.15 66.86 18.2 66.72C18.28 66.5 18.17 66.25 17.96 66.17L16.64 65.67L18.05 64.51C18.23 64.37 18.26 64.1 18.12 63.92C17.97 63.74 17.71 63.71 17.53 63.85Z" fill="#FFFFFF" fill-opacity="0.500000" fill-rule="nonzero"/>
	<path id="path" d="M205.45 195.16L199.15 196.49L196.48 193.48L204 191.89C204.63 191.76 205.04 191.14 204.92 190.5C204.8 189.87 204.19 189.46 203.56 189.6L194.7 191.47L193.31 189.89L195.08 188.27C195.56 187.84 195.61 187.1 195.18 186.62C194.76 186.14 194.03 186.11 193.55 186.54L191.78 188.16L187.82 183.67L193.72 182.52L194.12 184.87C194.2 185.31 194.5 185.64 194.88 185.76C195.06 185.83 195.26 185.84 195.46 185.8C196.09 185.68 196.51 185.06 196.4 184.43L195.99 182.08L198.07 181.68L203.93 188.52C204.07 188.68 204.24 188.8 204.43 188.86C204.8 188.99 205.24 188.91 205.56 188.62C206.05 188.2 206.11 187.45 205.69 186.97L200.72 181.16L204.69 180.39L208.86 185.26C208.99 185.42 209.17 185.53 209.35 185.59C209.73 185.72 210.16 185.64 210.49 185.36C210.98 184.93 211.03 184.19 210.62 183.71L207.34 179.87L211.19 179.12C211.82 179 212.24 178.38 212.13 177.75C212.02 177.11 211.42 176.7 210.79 176.82L206.94 177.57L208.72 172.75C208.94 172.14 208.64 171.47 208.04 171.26C207.45 171.06 206.77 171.36 206.55 171.97L204.29 178.09L200.32 178.86L203.02 171.56C203.24 170.95 202.94 170.28 202.34 170.06C201.75 169.86 201.07 170.17 200.85 170.77L197.68 179.38L195.6 179.78L195.19 177.43C195.08 176.79 194.48 176.38 193.85 176.5C193.22 176.62 192.8 177.24 192.91 177.87L193.32 180.22L187.33 181.39L189.34 175.55L191.57 176.3C192.17 176.5 192.83 176.17 193.04 175.55C193.26 174.94 192.94 174.28 192.34 174.07L190.11 173.32L190.81 171.29L199.65 169.36C200.28 169.22 200.69 168.6 200.56 167.97C200.44 167.34 199.83 166.93 199.2 167.07L191.69 168.71L193.03 164.83L199.32 163.46C199.95 163.32 200.36 162.7 200.23 162.07C200.11 161.43 199.5 161.03 198.87 161.17L193.92 162.25L195.21 158.49C195.42 157.88 195.11 157.21 194.5 157.01C193.9 156.81 193.24 157.14 193.03 157.75L191.73 161.51L188.48 157.66C188.07 157.17 187.34 157.12 186.85 157.55C186.36 157.97 186.3 158.71 186.71 159.2L190.84 164.1L189.51 167.97L184.58 162.13C184.17 161.64 183.44 161.59 182.95 162.02C182.46 162.44 182.4 163.18 182.81 163.67L188.62 170.56L187.92 172.59L185.69 171.83C185.09 171.63 184.43 171.96 184.22 172.58C184.01 173.19 184.33 173.85 184.93 174.06L187.16 174.81L185.15 180.66L181.13 176.11L182.9 174.49C183.38 174.06 183.42 173.32 183 172.84C182.58 172.36 181.85 172.33 181.37 172.76L179.6 174.37L178.2 172.79L180.99 164.06C181.19 163.45 180.87 162.8 180.28 162.6C179.67 162.41 178.99 162.75 178.8 163.37L176.42 170.78L173.76 167.77L175.75 161.55C175.94 160.94 175.62 160.3 175.03 160.1C174.42 159.91 173.74 160.25 173.55 160.87L171.98 165.76L169.39 162.83C168.97 162.35 168.24 162.32 167.76 162.76C167.28 163.19 167.24 163.93 167.66 164.41L170.24 167.34L165.28 168.39C164.66 168.52 164.25 169.14 164.37 169.77C164.45 170.2 164.74 170.52 165.12 170.64C165.31 170.71 165.51 170.72 165.72 170.68L172.02 169.35L174.69 172.36L167.17 173.95C166.54 174.09 166.13 174.71 166.25 175.34C166.33 175.76 166.63 176.08 167.01 176.21C167.19 176.27 167.4 176.29 167.61 176.24L176.47 174.37L177.86 175.95L176.09 177.56C175.61 178 175.56 178.74 175.99 179.22C176.12 179.37 176.29 179.48 176.47 179.54C176.85 179.67 177.29 179.59 177.62 179.3L179.39 177.68L183.35 182.17L177.45 183.32L177.04 180.97C176.93 180.33 176.33 179.92 175.71 180.04C175.08 180.16 174.66 180.77 174.77 181.41L175.17 183.76L173.09 184.16L167.24 177.32C166.82 176.83 166.09 176.79 165.61 177.22C165.12 177.64 165.06 178.38 165.48 178.87L170.45 184.68L166.48 185.45L162.31 180.58C161.9 180.1 161.17 180.05 160.68 180.48C160.19 180.91 160.14 181.65 160.55 182.14L163.83 185.97L159.98 186.72C159.35 186.84 158.93 187.46 159.04 188.09C159.12 188.52 159.42 188.85 159.8 188.98C159.98 189.04 160.18 189.06 160.38 189.02L164.23 188.27L162.45 193.09C162.23 193.7 162.53 194.37 163.13 194.59C163.72 194.79 164.4 194.48 164.62 193.88L166.88 187.75L170.85 186.98L168.15 194.28C167.93 194.89 168.23 195.56 168.83 195.78C169.42 195.98 170.1 195.67 170.32 195.07L173.49 186.46L175.57 186.06L175.98 188.41C176.06 188.84 176.36 189.17 176.74 189.3C176.92 189.36 177.12 189.38 177.32 189.34C177.95 189.21 178.37 188.6 178.26 187.97L177.85 185.62L183.84 184.45L181.83 190.29L179.6 189.54C179 189.34 178.34 189.67 178.13 190.28C177.91 190.9 178.23 191.56 178.83 191.77L181.06 192.52L180.36 194.55L171.52 196.48C170.89 196.61 170.48 197.24 170.61 197.87C170.73 198.5 171.34 198.9 171.97 198.77L179.48 197.13L178.14 201.01L171.85 202.38C171.22 202.52 170.81 203.14 170.94 203.77C171.06 204.4 171.67 204.81 172.3 204.67L177.25 203.59L175.96 207.35C175.75 207.96 176.06 208.63 176.67 208.83C177.27 209.03 177.93 208.7 178.14 208.09L179.44 204.33L182.69 208.18C182.83 208.35 183 208.46 183.19 208.52C183.56 208.65 184 208.58 184.32 208.3C184.81 207.87 184.87 207.13 184.46 206.64L180.32 201.74L181.66 197.87L186.59 203.71C186.73 203.88 186.9 203.99 187.09 204.05C187.46 204.18 187.89 204.11 188.22 203.82C188.71 203.4 188.77 202.66 188.36 202.17L182.55 195.28L183.24 193.26L185.47 194.01C186.08 194.21 186.74 193.88 186.95 193.27C187.16 192.65 186.84 191.99 186.24 191.78L184.01 191.03L186.02 185.19L190.04 189.74L188.27 191.35C187.79 191.78 187.75 192.53 188.17 193.01C188.3 193.16 188.47 193.27 188.65 193.33C189.03 193.46 189.48 193.38 189.8 193.08L191.57 191.47L192.97 193.05L190.17 201.78C189.98 202.39 190.3 203.04 190.89 203.24C191.5 203.43 192.18 203.09 192.37 202.47L194.75 195.06L197.41 198.07L195.42 204.29C195.23 204.9 195.55 205.54 196.14 205.74C196.75 205.93 197.43 205.6 197.62 204.98L199.19 200.08L201.77 203.01C201.91 203.16 202.08 203.27 202.26 203.33C202.64 203.46 203.08 203.38 203.41 203.09C203.89 202.65 203.93 201.91 203.51 201.43L200.92 198.5L205.88 197.45C206.51 197.32 206.92 196.7 206.8 196.07C206.68 195.43 206.08 195.03 205.45 195.16Z" fill="#FFFFFF" fill-opacity="1.000000" fill-rule="nonzero"/>
	<line id="Line 1" x1="47.403320" y1="0.000000" x2="47.403320" y2="70.566406" stroke="#0ED881" stroke-opacity="1.000000" stroke-width="2.000000"/>
	<line id="Line 2" x1="175.027588" y1="0.000000" x2="175.027588" y2="75.433594" stroke="#FF3C4D" stroke-opacity="1.000000" stroke-width="2.000000"/>
	<line id="Line 3" x1="114.254150" y1="0.000000" x2="114.254150" y2="160.599609" stroke="#5DA5FF" stroke-opacity="1.000000" stroke-width="2.000000"/>
</svg>
