<svg width="20.516113" height="20.500000" viewBox="0 0 20.5161 20.5" fill="none" xmlns="http://www.w3.org/2000/svg" xmlns:xlink="http://www.w3.org/1999/xlink">
	<desc>
			Created with Pixso.
	</desc>
	<defs/>
	<path id="Vector 86" d="M2.43 10L3.58 20L17.04 20L18.2 9.62L2.43 10Z" fill="#226CC8" fill-opacity="1.000000" fill-rule="evenodd"/>
	<path id="Vector 86" d="M3.58 20L17.04 20L18.2 9.62L2.43 10L3.58 20Z" stroke="#FFFFFF" stroke-opacity="1.000000" stroke-width="1.000000"/>
	<rect id="rect" x="0.504150" y="5.281250" width="19.471478" height="4.370482" transform="rotate(-0.411299 0.504150 5.281250)" fill="#226CC8" fill-opacity="1.000000"/>
	<rect id="rect" x="0.504150" y="5.281250" width="19.471478" height="4.370482" transform="rotate(-0.411299 0.504150 5.281250)" stroke="#FFFFFF" stroke-opacity="1.000000" stroke-width="1.000000"/>
	<rect id="rect" x="8.957764" y="9.593750" width="2.637951" height="10.226132" transform="rotate(-0.411298 8.957764 9.593750)" fill="#FFFFFF" fill-opacity="1.000000"/>
	<rect id="rect" x="8.957764" y="9.593750" width="2.637951" height="10.226132" transform="rotate(-0.411298 8.957764 9.593750)" stroke="#FFFFFF" stroke-opacity="1.000000" stroke-width="1.000000"/>
	<rect id="rect" x="8.530518" y="5.225586" width="3.419359" height="4.367474" transform="rotate(-0.411293 8.530518 5.225586)" fill="#FFFFFF" fill-opacity="1.000000"/>
	<rect id="rect" x="8.530518" y="5.225586" width="3.419359" height="4.367474" transform="rotate(-0.411293 8.530518 5.225586)" stroke="#FFFFFF" stroke-opacity="1.000000" stroke-width="1.000000"/>
	<path id="path" d="M10.46 5.21C12.79 1.57 14.38 0.22 15.65 0.83C16.93 1.43 16.81 4.43 15.05 5.18L10.46 5.21Z" fill="#226CC8" fill-opacity="1.000000" fill-rule="evenodd"/>
	<path id="path" d="M15.65 0.83C16.93 1.43 16.81 4.43 15.05 5.18L10.46 5.21C12.79 1.57 14.38 0.22 15.65 0.83Z" stroke="#FFFFFF" stroke-opacity="1.000000" stroke-width="1.000000"/>
	<path id="path" d="M10.23 5.21C7.84 1.61 6.23 0.28 4.96 0.9C3.7 1.53 3.87 4.52 5.65 5.25L10.23 5.21Z" fill="#226CC8" fill-opacity="1.000000" fill-rule="evenodd"/>
	<path id="path" d="M4.96 0.9C3.7 1.53 3.87 4.52 5.65 5.25L10.23 5.21C7.84 1.61 6.23 0.28 4.96 0.9Z" stroke="#FFFFFF" stroke-opacity="1.000000" stroke-width="1.000000"/>
</svg>
