<svg width="257.000000" height="100.500000" viewBox="0 0 257 100.5" fill="none" xmlns="http://www.w3.org/2000/svg" xmlns:xlink="http://www.w3.org/1999/xlink">
	<desc>
			Created with Pixso.
	</desc>
	<defs/>
	<path id="path" d="M43.38 59.86C43.07 59.86 42.6 59.76 41.96 59.57C41.33 59.37 40.73 59.1 40.18 58.73C39.63 58.37 39.29 57.93 39.16 57.41C38.81 55.69 38.47 53.59 38.14 51.1C37.81 48.61 37.54 45.89 37.34 42.92C37.15 39.96 37.05 36.94 37.05 33.85L37.05 31.4C33.84 31.44 30.44 31.64 26.85 31.98C23.27 32.32 19.72 32.82 16.2 33.46C16.15 34.49 16.12 35.5 16.1 36.49C16.08 37.47 16.07 38.46 16.07 39.45C16.07 40.86 16.1 42.25 16.17 43.6C16.23 44.95 16.31 46.21 16.4 47.37C16.62 46.72 16.81 46.04 16.99 45.31C17.17 44.58 17.28 44.21 17.32 44.21C17.41 44.21 17.45 44.56 17.45 45.24C17.45 45.8 17.44 46.53 17.42 47.43C17.4 48.33 17.38 49.25 17.35 50.2C17.33 51.14 17.32 51.98 17.32 52.71C17.32 53.05 17.32 53.37 17.32 53.64C17.32 53.92 17.34 54.11 17.39 54.19C17.39 54.23 17.3 54.26 17.12 54.26C16.86 54.26 16.4 54.16 15.74 53.97C15.08 53.77 14.46 53.5 13.89 53.16C13.32 52.82 12.99 52.43 12.9 52C12.64 50.33 12.5 48.2 12.5 45.63C12.5 43.91 12.55 42.07 12.64 40.09C12.72 38.12 12.86 36.1 13.03 34.04C11.67 34.3 10.34 34.6 9.04 34.94C7.74 35.28 6.48 35.63 5.25 35.97C5.2 35.97 5.18 35.98 5.18 36C5.18 36.02 5.18 36.04 5.18 36.04L6.9 36.04C7.12 36.04 7.31 36.05 7.49 36.07C7.67 36.09 7.75 36.1 7.75 36.1C7.75 36.14 7.43 36.23 6.8 36.36C6.16 36.49 5.4 36.62 4.52 36.78C3.64 36.93 2.84 37.07 2.11 37.19C1.39 37.32 0.91 37.43 0.69 37.52L0.63 37.52C0.54 37.52 0.5 37.37 0.5 37.07C0.5 36.64 0.57 36.06 0.73 35.33C0.88 34.6 1.07 33.94 1.29 33.36C1.51 32.78 1.7 32.47 1.88 32.43C3.42 32 5.17 31.62 7.13 31.3C9.08 30.98 11.16 30.71 13.36 30.5C13.71 26.68 14.13 23.01 14.61 19.49C15.1 15.97 15.56 13.07 16 10.8C15.52 11.4 15.07 11.91 14.65 12.34C14.23 12.77 13.96 12.99 13.82 12.99L13.82 12.79C14 12.41 14.29 11.74 14.68 10.8C15.08 9.85 15.53 8.88 16.03 7.87C16.54 6.86 17.03 5.99 17.52 5.26C18 4.53 18.38 4.16 18.64 4.16C19.21 4.16 19.87 4.43 20.62 4.97C21.37 5.51 21.74 6.05 21.74 6.61L21.74 6.8C20.73 8.65 19.87 10.83 19.17 13.34C18.46 15.85 17.88 18.56 17.42 21.45C16.96 24.35 16.62 27.28 16.4 30.24C18.86 30.03 21.37 29.88 23.92 29.79C26.47 29.7 28.93 29.66 31.31 29.66C32.32 29.66 33.32 29.66 34.31 29.66C35.3 29.66 36.23 29.68 37.11 29.73C37.33 25.52 37.7 21.5 38.2 17.65C38.71 13.81 39.09 10.65 39.36 8.16C39.05 8.67 38.75 9.21 38.47 9.77C38.18 10.32 37.99 10.6 37.91 10.6C37.86 10.6 37.84 10.54 37.84 10.41C37.84 10.28 37.86 10.05 37.91 9.7C37.95 9.36 38.04 8.91 38.17 8.35C38.26 7.88 38.44 7.21 38.73 6.35C39.02 5.5 39.34 4.62 39.69 3.71C40.04 2.81 40.41 2.05 40.81 1.43C41.2 0.81 41.56 0.5 41.86 0.5C42.61 0.5 43.36 0.8 44.11 1.4C44.86 2 45.23 2.56 45.23 3.07L45.23 3.26C44.35 5.32 43.6 7.79 42.99 10.67C42.37 13.54 41.92 16.62 41.63 19.91C41.35 23.19 41.18 26.55 41.14 29.98C42.19 30.07 43.05 30.21 43.71 30.4C44.37 30.59 44.7 30.84 44.7 31.14C44.7 31.44 44.55 31.59 44.24 31.59C43.75 31.59 43.25 31.58 42.72 31.56C42.19 31.54 41.67 31.51 41.14 31.46C41.14 35.07 41.24 38.6 41.43 42.06C41.63 45.51 41.91 48.65 42.26 51.49C42.44 50.63 42.57 49.75 42.66 48.85C42.74 47.95 42.81 47.5 42.85 47.5C42.94 47.5 43.01 47.86 43.05 48.59C43.1 49.32 43.15 50.24 43.22 51.36C43.28 52.47 43.34 53.62 43.38 54.8C43.43 55.98 43.47 57.02 43.51 57.93C43.56 58.83 43.62 59.43 43.71 59.73C43.71 59.81 43.6 59.86 43.38 59.86ZM56.91 50.78C55.32 50.78 54.16 50.28 53.41 49.27C52.66 48.26 52.29 47.02 52.29 45.56C52.29 44.02 52.66 42.13 53.41 39.9C54.16 37.67 54.95 35.56 55.79 33.59C55.04 34.06 54.27 34.49 53.48 34.88C52.68 35.26 51.98 35.46 51.37 35.46C50.93 35.46 50.61 35.35 50.41 35.13C50.21 34.92 50.11 34.68 50.11 34.43C50.11 34.21 50.18 33.89 50.31 33.46C50.44 33.03 50.67 32.62 51 32.24C51.33 31.85 51.74 31.66 52.22 31.66C52.4 31.66 52.49 31.72 52.49 31.85C52.49 31.89 52.48 31.93 52.45 31.95C52.43 31.97 52.42 32 52.42 32.04C52.38 32.13 52.36 32.21 52.36 32.3C52.36 32.47 52.47 32.56 52.68 32.56C52.82 32.56 52.98 32.54 53.18 32.5C53.38 32.45 53.59 32.37 53.81 32.24C54.25 32.02 54.75 31.75 55.32 31.43C55.9 31.11 56.53 30.78 57.24 30.43L58.23 28.5C58.49 28.03 58.8 27.7 59.15 27.5C59.5 27.31 59.83 27.22 60.14 27.22C60.62 27.22 61.05 27.29 61.43 27.44C61.8 27.59 62.14 27.77 62.45 27.99C62.93 27.77 63.45 27.57 64 27.38C64.55 27.18 65.09 27.04 65.62 26.96C67.29 26.36 69.03 25.87 70.83 25.51C72.63 25.14 74.41 24.96 76.17 24.96C77.14 24.96 78.13 25.09 79.14 25.35C80.15 25.61 80.66 26.01 80.66 26.57C80.66 26.74 80.48 26.83 80.13 26.83C79.43 26.83 78.63 26.74 77.72 26.57C76.82 26.4 75.93 26.31 75.05 26.31C73.95 26.31 72.9 26.37 71.88 26.47C70.87 26.58 69.93 26.74 69.05 26.96C69.75 27.26 70.33 27.77 70.8 28.5C71.26 29.23 71.49 30.16 71.49 31.27C71.49 32.47 71.19 33.91 70.6 35.58C70 37.26 69.21 38.98 68.22 40.74C67.23 42.5 66.1 44.14 64.83 45.66C63.55 47.19 62.23 48.42 60.87 49.36C59.5 50.31 58.18 50.78 56.91 50.78ZM57.63 49.43C58.56 49.43 59.51 49.02 60.5 48.2C61.49 47.39 62.47 46.36 63.44 45.11C64.41 43.87 65.26 42.58 66.01 41.25C66.36 40.65 66.77 39.83 67.23 38.8C67.7 37.77 68.09 36.68 68.42 35.52C68.75 34.36 68.92 33.31 68.92 32.37C68.92 31.51 68.73 30.79 68.35 30.21C67.98 29.63 67.29 29.34 66.28 29.34C65.79 29.34 65.18 29.47 64.43 29.73C63.68 29.98 62.89 30.28 62.05 30.63C61.88 30.8 61.71 30.98 61.56 31.17C61.4 31.37 61.28 31.57 61.2 31.79C60.36 33.29 59.52 34.95 58.69 36.78C57.85 38.6 57.16 40.37 56.61 42.09C56.06 43.8 55.79 45.31 55.79 46.59C55.79 48.48 56.4 49.43 57.63 49.43ZM82.84 53.1C81.25 53.1 80.01 52.61 79.11 51.65C78.21 50.68 77.57 49.44 77.2 47.91C76.82 46.39 76.64 44.79 76.64 43.12C76.64 42.3 76.67 41.46 76.73 40.61C76.8 39.75 76.88 38.91 76.97 38.1C76.79 38.27 76.61 38.43 76.44 38.58C76.26 38.73 76.06 38.89 75.84 39.06C75.67 39.23 75.43 39.32 75.12 39.32C74.81 39.32 74.66 39.25 74.66 39.13C74.66 39.08 74.7 39.02 74.79 38.93C75.18 38.59 75.58 38.21 75.98 37.81C76.37 37.4 76.77 36.96 77.16 36.49L77.82 32.56C78.26 30.11 78.78 27.44 79.37 24.54C79.97 21.64 80.67 18.72 81.49 15.75C82.3 12.79 83.21 10 84.22 7.38C84.53 6.65 84.81 6.05 85.05 5.58C85.29 5.11 85.63 4.87 86.07 4.87C86.55 4.87 87.06 5.07 87.59 5.45C88.12 5.84 88.51 6.25 88.78 6.68L88.84 6.68C89.9 7.96 90.43 9.7 90.43 11.89C90.43 13.99 90.01 16.32 89.17 18.88C88.34 21.43 87.21 23.98 85.81 26.54C84.4 29.09 82.84 31.44 81.12 33.59C80.24 37.97 79.8 41.53 79.8 44.28C79.8 46.29 80.02 47.9 80.46 49.11C80.9 50.31 81.39 51.17 81.91 51.68C82.44 52.2 82.82 52.45 83.04 52.45C83.56 52.45 84.01 51.93 84.39 50.88C84.76 49.82 85.08 48.49 85.34 46.88C85.61 45.27 85.81 43.61 85.94 41.89C86.07 40.18 86.14 38.65 86.14 37.32C86.14 36.08 86.07 35.13 85.94 34.49C85.28 34.1 84.95 33.25 84.95 31.91C84.95 31.1 85.08 30.69 85.34 30.69L85.48 30.69C85.52 30.73 85.59 30.76 85.67 30.76L85.74 30.76C85.74 30.76 85.75 30.77 85.77 30.79C85.79 30.81 85.83 30.82 85.87 30.82C86.53 30.99 87.39 31.2 88.45 31.43C89.5 31.67 90.62 31.89 91.81 32.11C93 32.32 94.09 32.49 95.08 32.62C96.07 32.75 96.8 32.82 97.29 32.82C97.46 32.82 97.59 32.79 97.68 32.75C97.77 32.71 97.84 32.69 97.88 32.69C98.01 32.69 98.08 32.73 98.08 32.82C98.08 33.03 97.9 33.25 97.55 33.46C97.24 33.67 96.65 33.89 95.77 34.1C94.89 34.32 93.89 34.49 92.77 34.62C91.65 34.75 90.53 34.81 89.44 34.81C89 34.81 88.58 34.82 88.18 34.84C87.79 34.87 87.41 34.85 87.06 34.81C87.19 35.63 87.3 36.62 87.39 37.81C87.48 38.99 87.52 40.35 87.52 41.89C87.52 43.61 87.4 45.34 87.16 47.08C86.92 48.82 86.46 50.25 85.77 51.39C85.09 52.53 84.11 53.1 82.84 53.1ZM81.78 30.5C83.15 28.48 84.38 26.39 85.48 24.22C86.58 22.05 87.47 19.93 88.15 17.85C88.83 15.77 89.17 13.89 89.17 12.21C89.17 11.61 89.12 11.03 89.01 10.48C88.9 9.92 88.73 9.42 88.51 8.99C87.19 12.13 85.95 15.59 84.78 19.39C83.62 23.19 82.62 26.89 81.78 30.5ZM102.43 50.78C100.85 50.78 99.68 50.28 98.94 49.27C98.19 48.26 97.81 47.02 97.81 45.56C97.81 44.02 98.19 42.13 98.94 39.9C99.68 37.67 100.48 35.56 101.31 33.59C100.56 34.06 99.79 34.49 99 34.88C98.21 35.26 97.51 35.46 96.89 35.46C96.45 35.46 96.13 35.35 95.93 35.13C95.74 34.92 95.64 34.68 95.64 34.43C95.64 34.21 95.7 33.89 95.84 33.46C95.97 33.03 96.2 32.62 96.53 32.24C96.86 31.85 97.27 31.66 97.75 31.66C97.92 31.66 98.01 31.72 98.01 31.85C98.01 31.89 98 31.93 97.98 31.95C97.96 31.97 97.95 32 97.95 32.04C97.9 32.13 97.88 32.21 97.88 32.3C97.88 32.47 97.99 32.56 98.21 32.56C98.34 32.56 98.51 32.54 98.71 32.5C98.9 32.45 99.11 32.37 99.33 32.24C99.77 32.02 100.28 31.75 100.85 31.43C101.42 31.11 102.06 30.78 102.76 30.43L103.75 28.5C104.02 28.03 104.33 27.7 104.68 27.5C105.03 27.31 105.36 27.22 105.67 27.22C106.15 27.22 106.58 27.29 106.95 27.44C107.33 27.59 107.67 27.77 107.98 27.99C108.46 27.77 108.98 27.57 109.53 27.38C110.08 27.18 110.61 27.04 111.14 26.96C112.81 26.36 114.55 25.87 116.36 25.51C118.16 25.14 119.94 24.96 121.7 24.96C122.67 24.96 123.66 25.09 124.67 25.35C125.68 25.61 126.19 26.01 126.19 26.57C126.19 26.74 126.01 26.83 125.66 26.83C124.95 26.83 124.15 26.74 123.25 26.57C122.35 26.4 121.46 26.31 120.58 26.31C119.48 26.31 118.42 26.37 117.41 26.47C116.4 26.58 115.45 26.74 114.57 26.96C115.28 27.26 115.86 27.77 116.32 28.5C116.78 29.23 117.02 30.16 117.02 31.27C117.02 32.47 116.72 33.91 116.12 35.58C115.53 37.26 114.74 38.98 113.75 40.74C112.76 42.5 111.63 44.14 110.35 45.66C109.08 47.19 107.76 48.42 106.39 49.36C105.03 50.31 103.71 50.78 102.43 50.78ZM103.16 49.43C104.08 49.43 105.04 49.02 106.03 48.2C107.02 47.39 108 46.36 108.97 45.11C109.93 43.87 110.79 42.58 111.54 41.25C111.89 40.65 112.3 39.83 112.76 38.8C113.22 37.77 113.62 36.68 113.95 35.52C114.28 34.36 114.44 33.31 114.44 32.37C114.44 31.51 114.25 30.79 113.88 30.21C113.51 29.63 112.81 29.34 111.8 29.34C111.32 29.34 110.7 29.47 109.96 29.73C109.21 29.98 108.42 30.28 107.58 30.63C107.4 30.8 107.24 30.98 107.08 31.17C106.93 31.37 106.81 31.57 106.72 31.79C105.89 33.29 105.05 34.95 104.22 36.78C103.38 38.6 102.69 40.37 102.14 42.09C101.59 43.8 101.31 45.31 101.31 46.59C101.31 48.48 101.93 49.43 103.16 49.43ZM131.73 49.23C130.06 49.23 128.95 48.33 128.4 46.53C127.85 44.73 127.57 42.52 127.57 39.9C127.57 38.78 127.61 37.71 127.67 36.68C127.74 35.65 127.77 34.73 127.77 33.91C127.77 32.92 127.59 32.43 127.24 32.43C126.67 32.43 125.98 32.92 125.16 33.91C124.35 34.9 123.48 36.21 122.56 37.84C121.63 39.47 120.67 41.25 119.65 43.18C119.35 43.7 119.04 43.96 118.73 43.96C118.55 43.96 118.47 43.83 118.47 43.57C118.47 43.22 118.62 42.75 118.93 42.15C119.54 40.99 120.19 39.6 120.88 37.97C121.56 36.34 122.33 34.73 123.18 33.14C124.04 31.55 125 30.23 126.05 29.18C127.11 28.13 128.28 27.6 129.55 27.6C130.43 27.6 131.02 27.99 131.33 28.76C131.64 29.53 131.79 30.48 131.79 31.59C131.79 33.18 131.71 34.71 131.53 36.2C131.35 37.68 131.27 38.89 131.27 39.83C131.27 41.77 131.48 43.35 131.89 44.6C132.31 45.84 132.94 46.47 133.77 46.47C134.3 46.47 134.81 46.19 135.29 45.63C135.78 45.07 136.2 44.47 136.58 43.83C136.95 43.18 137.21 42.71 137.34 42.41C138.26 40.74 138.83 39.65 139.05 39.16C139.27 38.66 139.56 38.42 139.91 38.42C140.04 38.42 140.11 38.5 140.11 38.67C140.11 38.76 140.06 38.98 139.98 39.32C139.45 40.74 138.8 42.21 138.03 43.73C137.26 45.25 136.35 46.55 135.29 47.62C134.24 48.7 133.05 49.23 131.73 49.23ZM144.66 50.78C143.08 50.78 141.91 50.28 141.16 49.27C140.42 48.26 140.04 47.02 140.04 45.56C140.04 44.02 140.42 42.13 141.16 39.9C141.91 37.67 142.7 35.56 143.54 33.59C142.79 34.06 142.02 34.49 141.23 34.88C140.44 35.26 139.73 35.46 139.12 35.46C138.68 35.46 138.36 35.35 138.16 35.13C137.96 34.92 137.86 34.68 137.86 34.43C137.86 34.21 137.93 33.89 138.06 33.46C138.19 33.03 138.42 32.62 138.75 32.24C139.08 31.85 139.49 31.66 139.98 31.66C140.15 31.66 140.24 31.72 140.24 31.85C140.24 31.89 140.23 31.93 140.21 31.95C140.19 31.97 140.17 32 140.17 32.04C140.13 32.13 140.11 32.21 140.11 32.3C140.11 32.47 140.22 32.56 140.44 32.56C140.57 32.56 140.74 32.54 140.93 32.5C141.13 32.45 141.34 32.37 141.56 32.24C142 32.02 142.5 31.75 143.08 31.43C143.65 31.11 144.29 30.78 144.99 30.43L145.98 28.5C146.24 28.03 146.55 27.7 146.9 27.5C147.25 27.31 147.59 27.22 147.89 27.22C148.38 27.22 148.81 27.29 149.18 27.44C149.55 27.59 149.89 27.77 150.2 27.99C150.69 27.77 151.2 27.57 151.75 27.38C152.3 27.18 152.84 27.04 153.37 26.96C155.04 26.36 156.78 25.87 158.58 25.51C160.39 25.14 162.17 24.96 163.93 24.96C164.89 24.96 165.88 25.09 166.9 25.35C167.91 25.61 168.41 26.01 168.41 26.57C168.41 26.74 168.24 26.83 167.89 26.83C167.18 26.83 166.38 26.74 165.48 26.57C164.57 26.4 163.68 26.31 162.8 26.31C161.71 26.31 160.65 26.37 159.64 26.47C158.63 26.58 157.68 26.74 156.8 26.96C157.5 27.26 158.09 27.77 158.55 28.5C159.01 29.23 159.24 30.16 159.24 31.27C159.24 32.47 158.94 33.91 158.35 35.58C157.76 37.26 156.97 38.98 155.98 40.74C154.99 42.5 153.85 44.14 152.58 45.66C151.3 47.19 149.98 48.42 148.62 49.36C147.25 50.31 145.94 50.78 144.66 50.78ZM145.39 49.43C146.31 49.43 147.27 49.02 148.26 48.2C149.25 47.39 150.22 46.36 151.19 45.11C152.16 43.87 153.02 42.58 153.77 41.25C154.12 40.65 154.52 39.83 154.99 38.8C155.45 37.77 155.84 36.68 156.17 35.52C156.5 34.36 156.67 33.31 156.67 32.37C156.67 31.51 156.48 30.79 156.11 30.21C155.73 29.63 155.04 29.34 154.03 29.34C153.55 29.34 152.93 29.47 152.18 29.73C151.43 29.98 150.64 30.28 149.81 30.63C149.63 30.8 149.47 30.98 149.31 31.17C149.16 31.37 149.04 31.57 148.95 31.79C148.11 33.29 147.28 34.95 146.44 36.78C145.61 38.6 144.91 40.37 144.36 42.09C143.81 43.8 143.54 45.31 143.54 46.59C143.54 48.48 144.15 49.43 145.39 49.43ZM167.56 79.5C166.76 79.5 166.17 79.04 165.77 78.14C166.92 75.74 168.07 73.16 169.24 70.42C170.4 67.67 171.52 64.86 172.6 61.98C173.68 59.11 174.59 56.29 175.34 53.55C174.11 54.49 172.86 55.52 171.58 56.64C170.3 57.75 169.09 59.04 167.95 60.5C166.5 62.26 165.39 64.35 164.62 66.78C163.85 69.2 163.46 71.45 163.46 73.51C163.46 76 163.99 77.86 165.05 79.11C165.18 79.24 165.25 79.32 165.25 79.37C165.25 79.37 165.24 79.38 165.21 79.4C165.19 79.42 165.16 79.43 165.11 79.43C164.94 79.43 164.73 79.37 164.49 79.24C164.25 79.11 164.01 78.91 163.79 78.66C162.91 77.76 162.27 76.67 161.85 75.41C161.43 74.14 161.22 72.78 161.22 71.32C161.22 69.64 161.55 67.95 162.21 66.23C162.87 64.51 163.84 62.9 165.11 61.4C166.96 59.21 168.79 57.4 170.59 55.96C172.39 54.52 174.13 53.12 175.8 51.75C176.46 49.21 176.92 46.74 177.19 44.34C177.41 42.45 177.55 40.8 177.62 39.38C177.68 37.97 177.72 36.72 177.72 35.65C177.72 34.96 177.69 34.34 177.65 33.78C177.61 33.22 177.56 32.71 177.52 32.24L176.99 32.37C176.24 33.52 175.34 34.9 174.28 36.49C173.23 38.07 172.09 39.63 170.85 41.15C169.62 42.68 168.39 43.95 167.16 44.99C165.93 46.01 164.76 46.53 163.66 46.53C162.74 46.53 162.01 46.22 161.49 45.6C160.96 44.97 160.69 44.25 160.69 43.44C160.69 43.22 160.74 42.95 160.83 42.6C161.22 40.63 162 38.77 163.17 37.03C164.33 35.29 165.68 33.76 167.19 32.43C168.71 31.1 170.22 30.05 171.71 29.28C173.21 28.5 174.48 28.12 175.54 28.12C176.33 28.12 177.09 28.28 177.82 28.6C178.54 28.92 179.23 29.45 179.89 30.18C180.03 30.3 180.09 30.46 180.09 30.63C180.09 31.01 179.67 31.38 178.84 31.72C179.19 32.37 179.42 33.19 179.53 34.2C179.64 35.21 179.7 36.27 179.7 37.39C179.7 39.23 179.59 41.16 179.37 43.18C179.15 45.2 178.86 47.24 178.51 49.3C179.65 48.18 180.75 46.92 181.81 45.5C182.86 44.08 183.87 42.39 184.84 40.41C185.11 39.9 185.35 39.64 185.57 39.64C185.74 39.64 185.83 39.79 185.83 40.09C185.83 40.56 185.62 41.25 185.2 42.15C184.79 43.05 184.29 43.98 183.72 44.92C183.15 45.86 182.58 46.68 182.01 47.37C181.43 48.05 180.83 48.73 180.19 49.39C179.55 50.06 178.88 50.69 178.18 51.29C177.61 54.26 176.95 57.15 176.2 59.99C175.45 62.82 174.7 65.42 173.96 67.78C173.21 70.14 172.54 72.12 171.94 73.73C171.35 75.34 170.92 76.4 170.66 76.92C170.13 77.86 169.6 78.53 169.07 78.91C168.54 79.3 168.04 79.5 167.56 79.5ZM164.52 43.89C165.14 43.89 165.91 43.55 166.83 42.86C167.75 42.17 168.72 41.3 169.73 40.25C170.74 39.2 171.72 38.07 172.67 36.87C173.61 35.67 174.45 34.54 175.18 33.49C175.9 32.44 176.4 31.59 176.66 30.95C175.74 30.95 174.74 31.26 173.66 31.88C172.58 32.5 171.51 33.31 170.46 34.3C169.4 35.28 168.41 36.31 167.49 37.39C166.57 38.46 165.81 39.47 165.21 40.41C164.62 41.36 164.23 42.09 164.06 42.6C163.93 42.9 163.86 43.14 163.86 43.31C163.86 43.7 164.08 43.89 164.52 43.89ZM188.54 56.64C188.1 56.64 187.49 56.31 186.72 55.64C185.95 54.98 185.41 54.11 185.11 53.03C184.93 52.3 184.8 51.32 184.71 50.07C184.62 48.83 184.58 47.43 184.58 45.89C184.58 43.31 184.63 40.54 184.74 37.58C184.85 34.62 184.91 31.96 184.91 29.6C184.91 28.82 184.9 28.09 184.87 27.41C184.85 26.72 184.82 26.12 184.78 25.61C184.69 25.52 184.43 25.44 184.02 25.38C183.6 25.32 183.2 25.25 182.83 25.19C182.46 25.12 182.27 25.09 182.27 25.09C182.27 25 182.61 24.8 183.29 24.48C183.97 24.16 184.95 24 186.23 24C187.55 24 188.42 24.26 188.83 24.8C189.25 25.34 189.46 25.8 189.46 26.18C189.46 26.27 189.46 26.38 189.46 26.51C189.46 26.64 189.44 26.74 189.39 26.83C189 28.59 188.64 30.39 188.31 32.24C187.98 34.08 187.72 36.21 187.55 38.61C187.72 38.48 187.88 38.32 188.01 38.13C188.14 37.93 188.38 37.79 188.73 37.71C189.13 37.62 189.57 37.71 190.05 37.97C190.54 38.22 190.93 38.35 191.24 38.35C192.78 38.31 193.9 37.98 194.61 37.36C195.31 36.73 195.99 36.21 196.65 35.78C196.74 32.3 197.09 29.52 197.71 27.44C198.32 25.36 199.01 24.32 199.75 24.32C200.15 24.32 200.5 24.63 200.81 25.25C201.12 25.87 201.27 26.81 201.27 28.05C201.27 29.04 201.07 30.14 200.68 31.37C200.28 32.59 200.08 34.02 200.08 35.65C200.08 36.72 200.17 37.91 200.35 39.22C200.52 40.53 200.77 41.78 201.07 42.96C201.38 44.14 201.73 45.1 202.13 45.85C202.52 46.61 202.94 46.98 203.38 46.98C203.95 46.98 204.53 46.63 205.1 45.92C205.67 45.21 206.22 44.38 206.75 43.44C207.27 42.5 207.75 41.67 208.17 40.96C208.58 40.25 208.92 39.9 209.19 39.9C209.32 39.9 209.39 40.01 209.39 40.22C209.39 40.39 209.32 40.67 209.19 41.06C208.09 43.46 207.16 45.32 206.42 46.63C205.67 47.94 204.64 48.59 203.32 48.59C202.3 48.59 201.29 48.16 200.28 47.3C199.62 46.7 199.05 45.81 198.57 44.63C198.08 43.45 197.7 42.19 197.41 40.86C197.12 39.53 196.89 38.35 196.72 37.32C196.28 38.01 195.52 38.6 194.44 39.09C193.36 39.59 192.25 39.83 191.11 39.83C190.36 39.83 189.68 39.71 189.06 39.45C188.62 39.23 188.32 39.29 188.14 39.61C187.96 39.93 187.87 40.34 187.84 40.83C187.82 41.33 187.81 41.72 187.81 42.02C187.85 43.14 187.93 44.46 188.04 45.98C188.15 47.51 188.27 49 188.4 50.46C188.54 51.92 188.65 53.16 188.73 54.19C188.82 55.22 188.89 55.78 188.93 55.87C188.98 55.95 189 56.06 189 56.19C189 56.49 188.84 56.64 188.54 56.64Z" fill="#226CC8" fill-opacity="1.000000" fill-rule="nonzero"/>
	<path id="path" d="M41.96 59.57C41.33 59.37 40.73 59.1 40.18 58.73C39.63 58.37 39.29 57.93 39.16 57.41C38.81 55.69 38.47 53.59 38.14 51.1C37.81 48.61 37.54 45.89 37.34 42.92C37.15 39.96 37.05 36.94 37.05 33.85L37.05 31.4C33.84 31.44 30.44 31.64 26.85 31.98C23.27 32.32 19.72 32.82 16.2 33.46C16.15 34.49 16.12 35.5 16.1 36.49C16.08 37.47 16.07 38.46 16.07 39.45C16.07 40.86 16.1 42.25 16.17 43.6C16.23 44.95 16.31 46.21 16.4 47.37C16.62 46.72 16.81 46.04 16.99 45.31C17.17 44.58 17.28 44.21 17.32 44.21C17.41 44.21 17.45 44.56 17.45 45.24C17.45 45.8 17.44 46.53 17.42 47.43C17.4 48.33 17.38 49.25 17.35 50.2C17.33 51.14 17.32 51.98 17.32 52.71C17.32 53.05 17.32 53.37 17.32 53.64C17.32 53.92 17.34 54.11 17.39 54.19C17.39 54.23 17.3 54.26 17.12 54.26C16.86 54.26 16.4 54.16 15.74 53.97C15.08 53.77 14.46 53.5 13.89 53.16C13.32 52.82 12.99 52.43 12.9 52C12.64 50.33 12.5 48.2 12.5 45.63C12.5 43.91 12.55 42.07 12.64 40.09C12.72 38.12 12.86 36.1 13.03 34.04C11.67 34.3 10.34 34.6 9.04 34.94C7.74 35.28 6.48 35.63 5.25 35.97C5.2 35.97 5.18 35.98 5.18 36C5.18 36.02 5.18 36.04 5.18 36.04L6.9 36.04C7.12 36.04 7.31 36.05 7.49 36.07C7.67 36.09 7.75 36.1 7.75 36.1C7.75 36.14 7.43 36.23 6.8 36.36C6.16 36.49 5.4 36.62 4.52 36.78C3.64 36.93 2.84 37.07 2.11 37.19C1.39 37.32 0.91 37.43 0.69 37.52L0.63 37.52C0.54 37.52 0.5 37.37 0.5 37.07C0.5 36.64 0.57 36.06 0.73 35.33C0.88 34.6 1.07 33.94 1.29 33.36C1.51 32.78 1.7 32.47 1.88 32.43C3.42 32 5.17 31.62 7.13 31.3C9.08 30.98 11.16 30.71 13.36 30.5C13.71 26.68 14.13 23.01 14.61 19.49C15.1 15.97 15.56 13.07 16 10.8C15.52 11.4 15.07 11.91 14.65 12.34C14.23 12.77 13.96 12.99 13.82 12.99L13.82 12.79C14 12.41 14.29 11.74 14.68 10.8C15.08 9.85 15.53 8.88 16.03 7.87C16.54 6.86 17.03 5.99 17.52 5.26C18 4.53 18.38 4.16 18.64 4.16C19.21 4.16 19.87 4.43 20.62 4.97C21.37 5.51 21.74 6.05 21.74 6.61L21.74 6.8C20.73 8.65 19.87 10.83 19.17 13.34C18.46 15.85 17.88 18.56 17.42 21.45C16.96 24.35 16.62 27.28 16.4 30.24C18.86 30.03 21.37 29.88 23.92 29.79C26.47 29.7 28.93 29.66 31.31 29.66C32.32 29.66 33.32 29.66 34.31 29.66C35.3 29.66 36.23 29.68 37.11 29.73C37.33 25.52 37.7 21.5 38.2 17.65C38.71 13.81 39.09 10.65 39.36 8.16C39.05 8.67 38.75 9.21 38.47 9.77C38.18 10.32 37.99 10.6 37.91 10.6C37.86 10.6 37.84 10.54 37.84 10.41C37.84 10.28 37.86 10.05 37.91 9.7C37.95 9.36 38.04 8.91 38.17 8.35C38.26 7.88 38.44 7.21 38.73 6.35C39.02 5.5 39.34 4.62 39.69 3.71C40.04 2.81 40.41 2.05 40.81 1.43C41.2 0.81 41.56 0.5 41.86 0.5C42.61 0.5 43.36 0.8 44.11 1.4C44.86 2 45.23 2.56 45.23 3.07L45.23 3.26C44.35 5.32 43.6 7.79 42.99 10.67C42.37 13.54 41.92 16.62 41.63 19.91C41.35 23.19 41.18 26.55 41.14 29.98C42.19 30.07 43.05 30.21 43.71 30.4C44.37 30.59 44.7 30.84 44.7 31.14C44.7 31.44 44.55 31.59 44.24 31.59C43.75 31.59 43.25 31.58 42.72 31.56C42.19 31.54 41.67 31.51 41.14 31.46C41.14 35.07 41.24 38.6 41.43 42.06C41.63 45.51 41.91 48.65 42.26 51.49C42.44 50.63 42.57 49.75 42.66 48.85C42.74 47.95 42.81 47.5 42.85 47.5C42.94 47.5 43.01 47.86 43.05 48.59C43.1 49.32 43.15 50.24 43.22 51.36C43.28 52.47 43.34 53.62 43.38 54.8C43.43 55.98 43.47 57.02 43.51 57.93C43.56 58.83 43.62 59.43 43.71 59.73C43.71 59.81 43.6 59.86 43.38 59.86C43.07 59.86 42.6 59.76 41.96 59.57ZM53.41 49.27C52.66 48.26 52.29 47.02 52.29 45.56C52.29 44.02 52.66 42.13 53.41 39.9C54.16 37.67 54.95 35.56 55.79 33.59C55.04 34.06 54.27 34.49 53.48 34.88C52.68 35.26 51.98 35.46 51.37 35.46C50.93 35.46 50.61 35.35 50.41 35.13C50.21 34.92 50.11 34.68 50.11 34.43C50.11 34.21 50.18 33.89 50.31 33.46C50.44 33.03 50.67 32.62 51 32.24C51.33 31.85 51.74 31.66 52.22 31.66C52.4 31.66 52.49 31.72 52.49 31.85C52.49 31.89 52.48 31.93 52.45 31.95C52.43 31.97 52.42 32 52.42 32.04C52.38 32.13 52.36 32.21 52.36 32.3C52.36 32.47 52.47 32.56 52.68 32.56C52.82 32.56 52.98 32.54 53.18 32.5C53.38 32.45 53.59 32.37 53.81 32.24C54.25 32.02 54.75 31.75 55.32 31.43C55.9 31.11 56.53 30.78 57.24 30.43L58.23 28.5C58.49 28.03 58.8 27.7 59.15 27.5C59.5 27.31 59.83 27.22 60.14 27.22C60.62 27.22 61.05 27.29 61.43 27.44C61.8 27.59 62.14 27.77 62.45 27.99C62.93 27.77 63.45 27.57 64 27.38C64.55 27.18 65.09 27.04 65.62 26.96C67.29 26.36 69.03 25.87 70.83 25.51C72.63 25.14 74.41 24.96 76.17 24.96C77.14 24.96 78.13 25.09 79.14 25.35C80.15 25.61 80.66 26.01 80.66 26.57C80.66 26.74 80.48 26.83 80.13 26.83C79.43 26.83 78.63 26.74 77.72 26.57C76.82 26.4 75.93 26.31 75.05 26.31C73.95 26.31 72.9 26.37 71.88 26.47C70.87 26.58 69.93 26.74 69.05 26.96C69.75 27.26 70.33 27.77 70.8 28.5C71.26 29.23 71.49 30.16 71.49 31.27C71.49 32.47 71.19 33.91 70.6 35.58C70 37.26 69.21 38.98 68.22 40.74C67.23 42.5 66.1 44.14 64.83 45.66C63.55 47.19 62.23 48.42 60.87 49.36C59.5 50.31 58.18 50.78 56.91 50.78C55.32 50.78 54.16 50.28 53.41 49.27ZM60.5 48.2C61.49 47.39 62.47 46.36 63.44 45.11C64.41 43.87 65.26 42.58 66.01 41.25C66.36 40.65 66.77 39.83 67.23 38.8C67.7 37.77 68.09 36.68 68.42 35.52C68.75 34.36 68.92 33.31 68.92 32.37C68.92 31.51 68.73 30.79 68.35 30.21C67.98 29.63 67.29 29.34 66.28 29.34C65.79 29.34 65.18 29.47 64.43 29.73C63.68 29.98 62.89 30.28 62.05 30.63C61.88 30.8 61.71 30.98 61.56 31.17C61.4 31.37 61.28 31.57 61.2 31.79C60.36 33.29 59.52 34.95 58.69 36.78C57.85 38.6 57.16 40.37 56.61 42.09C56.06 43.8 55.79 45.31 55.79 46.59C55.79 48.48 56.4 49.43 57.63 49.43C58.56 49.43 59.51 49.02 60.5 48.2ZM79.11 51.65C78.21 50.68 77.57 49.44 77.2 47.91C76.82 46.39 76.64 44.79 76.64 43.12C76.64 42.3 76.67 41.46 76.73 40.61C76.8 39.75 76.88 38.91 76.97 38.1C76.79 38.27 76.61 38.43 76.44 38.58C76.26 38.73 76.06 38.89 75.84 39.06C75.67 39.23 75.43 39.32 75.12 39.32C74.81 39.32 74.66 39.25 74.66 39.13C74.66 39.08 74.7 39.02 74.79 38.93C75.18 38.59 75.58 38.21 75.98 37.81C76.37 37.4 76.77 36.96 77.16 36.49L77.82 32.56C78.26 30.11 78.78 27.44 79.37 24.54C79.97 21.64 80.67 18.72 81.49 15.75C82.3 12.79 83.21 10 84.22 7.38C84.53 6.65 84.81 6.05 85.05 5.58C85.29 5.11 85.63 4.87 86.07 4.87C86.55 4.87 87.06 5.07 87.59 5.45C88.12 5.84 88.51 6.25 88.78 6.68L88.84 6.68C89.9 7.96 90.43 9.7 90.43 11.89C90.43 13.99 90.01 16.32 89.17 18.88C88.34 21.43 87.21 23.98 85.81 26.54C84.4 29.09 82.84 31.44 81.12 33.59C80.24 37.97 79.8 41.53 79.8 44.28C79.8 46.29 80.02 47.9 80.46 49.11C80.9 50.31 81.39 51.17 81.91 51.68C82.44 52.2 82.82 52.45 83.04 52.45C83.56 52.45 84.01 51.93 84.39 50.88C84.76 49.82 85.08 48.49 85.34 46.88C85.61 45.27 85.81 43.61 85.94 41.89C86.07 40.18 86.14 38.65 86.14 37.32C86.14 36.08 86.07 35.13 85.94 34.49C85.28 34.1 84.95 33.25 84.95 31.91C84.95 31.1 85.08 30.69 85.34 30.69L85.48 30.69C85.52 30.73 85.59 30.76 85.67 30.76L85.74 30.76C85.74 30.76 85.75 30.77 85.77 30.79C85.79 30.81 85.83 30.82 85.87 30.82C86.53 30.99 87.39 31.2 88.45 31.43C89.5 31.67 90.62 31.89 91.81 32.11C93 32.32 94.09 32.49 95.08 32.62C96.07 32.75 96.8 32.82 97.29 32.82C97.46 32.82 97.59 32.79 97.68 32.75C97.77 32.71 97.84 32.69 97.88 32.69C98.01 32.69 98.08 32.73 98.08 32.82C98.08 33.03 97.9 33.25 97.55 33.46C97.24 33.67 96.65 33.89 95.77 34.1C94.89 34.32 93.89 34.49 92.77 34.62C91.65 34.75 90.53 34.81 89.44 34.81C89 34.81 88.58 34.82 88.18 34.84C87.79 34.87 87.41 34.85 87.06 34.81C87.19 35.63 87.3 36.62 87.39 37.81C87.48 38.99 87.52 40.35 87.52 41.89C87.52 43.61 87.4 45.34 87.16 47.08C86.92 48.82 86.46 50.25 85.77 51.39C85.09 52.53 84.11 53.1 82.84 53.1C81.25 53.1 80.01 52.61 79.11 51.65ZM85.48 24.22C86.58 22.05 87.47 19.93 88.15 17.85C88.83 15.77 89.17 13.89 89.17 12.21C89.17 11.61 89.12 11.03 89.01 10.48C88.9 9.92 88.73 9.42 88.51 8.99C87.19 12.13 85.95 15.59 84.78 19.39C83.62 23.19 82.62 26.89 81.78 30.5C83.15 28.48 84.38 26.39 85.48 24.22ZM98.94 49.27C98.19 48.26 97.81 47.02 97.81 45.56C97.81 44.02 98.19 42.13 98.94 39.9C99.68 37.67 100.48 35.56 101.31 33.59C100.56 34.06 99.79 34.49 99 34.88C98.21 35.26 97.51 35.46 96.89 35.46C96.45 35.46 96.13 35.35 95.93 35.13C95.74 34.92 95.64 34.68 95.64 34.43C95.64 34.21 95.7 33.89 95.84 33.46C95.97 33.03 96.2 32.62 96.53 32.24C96.86 31.85 97.27 31.66 97.75 31.66C97.92 31.66 98.01 31.72 98.01 31.85C98.01 31.89 98 31.93 97.98 31.95C97.96 31.97 97.95 32 97.95 32.04C97.9 32.13 97.88 32.21 97.88 32.3C97.88 32.47 97.99 32.56 98.21 32.56C98.34 32.56 98.51 32.54 98.71 32.5C98.9 32.45 99.11 32.37 99.33 32.24C99.77 32.02 100.28 31.75 100.85 31.43C101.42 31.11 102.06 30.78 102.76 30.43L103.75 28.5C104.02 28.03 104.33 27.7 104.68 27.5C105.03 27.31 105.36 27.22 105.67 27.22C106.15 27.22 106.58 27.29 106.95 27.44C107.33 27.59 107.67 27.77 107.98 27.99C108.46 27.77 108.98 27.57 109.53 27.38C110.08 27.18 110.61 27.04 111.14 26.96C112.81 26.36 114.55 25.87 116.36 25.51C118.16 25.14 119.94 24.96 121.7 24.96C122.67 24.96 123.66 25.09 124.67 25.35C125.68 25.61 126.19 26.01 126.19 26.57C126.19 26.74 126.01 26.83 125.66 26.83C124.95 26.83 124.15 26.74 123.25 26.57C122.35 26.4 121.46 26.31 120.58 26.31C119.48 26.31 118.42 26.37 117.41 26.47C116.4 26.58 115.45 26.74 114.57 26.96C115.28 27.26 115.86 27.77 116.32 28.5C116.78 29.23 117.02 30.16 117.02 31.27C117.02 32.47 116.72 33.91 116.12 35.58C115.53 37.26 114.74 38.98 113.75 40.74C112.76 42.5 111.63 44.14 110.35 45.66C109.08 47.19 107.76 48.42 106.39 49.36C105.03 50.31 103.71 50.78 102.43 50.78C100.85 50.78 99.68 50.28 98.94 49.27ZM106.03 48.2C107.02 47.39 108 46.36 108.97 45.11C109.93 43.87 110.79 42.58 111.54 41.25C111.89 40.65 112.3 39.83 112.76 38.8C113.22 37.77 113.62 36.68 113.95 35.52C114.28 34.36 114.44 33.31 114.44 32.37C114.44 31.51 114.25 30.79 113.88 30.21C113.51 29.63 112.81 29.34 111.8 29.34C111.32 29.34 110.7 29.47 109.96 29.73C109.21 29.98 108.42 30.28 107.58 30.63C107.4 30.8 107.24 30.98 107.08 31.17C106.93 31.37 106.81 31.57 106.72 31.79C105.89 33.29 105.05 34.95 104.22 36.78C103.38 38.6 102.69 40.37 102.14 42.09C101.59 43.8 101.31 45.31 101.31 46.59C101.31 48.48 101.93 49.43 103.16 49.43C104.08 49.43 105.04 49.02 106.03 48.2ZM128.4 46.53C127.85 44.73 127.57 42.52 127.57 39.9C127.57 38.78 127.61 37.71 127.67 36.68C127.74 35.65 127.77 34.73 127.77 33.91C127.77 32.92 127.59 32.43 127.24 32.43C126.67 32.43 125.98 32.92 125.16 33.91C124.35 34.9 123.48 36.21 122.56 37.84C121.63 39.47 120.67 41.25 119.65 43.18C119.35 43.7 119.04 43.96 118.73 43.96C118.55 43.96 118.47 43.83 118.47 43.57C118.47 43.22 118.62 42.75 118.93 42.15C119.54 40.99 120.19 39.6 120.88 37.97C121.56 36.34 122.33 34.73 123.18 33.14C124.04 31.55 125 30.23 126.05 29.18C127.11 28.13 128.28 27.6 129.55 27.6C130.43 27.6 131.02 27.99 131.33 28.76C131.64 29.53 131.79 30.48 131.79 31.59C131.79 33.18 131.71 34.71 131.53 36.2C131.35 37.68 131.27 38.89 131.27 39.83C131.27 41.77 131.48 43.35 131.89 44.6C132.31 45.84 132.94 46.47 133.77 46.47C134.3 46.47 134.81 46.19 135.29 45.63C135.78 45.07 136.2 44.47 136.58 43.83C136.95 43.18 137.21 42.71 137.34 42.41C138.26 40.74 138.83 39.65 139.05 39.16C139.27 38.66 139.56 38.42 139.91 38.42C140.04 38.42 140.11 38.5 140.11 38.67C140.11 38.76 140.06 38.98 139.98 39.32C139.45 40.74 138.8 42.21 138.03 43.73C137.26 45.25 136.35 46.55 135.29 47.62C134.24 48.7 133.05 49.23 131.73 49.23C130.06 49.23 128.95 48.33 128.4 46.53ZM141.16 49.27C140.42 48.26 140.04 47.02 140.04 45.56C140.04 44.02 140.42 42.13 141.16 39.9C141.91 37.67 142.7 35.56 143.54 33.59C142.79 34.06 142.02 34.49 141.23 34.88C140.44 35.26 139.73 35.46 139.12 35.46C138.68 35.46 138.36 35.35 138.16 35.13C137.96 34.92 137.86 34.68 137.86 34.43C137.86 34.21 137.93 33.89 138.06 33.46C138.19 33.03 138.42 32.62 138.75 32.24C139.08 31.85 139.49 31.66 139.98 31.66C140.15 31.66 140.24 31.72 140.24 31.85C140.24 31.89 140.23 31.93 140.21 31.95C140.19 31.97 140.17 32 140.17 32.04C140.13 32.13 140.11 32.21 140.11 32.3C140.11 32.47 140.22 32.56 140.44 32.56C140.57 32.56 140.74 32.54 140.93 32.5C141.13 32.45 141.34 32.37 141.56 32.24C142 32.02 142.5 31.75 143.08 31.43C143.65 31.11 144.29 30.78 144.99 30.43L145.98 28.5C146.24 28.03 146.55 27.7 146.9 27.5C147.25 27.31 147.59 27.22 147.89 27.22C148.38 27.22 148.81 27.29 149.18 27.44C149.55 27.59 149.89 27.77 150.2 27.99C150.69 27.77 151.2 27.57 151.75 27.38C152.3 27.18 152.84 27.04 153.37 26.96C155.04 26.36 156.78 25.87 158.58 25.51C160.39 25.14 162.17 24.96 163.93 24.96C164.89 24.96 165.88 25.09 166.9 25.35C167.91 25.61 168.41 26.01 168.41 26.57C168.41 26.74 168.24 26.83 167.89 26.83C167.18 26.83 166.38 26.74 165.48 26.57C164.57 26.4 163.68 26.31 162.8 26.31C161.71 26.31 160.65 26.37 159.64 26.47C158.63 26.58 157.68 26.74 156.8 26.96C157.5 27.26 158.09 27.77 158.55 28.5C159.01 29.23 159.24 30.16 159.24 31.27C159.24 32.47 158.94 33.91 158.35 35.58C157.76 37.26 156.97 38.98 155.98 40.74C154.99 42.5 153.85 44.14 152.58 45.66C151.3 47.19 149.98 48.42 148.62 49.36C147.25 50.31 145.94 50.78 144.66 50.78C143.08 50.78 141.91 50.28 141.16 49.27ZM148.26 48.2C149.25 47.39 150.22 46.36 151.19 45.11C152.16 43.87 153.02 42.58 153.77 41.25C154.12 40.65 154.52 39.83 154.99 38.8C155.45 37.77 155.84 36.68 156.17 35.52C156.5 34.36 156.67 33.31 156.67 32.37C156.67 31.51 156.48 30.79 156.11 30.21C155.73 29.63 155.04 29.34 154.03 29.34C153.55 29.34 152.93 29.47 152.18 29.73C151.43 29.98 150.64 30.28 149.81 30.63C149.63 30.8 149.47 30.98 149.31 31.17C149.16 31.37 149.04 31.57 148.95 31.79C148.11 33.29 147.28 34.95 146.44 36.78C145.61 38.6 144.91 40.37 144.36 42.09C143.81 43.8 143.54 45.31 143.54 46.59C143.54 48.48 144.15 49.43 145.39 49.43C146.31 49.43 147.27 49.02 148.26 48.2ZM165.77 78.14C166.92 75.74 168.07 73.16 169.24 70.42C170.4 67.67 171.52 64.86 172.6 61.98C173.68 59.11 174.59 56.29 175.34 53.55C174.11 54.49 172.86 55.52 171.58 56.64C170.3 57.75 169.09 59.04 167.95 60.5C166.5 62.26 165.39 64.35 164.62 66.78C163.85 69.2 163.46 71.45 163.46 73.51C163.46 76 163.99 77.86 165.05 79.11C165.18 79.24 165.25 79.32 165.25 79.37C165.25 79.37 165.24 79.38 165.21 79.4C165.19 79.42 165.16 79.43 165.11 79.43C164.94 79.43 164.73 79.37 164.49 79.24C164.25 79.11 164.01 78.91 163.79 78.66C162.91 77.76 162.27 76.67 161.85 75.41C161.43 74.14 161.22 72.78 161.22 71.32C161.22 69.64 161.55 67.95 162.21 66.23C162.87 64.51 163.84 62.9 165.11 61.4C166.96 59.21 168.79 57.4 170.59 55.96C172.39 54.52 174.13 53.12 175.8 51.75C176.46 49.21 176.92 46.74 177.19 44.34C177.41 42.45 177.55 40.8 177.62 39.38C177.68 37.97 177.72 36.72 177.72 35.65C177.72 34.96 177.69 34.34 177.65 33.78C177.61 33.22 177.56 32.71 177.52 32.24L176.99 32.37C176.24 33.52 175.34 34.9 174.28 36.49C173.23 38.07 172.09 39.63 170.85 41.15C169.62 42.68 168.39 43.95 167.16 44.99C165.93 46.01 164.76 46.53 163.66 46.53C162.74 46.53 162.01 46.22 161.49 45.6C160.96 44.97 160.69 44.25 160.69 43.44C160.69 43.22 160.74 42.95 160.83 42.6C161.22 40.63 162 38.77 163.17 37.03C164.33 35.29 165.68 33.76 167.19 32.43C168.71 31.1 170.22 30.05 171.71 29.28C173.21 28.5 174.48 28.12 175.54 28.12C176.33 28.12 177.09 28.28 177.82 28.6C178.54 28.92 179.23 29.45 179.89 30.18C180.03 30.3 180.09 30.46 180.09 30.63C180.09 31.01 179.67 31.38 178.84 31.72C179.19 32.37 179.42 33.19 179.53 34.2C179.64 35.21 179.7 36.27 179.7 37.39C179.7 39.23 179.59 41.16 179.37 43.18C179.15 45.2 178.86 47.24 178.51 49.3C179.65 48.18 180.75 46.92 181.81 45.5C182.86 44.08 183.87 42.39 184.84 40.41C185.11 39.9 185.35 39.64 185.57 39.64C185.74 39.64 185.83 39.79 185.83 40.09C185.83 40.56 185.62 41.25 185.2 42.15C184.79 43.05 184.29 43.98 183.72 44.92C183.15 45.86 182.58 46.68 182.01 47.37C181.43 48.05 180.83 48.73 180.19 49.39C179.55 50.06 178.88 50.69 178.18 51.29C177.61 54.26 176.95 57.15 176.2 59.99C175.45 62.82 174.7 65.42 173.96 67.78C173.21 70.14 172.54 72.12 171.94 73.73C171.35 75.34 170.92 76.4 170.66 76.92C170.13 77.86 169.6 78.53 169.07 78.91C168.54 79.3 168.04 79.5 167.56 79.5C166.76 79.5 166.17 79.04 165.77 78.14ZM166.83 42.86C167.75 42.17 168.72 41.3 169.73 40.25C170.74 39.2 171.72 38.07 172.67 36.87C173.61 35.67 174.45 34.54 175.18 33.49C175.9 32.44 176.4 31.59 176.66 30.95C175.74 30.95 174.74 31.26 173.66 31.88C172.58 32.5 171.51 33.31 170.46 34.3C169.4 35.28 168.41 36.31 167.49 37.39C166.57 38.46 165.81 39.47 165.21 40.41C164.62 41.36 164.23 42.09 164.06 42.6C163.93 42.9 163.86 43.14 163.86 43.31C163.86 43.7 164.08 43.89 164.52 43.89C165.14 43.89 165.91 43.55 166.83 42.86ZM186.72 55.64C185.95 54.98 185.41 54.11 185.11 53.03C184.93 52.3 184.8 51.32 184.71 50.07C184.62 48.83 184.58 47.43 184.58 45.89C184.58 43.31 184.63 40.54 184.74 37.58C184.85 34.62 184.91 31.96 184.91 29.6C184.91 28.82 184.9 28.09 184.87 27.41C184.85 26.72 184.82 26.12 184.78 25.61C184.69 25.52 184.43 25.44 184.02 25.38C183.6 25.32 183.2 25.25 182.83 25.19C182.46 25.12 182.27 25.09 182.27 25.09C182.27 25 182.61 24.8 183.29 24.48C183.97 24.16 184.95 24 186.23 24C187.55 24 188.42 24.26 188.83 24.8C189.25 25.34 189.46 25.8 189.46 26.18C189.46 26.27 189.46 26.38 189.46 26.51C189.46 26.64 189.44 26.74 189.39 26.83C189 28.59 188.64 30.39 188.31 32.24C187.98 34.08 187.72 36.21 187.55 38.61C187.72 38.48 187.88 38.32 188.01 38.13C188.14 37.93 188.38 37.79 188.73 37.71C189.13 37.62 189.57 37.71 190.05 37.97C190.54 38.22 190.93 38.35 191.24 38.35C192.78 38.31 193.9 37.98 194.61 37.36C195.31 36.73 195.99 36.21 196.65 35.78C196.74 32.3 197.09 29.52 197.71 27.44C198.32 25.36 199.01 24.32 199.75 24.32C200.15 24.32 200.5 24.63 200.81 25.25C201.12 25.87 201.27 26.81 201.27 28.05C201.27 29.04 201.07 30.14 200.68 31.37C200.28 32.59 200.08 34.02 200.08 35.65C200.08 36.72 200.17 37.91 200.35 39.22C200.52 40.53 200.77 41.78 201.07 42.96C201.38 44.14 201.73 45.1 202.13 45.85C202.52 46.61 202.94 46.98 203.38 46.98C203.95 46.98 204.53 46.63 205.1 45.92C205.67 45.21 206.22 44.38 206.75 43.44C207.27 42.5 207.75 41.67 208.17 40.96C208.58 40.25 208.92 39.9 209.19 39.9C209.32 39.9 209.39 40.01 209.39 40.22C209.39 40.39 209.32 40.67 209.19 41.06C208.09 43.46 207.16 45.32 206.42 46.63C205.67 47.94 204.64 48.59 203.32 48.59C202.3 48.59 201.29 48.16 200.28 47.3C199.62 46.7 199.05 45.81 198.57 44.63C198.08 43.45 197.7 42.19 197.41 40.86C197.12 39.53 196.89 38.35 196.72 37.32C196.28 38.01 195.52 38.6 194.44 39.09C193.36 39.59 192.25 39.83 191.11 39.83C190.36 39.83 189.68 39.71 189.06 39.45C188.62 39.23 188.32 39.29 188.14 39.61C187.96 39.93 187.87 40.34 187.84 40.83C187.82 41.33 187.81 41.72 187.81 42.02C187.85 43.14 187.93 44.46 188.04 45.98C188.15 47.51 188.27 49 188.4 50.46C188.54 51.92 188.65 53.16 188.73 54.19C188.82 55.22 188.89 55.78 188.93 55.87C188.98 55.95 189 56.06 189 56.19C189 56.49 188.84 56.64 188.54 56.64C188.1 56.64 187.49 56.31 186.72 55.64Z" stroke="#226CC8" stroke-opacity="1.000000" stroke-width="1.000000"/>
	<path id="path" d="M204.77 50.59C204.5 50.59 204.37 50.5 204.37 50.33C204.37 50.16 204.5 49.92 204.77 49.62C205.87 48.76 206.89 47.63 207.84 46.24C208.78 44.85 209.62 43.4 210.34 41.89C211.07 40.39 211.63 39.06 212.03 37.9C212.42 36.79 212.83 35.6 213.25 34.33C213.66 33.06 214.05 31.85 214.4 30.69C214.75 29.53 215.04 28.63 215.26 27.99C213.98 27.39 212.88 26.52 211.96 25.38C211.04 24.24 210.57 22.97 210.57 21.55C210.57 20.35 210.96 19.29 211.73 18.36C212.5 17.44 213.63 16.91 215.13 16.78C216.27 16.78 217.06 17.16 217.5 17.91C217.94 18.66 218.16 19.62 218.16 20.78C218.16 21.93 218.01 23.12 217.7 24.32C217.39 25.52 217.06 26.46 216.71 27.15L221.72 28.18C222.87 28.44 223.68 28.73 224.17 29.05C224.65 29.37 224.89 29.96 224.89 30.82C224.89 31.25 224.83 31.99 224.69 33.04C224.56 34.09 224.42 35.28 224.26 36.62C224.11 37.95 224.03 39.3 224.03 40.67C224.03 42.22 224.17 43.57 224.43 44.73C224.69 45.89 225.2 46.47 225.95 46.47C226.47 46.47 226.98 46.19 227.46 45.63C227.95 45.07 228.38 44.47 228.75 43.83C229.12 43.18 229.38 42.71 229.51 42.41C230.43 40.74 231.01 39.65 231.23 39.16C231.45 38.66 231.75 38.42 232.15 38.42C232.28 38.42 232.35 38.5 232.35 38.67C232.35 38.85 232.28 39.06 232.15 39.32C231.58 40.74 230.91 42.21 230.14 43.73C229.37 45.25 228.48 46.55 227.46 47.62C226.45 48.7 225.27 49.23 223.9 49.23C223.51 49.23 223.11 49.16 222.71 49.01C222.32 48.86 221.94 48.61 221.59 48.27C220.89 47.62 220.4 46.66 220.14 45.37C219.88 44.08 219.75 42.65 219.75 41.06C219.75 38.95 219.9 36.82 220.21 34.65C220.52 32.48 220.8 30.8 221.07 29.6C220.93 29.47 220.52 29.3 219.81 29.08C219.11 28.87 218.4 28.67 217.7 28.5C217 28.33 216.56 28.24 216.38 28.24C215.98 30.13 215.57 31.98 215.13 33.78C214.69 35.58 213.96 37.62 212.95 39.9C212.16 41.79 211.24 43.55 210.21 45.18C209.18 46.81 208.18 48.12 207.21 49.11C206.24 50.09 205.43 50.59 204.77 50.59ZM215.32 26.89C215.54 26.59 215.79 26.08 216.05 25.35C216.31 24.62 216.53 23.79 216.71 22.87C216.89 21.95 216.97 21.08 216.97 20.26C216.97 19.53 216.86 18.91 216.64 18.39C216.42 17.88 216.05 17.62 215.52 17.62C215.26 17.62 215.06 17.64 214.93 17.69C214.09 17.94 213.51 18.38 213.18 19C212.85 19.63 212.69 20.33 212.69 21.1C212.69 22.26 212.97 23.42 213.54 24.57C214.11 25.73 214.71 26.51 215.32 26.89ZM228.92 50.59C228.65 50.59 228.52 50.5 228.52 50.33C228.52 50.16 228.65 49.92 228.92 49.62C230.02 48.76 231.04 47.63 231.98 46.24C232.93 44.85 233.77 43.4 234.49 41.89C235.22 40.39 235.78 39.06 236.17 37.9C236.57 36.79 236.98 35.6 237.39 34.33C237.81 33.06 238.2 31.85 238.55 30.69C238.9 29.53 239.19 28.63 239.41 27.99C238.13 27.39 237.03 26.52 236.11 25.38C235.18 24.24 234.72 22.97 234.72 21.55C234.72 20.35 235.11 19.29 235.88 18.36C236.65 17.44 237.78 16.91 239.27 16.78C240.42 16.78 241.21 17.16 241.65 17.91C242.09 18.66 242.31 19.62 242.31 20.78C242.31 21.93 242.16 23.12 241.85 24.32C241.54 25.52 241.21 26.46 240.86 27.15L245.87 28.18C247.02 28.44 247.83 28.73 248.31 29.05C248.8 29.37 249.04 29.96 249.04 30.82C249.04 31.25 248.97 31.99 248.84 33.04C248.71 34.09 248.57 35.28 248.41 36.62C248.26 37.95 248.18 39.3 248.18 40.67C248.18 42.22 248.31 43.57 248.58 44.73C248.84 45.89 249.35 46.47 250.1 46.47C250.62 46.47 251.13 46.19 251.61 45.63C252.1 45.07 252.53 44.47 252.9 43.83C253.27 43.18 253.53 42.71 253.66 42.41C254.58 40.74 255.15 39.65 255.37 39.16C255.59 38.66 255.9 38.42 256.3 38.42C256.43 38.42 256.5 38.5 256.5 38.67C256.5 38.85 256.43 39.06 256.3 39.32C255.73 40.74 255.05 42.21 254.29 43.73C253.52 45.25 252.63 46.55 251.61 47.62C250.6 48.7 249.41 49.23 248.05 49.23C247.65 49.23 247.26 49.16 246.86 49.01C246.47 48.86 246.09 48.61 245.74 48.27C245.04 47.62 244.55 46.66 244.29 45.37C244.03 44.08 243.89 42.65 243.89 41.06C243.89 38.95 244.05 36.82 244.36 34.65C244.66 32.48 244.95 30.8 245.21 29.6C245.08 29.47 244.66 29.3 243.96 29.08C243.26 28.87 242.55 28.67 241.85 28.5C241.14 28.33 240.7 28.24 240.53 28.24C240.13 30.13 239.71 31.98 239.27 33.78C238.84 35.58 238.11 37.62 237.1 39.9C236.31 41.79 235.39 43.55 234.36 45.18C233.33 46.81 232.33 48.12 231.36 49.11C230.39 50.09 229.58 50.59 228.92 50.59ZM239.47 26.89C239.69 26.59 239.94 26.08 240.2 25.35C240.46 24.62 240.68 23.79 240.86 22.87C241.03 21.95 241.12 21.08 241.12 20.26C241.12 19.53 241.01 18.91 240.79 18.39C240.57 17.88 240.2 17.62 239.67 17.62C239.41 17.62 239.21 17.64 239.08 17.69C238.24 17.94 237.66 18.38 237.33 19C237 19.63 236.83 20.33 236.83 21.1C236.83 22.26 237.12 23.42 237.69 24.57C238.26 25.73 238.86 26.51 239.47 26.89Z" fill="#226CC8" fill-opacity="1.000000" fill-rule="nonzero"/>
	<path id="path" d="M204.37 50.33C204.37 50.16 204.5 49.92 204.77 49.62C205.87 48.76 206.89 47.63 207.84 46.24C208.78 44.85 209.62 43.4 210.34 41.89C211.07 40.39 211.63 39.06 212.03 37.9C212.42 36.79 212.83 35.6 213.25 34.33C213.66 33.06 214.05 31.85 214.4 30.69C214.75 29.53 215.04 28.63 215.26 27.99C213.98 27.39 212.88 26.52 211.96 25.38C211.04 24.24 210.57 22.97 210.57 21.55C210.57 20.35 210.96 19.29 211.73 18.36C212.5 17.44 213.63 16.91 215.13 16.78C216.27 16.78 217.06 17.16 217.5 17.91C217.94 18.66 218.16 19.62 218.16 20.78C218.16 21.93 218.01 23.12 217.7 24.32C217.39 25.52 217.06 26.46 216.71 27.15L221.72 28.18C222.87 28.44 223.68 28.73 224.17 29.05C224.65 29.37 224.89 29.96 224.89 30.82C224.89 31.25 224.83 31.99 224.69 33.04C224.56 34.09 224.42 35.28 224.26 36.62C224.11 37.95 224.03 39.3 224.03 40.67C224.03 42.22 224.17 43.57 224.43 44.73C224.69 45.89 225.2 46.47 225.95 46.47C226.47 46.47 226.98 46.19 227.46 45.63C227.95 45.07 228.38 44.47 228.75 43.83C229.12 43.18 229.38 42.71 229.51 42.41C230.43 40.74 231.01 39.65 231.23 39.16C231.45 38.66 231.75 38.42 232.15 38.42C232.28 38.42 232.35 38.5 232.35 38.67C232.35 38.85 232.28 39.06 232.15 39.32C231.58 40.74 230.91 42.21 230.14 43.73C229.37 45.25 228.48 46.55 227.46 47.62C226.45 48.7 225.27 49.23 223.9 49.23C223.51 49.23 223.11 49.16 222.71 49.01C222.32 48.86 221.94 48.61 221.59 48.27C220.89 47.62 220.4 46.66 220.14 45.37C219.88 44.08 219.75 42.65 219.75 41.06C219.75 38.95 219.9 36.82 220.21 34.65C220.52 32.48 220.8 30.8 221.07 29.6C220.93 29.47 220.52 29.3 219.81 29.08C219.11 28.87 218.4 28.67 217.7 28.5C217 28.33 216.56 28.24 216.38 28.24C215.98 30.13 215.57 31.98 215.13 33.78C214.69 35.58 213.96 37.62 212.95 39.9C212.16 41.79 211.24 43.55 210.21 45.18C209.18 46.81 208.18 48.12 207.21 49.11C206.24 50.09 205.43 50.59 204.77 50.59C204.5 50.59 204.37 50.5 204.37 50.33ZM216.05 25.35C216.31 24.62 216.53 23.79 216.71 22.87C216.89 21.95 216.97 21.08 216.97 20.26C216.97 19.53 216.86 18.91 216.64 18.39C216.42 17.88 216.05 17.62 215.52 17.62C215.26 17.62 215.06 17.64 214.93 17.69C214.09 17.94 213.51 18.38 213.18 19C212.85 19.63 212.69 20.33 212.69 21.1C212.69 22.26 212.97 23.42 213.54 24.57C214.11 25.73 214.71 26.51 215.32 26.89C215.54 26.59 215.79 26.08 216.05 25.35ZM228.52 50.33C228.52 50.16 228.65 49.92 228.92 49.62C230.02 48.76 231.04 47.63 231.98 46.24C232.93 44.85 233.77 43.4 234.49 41.89C235.22 40.39 235.78 39.06 236.17 37.9C236.57 36.79 236.98 35.6 237.39 34.33C237.81 33.06 238.2 31.85 238.55 30.69C238.9 29.53 239.19 28.63 239.41 27.99C238.13 27.39 237.03 26.52 236.11 25.38C235.18 24.24 234.72 22.97 234.72 21.55C234.72 20.35 235.11 19.29 235.88 18.36C236.65 17.44 237.78 16.91 239.27 16.78C240.42 16.78 241.21 17.16 241.65 17.91C242.09 18.66 242.31 19.62 242.31 20.78C242.31 21.93 242.16 23.12 241.85 24.32C241.54 25.52 241.21 26.46 240.86 27.15L245.87 28.18C247.02 28.44 247.83 28.73 248.31 29.05C248.8 29.37 249.04 29.96 249.04 30.82C249.04 31.25 248.97 31.99 248.84 33.04C248.71 34.09 248.57 35.28 248.41 36.62C248.26 37.95 248.18 39.3 248.18 40.67C248.18 42.22 248.31 43.57 248.58 44.73C248.84 45.89 249.35 46.47 250.1 46.47C250.62 46.47 251.13 46.19 251.61 45.63C252.1 45.07 252.53 44.47 252.9 43.83C253.27 43.18 253.53 42.71 253.66 42.41C254.58 40.74 255.15 39.65 255.37 39.16C255.59 38.66 255.9 38.42 256.3 38.42C256.43 38.42 256.5 38.5 256.5 38.67C256.5 38.85 256.43 39.06 256.3 39.32C255.73 40.74 255.05 42.21 254.29 43.73C253.52 45.25 252.63 46.55 251.61 47.62C250.6 48.7 249.41 49.23 248.05 49.23C247.65 49.23 247.26 49.16 246.86 49.01C246.47 48.86 246.09 48.61 245.74 48.27C245.04 47.62 244.55 46.66 244.29 45.37C244.03 44.08 243.89 42.65 243.89 41.06C243.89 38.95 244.05 36.82 244.36 34.65C244.66 32.48 244.95 30.8 245.21 29.6C245.08 29.47 244.66 29.3 243.96 29.08C243.26 28.87 242.55 28.67 241.85 28.5C241.14 28.33 240.7 28.24 240.53 28.24C240.13 30.13 239.71 31.98 239.27 33.78C238.84 35.58 238.11 37.62 237.1 39.9C236.31 41.79 235.39 43.55 234.36 45.18C233.33 46.81 232.33 48.12 231.36 49.11C230.39 50.09 229.58 50.59 228.92 50.59C228.65 50.59 228.52 50.5 228.52 50.33ZM240.2 25.35C240.46 24.62 240.68 23.79 240.86 22.87C241.03 21.95 241.12 21.08 241.12 20.26C241.12 19.53 241.01 18.91 240.79 18.39C240.57 17.88 240.2 17.62 239.67 17.62C239.41 17.62 239.21 17.64 239.08 17.69C238.24 17.94 237.66 18.38 237.33 19C237 19.63 236.83 20.33 236.83 21.1C236.83 22.26 237.12 23.42 237.69 24.57C238.26 25.73 238.86 26.51 239.47 26.89C239.69 26.59 239.94 26.08 240.2 25.35Z" stroke="#226CC8" stroke-opacity="1.000000" stroke-width="1.000000"/>
	<path id="path" d="M37.98 72.18C37.98 72.81 37.2 73.13 35.63 73.13C35.63 77.16 35.56 79.98 35.42 81.59C35.32 82.75 35.36 84.83 35.54 87.82L35.6 88.4C35.62 88.28 35.63 87.88 35.63 87.21L35.63 98.36C36.48 98.36 37.12 98.57 37.56 98.97C37.34 99.4 37.1 99.72 36.85 99.92C36.6 100.13 36.36 100.24 36.13 100.27C35.9 100.31 35.51 100.32 34.97 100.32C34.61 100.12 34.13 100 33.54 99.97C32.95 99.94 32.27 99.96 31.5 100.03C30.73 100.1 30.24 100.14 30.04 100.14C29.96 100.14 29.89 100.13 29.83 100.11C29.77 100.09 29.72 100.06 29.68 100.05C29.64 100.02 29.61 99.99 29.59 99.94C29.57 99.89 29.55 99.85 29.53 99.82C29.51 99.79 29.5 99.73 29.5 99.65C29.5 99.57 29.5 99.5 29.5 99.45C29.5 99.4 29.5 99.32 29.5 99.22C29.5 99.12 29.5 99.04 29.5 98.97C29.5 98.77 29.71 98.57 30.14 98.36C30.57 98.16 30.79 97.95 30.79 97.72C31.19 96.83 31.39 95.5 31.39 93.75C31.39 88.54 31.37 85.51 31.33 84.68C30.65 84.37 30.09 84.27 29.65 84.37C29.21 84.47 28.66 84.78 28.02 85.29C27.2 85.94 26.79 87.38 26.79 89.63L26.79 93.96C26.79 94.25 26.75 94.64 26.67 95.14C26.59 95.64 26.55 96.09 26.55 96.5C26.55 96.91 26.63 97.29 26.79 97.66L28.02 98.91C28.26 99.3 28.18 99.71 27.78 100.14C27.44 100.14 26.54 100.12 25.09 100.09C23.64 100.06 22.58 100.05 21.92 100.05C21.64 99.64 21.5 99.24 21.5 98.85C21.5 98.63 21.73 98.32 22.19 97.94C22.65 97.55 22.88 97.25 22.88 97.05C23.02 96.91 23.12 96.68 23.18 96.36C23.24 96.05 23.27 95.75 23.25 95.46C23.24 95.18 23.23 94.8 23.21 94.35C23.19 93.89 23.18 93.56 23.18 93.35C23.2 93.07 23.25 92.47 23.33 91.57C23.41 90.66 23.48 90.01 23.53 89.61C23.58 89.21 23.66 88.67 23.78 87.98C23.9 87.28 24.06 86.68 24.26 86.16C24.46 85.64 24.71 85.14 25.01 84.68C25.26 84.43 25.64 84.11 26.16 83.7C25.42 82.9 24.91 82.31 24.64 81.93C24.37 81.54 24.04 80.87 23.66 79.91C23.12 78.5 23.12 76.65 23.66 74.35C23.94 73.15 24.65 72.15 25.78 71.37C26.91 70.58 28.19 70.08 29.6 69.86C31.02 69.63 32.4 69.63 33.74 69.86C33.94 69.86 34.17 69.92 34.45 70.04C34.72 70.16 34.96 70.22 35.18 70.22C36.29 70.22 37.03 70.33 37.41 70.53C37.79 70.73 37.98 71.28 37.98 72.18ZM29.53 82.29C29.75 82.29 30.08 82.29 30.52 82.28C30.96 82.27 31.28 82.25 31.48 82.23L31.72 80.86C31.9 77.37 31.99 74.38 31.99 71.87C30.19 71.87 29.14 71.95 28.84 72.09C28.37 72.39 27.99 72.84 27.69 73.42C27.39 74 27.24 74.53 27.24 75.02C27.24 75.16 27.21 75.59 27.15 76.3C27.09 77.02 27.12 77.58 27.24 77.98C27.32 78.6 27.59 79.38 28.04 80.34C28.49 81.29 28.99 81.95 29.53 82.29ZM46.19 97.94C47.22 97.94 47.92 98.09 48.31 98.41C48.7 98.73 48.63 99.21 48.09 99.86C47.35 99.86 46.46 99.91 45.43 100C44.39 100.09 43.5 100.14 42.75 100.14C42 100.14 41.25 100.05 40.51 99.86C40.07 99.45 39.85 99.03 39.85 98.58C40.17 98.25 40.41 98.06 40.57 98.01C40.73 97.96 41.12 97.94 41.74 97.94C41.94 97.75 42.06 97.49 42.1 97.16C42.14 96.82 42.13 96.39 42.07 95.86C42.01 95.33 41.98 94.99 41.98 94.85C41.96 93.32 41.98 91.42 42.04 89.14C42.1 86.86 42.13 85.27 42.13 84.37C42.13 84.13 42.14 83.7 42.16 83.09C42.18 82.48 42.19 81.87 42.19 81.27C42.19 80.67 42.17 80.06 42.13 79.45C42.07 79.31 42.06 78.65 42.09 77.48C42.12 76.31 42.13 75.35 42.13 74.59C42.13 74.47 42.14 74.29 42.15 74.06C42.16 73.82 42.16 73.65 42.16 73.54C42.16 73.43 42.15 73.29 42.12 73.14C42.09 72.99 42.04 72.87 41.98 72.78C41.92 72.68 41.83 72.62 41.71 72.58C41.51 72.5 41.22 72.44 40.84 72.41C40.46 72.38 40.15 72.25 39.91 72.03C39.73 71.92 39.59 71.83 39.5 71.74C39.41 71.64 39.36 71.55 39.35 71.46C39.34 71.37 39.34 71.28 39.35 71.2C39.36 71.12 39.41 71.02 39.5 70.91C39.59 70.8 39.66 70.71 39.73 70.65C39.79 70.59 39.89 70.5 40.03 70.38C40.17 70.25 40.27 70.17 40.33 70.13C40.91 70.03 41.49 69.95 42.09 69.89C42.68 69.83 43.3 69.79 43.97 69.77C44.63 69.75 45.18 69.73 45.62 69.72C46.06 69.71 46.7 69.71 47.53 69.72C48.36 69.73 48.96 69.74 49.32 69.74C49.42 69.74 49.6 69.71 49.85 69.67C50.1 69.63 50.35 69.65 50.61 69.74C51.78 69.92 52.82 70.71 53.74 72.1C54.67 73.5 55.3 75.06 55.64 76.79C55.64 79.34 55.43 81.05 55.01 81.93C54.87 82.37 54.64 82.83 54.31 83.29C53.99 83.74 53.69 84.11 53.41 84.39C53.13 84.66 52.74 85.02 52.24 85.46C51.74 85.89 51.4 86.2 51.22 86.39C50.64 86.69 50.04 86.88 49.44 86.95C48.84 87.02 47.97 87.06 46.82 87.06C46.78 87.06 46.73 87.06 46.66 87.07C46.59 87.08 46.49 87.15 46.37 87.26C46.25 87.37 46.19 87.52 46.19 87.7L46.19 90.24C46.19 90.81 46.14 91.62 46.04 92.66C45.94 93.71 45.89 94.67 45.89 95.52C45.89 96.38 45.99 97.18 46.19 97.94ZM46.19 81.28L46.19 84.46C46.49 84.79 46.91 84.98 47.44 85.04C47.97 85.1 48.37 85.04 48.63 84.86C49.23 84.47 49.77 83.95 50.25 83.29C50.73 82.62 51.06 81.96 51.22 81.28C51.26 81.14 51.31 80.94 51.37 80.69C51.43 80.43 51.47 80.28 51.49 80.21C51.51 80.15 51.53 80.03 51.56 79.85C51.59 79.66 51.61 79.53 51.62 79.44C51.63 79.34 51.64 79.2 51.65 78.99C51.66 78.79 51.67 78.58 51.67 78.37C51.67 78.15 51.67 77.88 51.67 77.56C51.67 75.54 51.32 73.8 50.61 72.33C50.43 72.33 50.08 72.22 49.56 72C49.04 71.77 48.55 71.66 48.09 71.66L46.19 71.66C45.99 72.62 45.89 73.63 45.89 74.7C45.89 75.77 45.94 76.96 46.04 78.26C46.14 79.56 46.19 80.57 46.19 81.28ZM70.29 86.17C70.63 85.07 71.04 83.17 71.52 80.46C71.62 79.91 71.8 79.17 72.05 78.24C72.3 77.32 72.49 76.55 72.63 75.94C72.67 75.73 72.77 75.36 72.94 74.81C73.1 74.26 73.21 73.79 73.28 73.42C73.35 73.04 73.39 72.66 73.39 72.27C73.39 71.66 73.65 71.09 74.17 70.58C74.69 70.06 75.26 69.8 75.88 69.8L79.58 69.8C79.76 69.8 79.91 69.85 80.02 69.95C80.13 70.05 80.26 70.22 80.4 70.45C80.54 70.69 80.69 70.89 80.85 71.05C80.65 71.25 80.48 71.41 80.35 71.51C80.22 71.61 80.05 71.71 79.84 71.81C79.63 71.91 79.4 71.96 79.16 71.93C78.92 71.91 78.65 71.83 78.35 71.69C78.17 72.24 78.08 72.78 78.08 73.31C78.08 73.84 78.12 74.43 78.22 75.08C78.31 75.73 78.35 76.27 78.35 76.7L78.35 79.24L78.35 82.38L78.35 87.43C78.35 87.87 78.34 88.4 78.32 89C78.3 89.6 78.29 90.12 78.29 90.56C78.29 91 78.31 91.42 78.35 91.83C78.43 92.6 78.47 93.35 78.47 94.09C78.47 94.82 78.45 95.58 78.41 96.36C78.37 97.15 78.35 97.73 78.35 98.12C79.33 98.12 80.09 98.44 80.61 99.07C81.05 99.62 81 100.05 80.46 100.35C80.24 100.35 80.02 100.32 79.79 100.26C79.57 100.2 79.35 100.17 79.13 100.17C78.93 100.17 78.71 100.2 78.47 100.27C78.23 100.35 78 100.38 77.78 100.38L76.7 100.17C76.8 100.11 76.79 100.09 76.67 100.11C75.48 100.27 74.8 100.35 74.62 100.35C74.62 100.13 74.52 99.96 74.32 99.86C74.12 99.76 74.02 99.61 74.02 99.4C74.02 99.22 74.12 99.07 74.33 98.94C74.55 98.82 74.82 98.7 75.15 98.56C75.48 98.43 75.72 98.28 75.88 98.12C75.74 97.08 75.64 95.91 75.57 94.61C75.5 93.3 75.46 92.26 75.46 91.47C75.46 90.69 75.48 89.37 75.52 87.5C75.56 85.64 75.58 84.42 75.58 83.85C75.58 83.57 75.63 82.94 75.73 81.97C75.83 81 75.88 80.31 75.88 79.88L75.88 77.34C75.94 77.1 75.86 76.7 75.64 76.15C75.64 76.07 75.65 75.97 75.66 75.86C75.67 75.75 75.68 75.66 75.69 75.6C75.7 75.54 75.69 75.47 75.67 75.39C75.65 75.31 75.61 75.22 75.54 75.13C75.47 75.04 75.37 74.93 75.25 74.81C75.35 75.28 75.32 75.7 75.16 76.09C74.96 76.58 74.77 77.18 74.59 77.89C74.41 78.61 74.2 79.5 73.96 80.58C73.72 81.66 73.53 82.47 73.39 83C73.11 83.85 72.93 84.49 72.85 84.92C72.28 87.87 71.92 89.74 71.76 90.51C71.7 90.78 71.64 91.27 71.57 91.98C71.5 92.69 71.41 93.27 71.31 93.7C71.21 94.14 71.07 94.36 70.89 94.36C70.69 94.36 70.38 94.25 69.97 94.04C69.56 93.83 69.27 93.72 69.08 93.72C69.08 93.43 69.07 93.14 69.02 92.83C68.98 92.53 68.94 92.29 68.9 92.13C68.86 91.97 68.79 91.7 68.68 91.32C68.57 90.94 68.49 90.7 68.45 90.57C67.45 86.97 66.94 85.12 66.92 85.04C66.46 83.54 66.04 82.27 65.66 81.25C65.64 81.17 65.58 80.97 65.48 80.66C65.37 80.34 65.26 80.07 65.14 79.85C65.02 79.62 64.87 79.42 64.69 79.24L64.69 83.64C64.69 84.08 64.59 84.98 64.39 86.31C64.19 87.64 64.09 88.64 64.09 89.29L64.09 92.47L64.09 98.12C64.35 98.12 64.55 98.12 64.69 98.13C64.83 98.15 64.97 98.2 65.11 98.3C65.25 98.41 65.32 98.56 65.32 98.76C65.32 99.13 65.18 99.41 64.89 99.62C64.6 99.82 64.2 99.95 63.69 100.01C63.17 100.08 62.7 100.11 62.27 100.12C61.84 100.13 61.34 100.12 60.78 100.08C60.22 100.03 59.88 100.01 59.76 100.01C59.58 100.01 59.43 99.96 59.32 99.86C59.21 99.76 59.09 99.59 58.95 99.36C58.81 99.12 58.66 98.92 58.5 98.76C58.58 98.68 58.7 98.53 58.86 98.32C59.02 98.1 59.14 97.98 59.22 97.94C59.3 97.9 59.44 97.87 59.64 97.87C59.84 97.87 60.09 97.96 60.39 98.12L60.39 91.83L60.39 83.64L60.39 82.38L60.39 76.09L60.39 71.69C60.17 71.69 59.98 71.73 59.8 71.8C59.63 71.87 59.46 71.9 59.28 71.9C59.1 71.9 58.87 71.87 58.6 71.8C58.33 71.73 58.1 71.69 57.89 71.69C57.57 71.36 57.39 71.12 57.34 70.97C57.29 70.82 57.26 70.43 57.26 69.8C58.85 69.25 61.12 69.45 64.09 70.41C64.35 70.98 64.97 72.23 65.96 74.16L65.96 74.81C66.24 75.4 66.53 76.09 66.84 76.88C67.15 77.68 67.4 78.34 67.57 78.87C67.74 79.4 67.98 80.17 68.3 81.18C68.62 82.19 68.83 82.85 68.93 83.18C69.05 83.52 69.17 83.84 69.28 84.11C69.39 84.39 69.48 84.59 69.55 84.74C69.62 84.88 69.74 85.1 69.9 85.41C70.06 85.71 70.19 85.97 70.29 86.17ZM93.9 97.78C93.9 92.18 93.68 88.3 93.24 86.14C92.9 86.14 92.15 86.04 91 85.82C89.85 85.61 88.93 85.5 88.25 85.5C87.81 85.93 87.59 87.03 87.59 88.8C87.12 90.51 86.89 93.52 86.89 97.81C87.13 98 87.46 98.09 87.89 98.09C88.31 98.09 88.62 98.19 88.82 98.39L88.73 99.68C88.17 100.06 87.54 100.27 86.83 100.29C86.13 100.31 85.52 100.26 85 100.15C84.48 100.04 83.87 100.11 83.16 100.35L81.84 99.07C82.58 98.23 83.21 97.81 83.73 97.81C83.94 97.81 84.09 97.74 84.2 97.6C84.31 97.46 84.37 97.32 84.38 97.17C84.39 97.03 84.4 96.81 84.4 96.5C84.62 95.05 84.94 92.62 85.37 89.21C85.81 85.8 86.1 83.49 86.26 82.29C86.26 80.54 86.7 78.83 87.59 77.16C88.07 75.27 89.11 73.12 90.71 70.71C90.75 70.67 90.8 70.62 90.86 70.56C90.92 70.5 91.05 70.4 91.26 70.27C91.46 70.14 91.65 70.04 91.84 69.96C92.03 69.89 92.26 69.86 92.52 69.86C92.78 69.86 93.02 69.92 93.24 70.04C93.88 70.37 94.48 71.03 95.05 72.03C95.61 73.02 95.89 73.87 95.89 74.56C96.37 75.56 96.69 76.71 96.85 78.02C97.07 79.89 97.33 82.72 97.63 86.51C97.93 90.3 98.16 92.98 98.32 94.54L98.32 98.46C98.32 98.58 98.42 98.77 98.63 99.04C98.83 99.3 98.93 99.54 98.93 99.77C98.93 99.99 98.73 100.2 98.32 100.38L97.54 100.2C97.12 100.2 96.52 100.23 95.74 100.29C94.96 100.35 94.34 100.38 93.9 100.38C93.82 100.38 93.68 100.4 93.48 100.43C93.28 100.46 93.13 100.48 93.02 100.49C92.9 100.5 92.78 100.5 92.64 100.49C92.5 100.48 92.39 100.44 92.32 100.38C92.25 100.32 92.22 100.24 92.22 100.14C92.22 99.77 92.42 99.29 92.82 98.68C93.22 98.08 93.58 97.78 93.9 97.78ZM90.71 73.89C89.83 76.7 89.2 78.86 88.82 80.37C88.82 80.55 88.72 81.08 88.53 81.94C88.34 82.81 88.25 83.37 88.25 83.64C89.49 84.02 91.16 84.22 93.24 84.22L93.24 80.37C93.24 78.35 92.84 76.19 92.04 73.89C92.04 73.85 92.03 73.79 92.02 73.72C92.01 73.65 91.95 73.55 91.84 73.43C91.73 73.31 91.58 73.25 91.38 73.25L90.71 73.89ZM107.68 97.94C108.7 97.94 109.41 98.09 109.8 98.41C110.19 98.73 110.12 99.21 109.58 99.86C108.83 99.86 107.95 99.91 106.91 100C105.88 100.09 104.99 100.14 104.24 100.14C103.48 100.14 102.74 100.05 102 99.86C101.55 99.45 101.33 99.03 101.33 98.58C101.65 98.25 101.89 98.06 102.06 98.01C102.22 97.96 102.61 97.94 103.23 97.94C103.43 97.75 103.55 97.49 103.59 97.16C103.63 96.82 103.62 96.39 103.56 95.86C103.5 95.33 103.47 94.99 103.47 94.85C103.45 93.32 103.47 91.42 103.53 89.14C103.59 86.86 103.62 85.27 103.62 84.37C103.62 84.13 103.63 83.7 103.65 83.09C103.67 82.48 103.68 81.87 103.68 81.27C103.68 80.67 103.66 80.06 103.62 79.45C103.56 79.31 103.54 78.65 103.57 77.48C103.6 76.31 103.62 75.35 103.62 74.59C103.62 74.47 103.62 74.29 103.63 74.06C103.64 73.82 103.65 73.65 103.65 73.54C103.65 73.43 103.63 73.29 103.6 73.14C103.57 72.99 103.53 72.87 103.47 72.78C103.41 72.68 103.32 72.62 103.2 72.58C103 72.5 102.71 72.44 102.33 72.41C101.95 72.38 101.63 72.25 101.39 72.03C101.21 71.92 101.08 71.83 100.99 71.74C100.9 71.64 100.85 71.55 100.84 71.46C100.83 71.37 100.83 71.28 100.84 71.2C100.85 71.12 100.9 71.02 100.99 70.91C101.08 70.8 101.15 70.71 101.21 70.65C101.27 70.59 101.37 70.5 101.51 70.38C101.65 70.25 101.75 70.17 101.81 70.13C102.4 70.03 102.98 69.95 103.57 69.89C104.17 69.83 104.79 69.79 105.45 69.77C106.12 69.75 106.67 69.73 107.11 69.72C107.55 69.71 108.19 69.71 109.02 69.72C109.85 69.73 110.45 69.74 110.81 69.74C110.91 69.74 111.08 69.71 111.34 69.67C111.59 69.63 111.84 69.65 112.1 69.74C113.27 69.92 114.31 70.71 115.23 72.1C116.15 73.5 116.79 75.06 117.13 76.79C117.13 79.34 116.92 81.05 116.49 81.93C116.35 82.37 116.12 82.83 115.8 83.29C115.48 83.74 115.18 84.11 114.9 84.39C114.62 84.66 114.23 85.02 113.73 85.46C113.23 85.89 112.88 86.2 112.7 86.39C112.12 86.69 111.53 86.88 110.93 86.95C110.33 87.02 109.46 87.06 108.31 87.06C108.27 87.06 108.22 87.06 108.15 87.07C108.08 87.08 107.98 87.15 107.86 87.26C107.74 87.37 107.68 87.52 107.68 87.7L107.68 90.24C107.68 90.81 107.63 91.62 107.53 92.66C107.43 93.71 107.38 94.67 107.38 95.52C107.38 96.38 107.48 97.18 107.68 97.94ZM107.68 81.28L107.68 84.46C107.98 84.79 108.4 84.98 108.93 85.04C109.46 85.1 109.86 85.04 110.12 84.86C110.72 84.47 111.26 83.95 111.74 83.29C112.22 82.62 112.54 81.96 112.7 81.28C112.74 81.14 112.79 80.94 112.85 80.69C112.92 80.43 112.96 80.28 112.98 80.21C113 80.15 113.02 80.03 113.05 79.85C113.08 79.66 113.1 79.53 113.11 79.44C113.12 79.34 113.13 79.2 113.14 78.99C113.15 78.79 113.16 78.58 113.16 78.37C113.16 78.15 113.16 77.88 113.16 77.56C113.16 75.54 112.8 73.8 112.1 72.33C111.92 72.33 111.57 72.22 111.05 72C110.53 71.77 110.04 71.66 109.58 71.66L107.68 71.66C107.48 72.62 107.38 73.63 107.38 74.7C107.38 75.77 107.43 76.96 107.53 78.26C107.63 79.56 107.68 80.57 107.68 81.28ZM131.6 72.33C131.6 73.88 131.19 75.94 130.39 78.5C130.17 78.97 129.85 79.64 129.42 80.5C128.98 81.37 128.7 81.94 128.56 82.2C128.56 82.53 128.58 82.71 128.63 82.77C128.68 82.82 128.86 82.84 129.16 82.84C129.38 83.05 129.79 83.35 130.38 83.76C130.97 84.17 131.38 84.47 131.6 84.68C132.16 85.43 132.58 86.28 132.86 87.23C133.14 88.17 133.39 89.44 133.6 91.02C133.81 92.59 133.95 93.58 134.03 93.96C134.03 94.25 133.99 94.63 133.9 95.11C133.81 95.59 133.76 95.99 133.76 96.3C133.76 96.62 133.85 96.87 134.03 97.05C134.03 97.25 134.26 97.55 134.72 97.94C135.19 98.32 135.42 98.63 135.42 98.85C135.42 99.02 135.38 99.2 135.31 99.4C135.24 99.61 135.17 99.76 135.12 99.86L135 100.05C134.33 100.05 133.32 100.06 131.96 100.09C130.59 100.12 129.74 100.14 129.4 100.14C129.22 99.95 129.11 99.76 129.07 99.56C129.03 99.35 129.04 99.19 129.1 99.07L129.16 98.91L130.39 97.66C130.55 97.29 130.63 96.91 130.63 96.5C130.63 96.09 130.59 95.64 130.51 95.14C130.43 94.64 130.39 94.25 130.39 93.96L130.39 90.24L130.39 89.63C130.39 88.61 130.23 87.6 129.91 86.6C129.59 85.6 129.14 84.96 128.56 84.68C127.33 84.07 126.11 84.07 124.89 84.68C124.61 84.96 124.41 85.42 124.29 86.07C124.17 86.71 124.11 87.31 124.12 87.88C124.13 88.45 124.16 89.19 124.21 90.1C124.26 91.01 124.29 91.66 124.29 92.07C124.29 92.48 124.18 93 123.97 93.64C123.76 94.29 123.65 94.81 123.65 95.22L123.65 97.66C124.32 97.99 124.73 98.39 124.9 98.88C125.07 99.37 124.87 99.79 124.29 100.14C123.68 99.91 122.88 99.91 121.86 100.12C120.85 100.34 120.04 100.34 119.44 100.14C119.12 99.81 118.94 99.6 118.89 99.5C118.84 99.39 118.81 99.2 118.81 98.91C118.97 98.75 119.16 98.6 119.38 98.46C119.6 98.31 119.76 98.19 119.86 98.09C119.96 97.99 120.01 97.84 120.01 97.66L120.01 94.58L120.01 89.63C120.05 89.61 120.07 89.38 120.07 88.95L120.01 88.37C120.01 88.23 120.12 87.8 120.33 87.07C120.54 86.35 120.65 85.76 120.65 85.29C120.65 79.95 120.44 76.24 120.01 74.16L120.01 72.33C119.75 72.33 119.56 72.33 119.43 72.32C119.3 72.31 119.16 72.25 119.02 72.15C118.88 72.05 118.81 71.89 118.81 71.69C118.53 71.67 118.39 71.43 118.4 70.96C118.42 70.49 118.53 70.14 118.75 69.92C118.87 69.8 119.03 69.73 119.23 69.72C119.43 69.71 119.72 69.73 120.1 69.78C120.49 69.83 120.83 69.86 121.13 69.86C121.27 69.86 121.57 69.84 122.03 69.81C122.49 69.78 122.89 69.77 123.22 69.77C123.55 69.77 123.91 69.8 124.3 69.86C124.69 69.92 124.99 70.05 125.2 70.25C125.41 70.46 125.52 70.73 125.52 71.08C125.52 71.26 125.46 71.41 125.35 71.51C125.24 71.61 125.08 71.73 124.86 71.87C124.64 72.02 124.45 72.17 124.29 72.33C124.29 73.15 124.39 74.28 124.59 75.72C124.79 77.17 124.89 78.3 124.89 79.12C124.89 79.24 124.84 79.48 124.75 79.85C124.66 80.21 124.62 80.55 124.62 80.86C124.62 81.16 124.71 81.41 124.89 81.59C126.95 81.06 128.38 79.21 129.16 76.03C129.16 75.62 129.26 75.01 129.48 74.2C129.69 73.38 129.79 72.76 129.79 72.33L128.56 72.33C128.56 72.11 128.45 71.89 128.24 71.69C128.03 71.49 127.93 71.28 127.93 71.08C128.17 70.61 128.77 70.32 129.75 70.21C130.72 70.1 131.34 69.98 131.6 69.86C132.16 70.04 132.51 70.34 132.66 70.74C132.81 71.15 132.77 71.52 132.54 71.84C132.31 72.17 132 72.33 131.6 72.33ZM148.47 97.78C148.47 92.18 148.25 88.3 147.81 86.14C147.47 86.14 146.72 86.04 145.57 85.82C144.42 85.61 143.5 85.5 142.82 85.5C142.38 85.93 142.15 87.03 142.15 88.8C141.69 90.51 141.46 93.52 141.46 97.81C141.7 98 142.03 98.09 142.46 98.09C142.88 98.09 143.19 98.19 143.39 98.39L143.3 99.68C142.74 100.06 142.1 100.27 141.4 100.29C140.7 100.31 140.09 100.26 139.57 100.15C139.05 100.04 138.43 100.11 137.73 100.35L136.41 99.07C137.15 98.23 137.78 97.81 138.3 97.81C138.5 97.81 138.66 97.74 138.77 97.6C138.88 97.46 138.94 97.32 138.95 97.17C138.96 97.03 138.97 96.81 138.97 96.5C139.19 95.05 139.51 92.62 139.94 89.21C140.37 85.8 140.67 83.49 140.83 82.29C140.83 80.54 141.27 78.83 142.15 77.16C142.64 75.27 143.68 73.12 145.28 70.71C145.32 70.67 145.37 70.62 145.43 70.56C145.49 70.5 145.62 70.4 145.82 70.27C146.03 70.14 146.22 70.04 146.41 69.96C146.6 69.89 146.83 69.86 147.09 69.86C147.35 69.86 147.59 69.92 147.81 70.04C148.45 70.37 149.05 71.03 149.62 72.03C150.18 73.02 150.46 73.87 150.46 74.56C150.94 75.56 151.26 76.71 151.42 78.02C151.64 79.89 151.9 82.72 152.2 86.51C152.5 90.3 152.73 92.98 152.89 94.54L152.89 98.46C152.89 98.58 152.99 98.77 153.19 99.04C153.39 99.3 153.5 99.54 153.5 99.77C153.5 99.99 153.29 100.2 152.89 100.38L152.11 100.2C151.69 100.2 151.09 100.23 150.31 100.29C149.52 100.35 148.91 100.38 148.47 100.38C148.39 100.38 148.25 100.4 148.05 100.43C147.85 100.46 147.69 100.48 147.58 100.49C147.47 100.5 147.35 100.5 147.21 100.49C147.07 100.48 146.96 100.44 146.89 100.38C146.82 100.32 146.79 100.24 146.79 100.14C146.79 99.77 146.99 99.29 147.39 98.68C147.79 98.08 148.15 97.78 148.47 97.78ZM145.28 73.89C144.4 76.7 143.77 78.86 143.39 80.37C143.39 80.55 143.29 81.08 143.1 81.94C142.91 82.81 142.82 83.37 142.82 83.64C144.06 84.02 145.72 84.22 147.81 84.22L147.81 80.37C147.81 78.35 147.41 76.19 146.61 73.89C146.61 73.85 146.6 73.79 146.59 73.72C146.58 73.65 146.52 73.55 146.41 73.43C146.3 73.31 146.14 73.25 145.95 73.25L145.28 73.89Z" fill="#FF313A" fill-opacity="1.000000" fill-rule="nonzero"/>
</svg>
