<svg width="166.379639" height="179.698242" viewBox="0 0 166.38 179.698" fill="none" xmlns="http://www.w3.org/2000/svg" xmlns:xlink="http://www.w3.org/1999/xlink">
	<desc>
			Created with Pixso.
	</desc>
	<defs/>
	<path id="path" d="M46.04 152.32L43.57 154.36L41.71 153.64L44.65 151.21C44.9 151 44.93 150.64 44.74 150.38C44.54 150.13 44.18 150.09 43.93 150.29L40.47 153.17L39.49 152.79L39.9 151.67C40.01 151.37 39.86 151.03 39.57 150.91C39.27 150.8 38.94 150.95 38.83 151.26L38.42 152.38L35.65 151.31L37.98 149.45L38.7 150.39C38.83 150.56 39.04 150.64 39.24 150.61C39.33 150.59 39.42 150.55 39.5 150.49C39.75 150.29 39.79 149.92 39.6 149.67L38.88 148.72L39.7 148.07L43.85 149.74C43.95 149.78 44.05 149.78 44.14 149.77C44.34 149.74 44.51 149.61 44.59 149.4C44.7 149.1 44.56 148.76 44.27 148.64L40.75 147.23L42.32 145.97L45.27 147.16C45.36 147.2 45.47 147.21 45.56 147.19C45.76 147.16 45.93 147.03 46.01 146.83C46.12 146.53 45.98 146.19 45.68 146.07L43.36 145.13L44.88 143.91C45.13 143.71 45.18 143.35 44.98 143.09C44.79 142.84 44.43 142.79 44.18 142.99L42.66 144.21L42.34 141.67C42.3 141.35 42.01 141.12 41.7 141.17C41.39 141.22 41.16 141.51 41.2 141.82L41.61 145.05L40.05 146.3L39.55 142.46C39.51 142.14 39.23 141.91 38.91 141.95C38.61 142 38.38 142.29 38.42 142.61L39 147.14L38.18 147.8L37.46 146.86C37.27 146.6 36.91 146.56 36.66 146.76C36.41 146.96 36.37 147.32 36.56 147.58L37.28 148.52L34.91 150.42L34.46 147.37L35.61 147.19C35.92 147.14 36.13 146.84 36.09 146.52C36.04 146.2 35.75 145.98 35.43 146.03L34.28 146.22L34.12 145.16L37.57 142.27C37.82 142.06 37.85 141.69 37.65 141.44C37.45 141.19 37.09 141.15 36.85 141.36L33.92 143.81L33.62 141.8L36.07 139.74C36.32 139.53 36.35 139.16 36.15 138.91C35.95 138.66 35.59 138.63 35.35 138.83L33.42 140.45L33.13 138.49C33.08 138.17 32.79 137.95 32.47 138C32.16 138.05 31.95 138.35 32 138.67L32.29 140.63L29.97 139.68C29.68 139.56 29.35 139.7 29.23 140C29.11 140.31 29.26 140.64 29.55 140.77L32.49 141.97L32.79 143.99L29.28 142.55C28.99 142.43 28.66 142.58 28.54 142.88C28.42 143.18 28.57 143.52 28.86 143.64L32.99 145.34L33.15 146.39L32 146.58C31.69 146.63 31.47 146.92 31.52 147.24C31.57 147.56 31.86 147.78 32.17 147.73L33.33 147.55L33.78 150.6L30.97 149.52L31.38 148.39C31.49 148.09 31.34 147.75 31.05 147.64C30.75 147.53 30.42 147.68 30.31 147.98L29.9 149.1L28.92 148.73L28.15 144.23C28.1 143.91 27.81 143.7 27.5 143.75C27.19 143.81 26.97 144.11 27.03 144.43L27.68 148.25L25.82 147.53L25.27 144.33C25.21 144.02 24.92 143.81 24.62 143.86C24.31 143.91 24.09 144.22 24.14 144.54L24.58 147.06L22.77 146.36C22.47 146.25 22.14 146.4 22.03 146.71C21.92 147.01 22.07 147.35 22.37 147.46L24.17 148.16L22.23 149.76C21.99 149.97 21.95 150.34 22.15 150.59C22.28 150.76 22.48 150.83 22.68 150.8C22.78 150.78 22.87 150.74 22.95 150.67L25.42 148.63L27.28 149.35L24.34 151.78C24.09 151.99 24.06 152.36 24.25 152.61C24.39 152.78 24.59 152.85 24.79 152.82C24.88 152.81 24.98 152.76 25.06 152.7L28.52 149.83L29.5 150.2L29.09 151.32C28.98 151.63 29.13 151.96 29.43 152.08C29.52 152.11 29.62 152.12 29.71 152.11C29.91 152.08 30.09 151.94 30.16 151.73L30.57 150.61L33.34 151.68L31.01 153.55L30.29 152.6C30.1 152.35 29.74 152.3 29.49 152.5C29.24 152.7 29.2 153.07 29.39 153.32L30.11 154.27L29.29 154.93L25.14 153.25C24.85 153.14 24.52 153.28 24.4 153.59C24.28 153.89 24.43 154.23 24.72 154.35L28.24 155.76L26.67 157.02L23.72 155.83C23.43 155.71 23.1 155.86 22.98 156.16C22.87 156.47 23.01 156.81 23.31 156.92L25.63 157.86L24.11 159.08C23.86 159.28 23.81 159.65 24.01 159.9C24.14 160.07 24.35 160.15 24.55 160.12C24.64 160.1 24.73 160.07 24.81 160L26.33 158.78L26.66 161.32C26.7 161.64 26.98 161.87 27.3 161.82C27.6 161.78 27.83 161.48 27.79 161.17L27.38 157.94L28.95 156.69L29.44 160.53C29.48 160.85 29.76 161.08 30.08 161.04C30.38 160.99 30.61 160.7 30.57 160.38L29.99 155.85L30.81 155.19L31.53 156.13C31.66 156.31 31.87 156.38 32.07 156.35C32.16 156.34 32.25 156.3 32.33 156.23C32.58 156.03 32.63 155.67 32.43 155.41L31.71 154.47L34.08 152.57L34.53 155.62L33.38 155.8C33.07 155.85 32.86 156.15 32.9 156.47C32.95 156.79 33.24 157.01 33.56 156.96L34.71 156.77L34.87 157.83L31.42 160.72C31.17 160.93 31.14 161.3 31.34 161.55C31.54 161.8 31.9 161.84 32.14 161.63L35.07 159.18L35.37 161.2L32.92 163.25C32.67 163.46 32.64 163.83 32.84 164.08C33.04 164.33 33.4 164.37 33.64 164.16L35.57 162.54L35.87 164.5C35.91 164.82 36.2 165.04 36.52 164.99C36.83 164.94 37.04 164.64 36.99 164.32L36.7 162.36L39.02 163.31C39.12 163.35 39.22 163.36 39.31 163.35C39.51 163.32 39.68 163.19 39.76 162.99C39.88 162.69 39.73 162.35 39.44 162.23L36.5 161.02L36.2 159L39.71 160.44C39.8 160.48 39.91 160.49 40 160.48C40.2 160.45 40.37 160.31 40.45 160.11C40.57 159.81 40.42 159.47 40.13 159.35L36 157.65L35.84 156.6L36.99 156.42C37.3 156.37 37.51 156.07 37.47 155.75C37.42 155.43 37.13 155.21 36.82 155.26L35.66 155.44L35.21 152.39L38.02 153.48L37.61 154.6C37.5 154.9 37.65 155.24 37.94 155.35C38.04 155.39 38.14 155.4 38.23 155.38C38.43 155.35 38.6 155.21 38.68 155.01L39.09 153.89L40.07 154.26L40.84 158.76C40.89 159.08 41.18 159.29 41.49 159.24C41.8 159.18 42.02 158.88 41.97 158.56L41.31 154.74L43.17 155.46L43.72 158.66C43.78 158.97 44.07 159.18 44.37 159.14C44.68 159.08 44.9 158.77 44.85 158.45L44.41 155.93L46.22 156.63C46.32 156.67 46.42 156.67 46.51 156.66C46.71 156.63 46.88 156.49 46.96 156.28C47.07 155.98 46.92 155.64 46.62 155.53L44.81 154.84L46.76 153.23C47 153.03 47.04 152.66 46.84 152.4C46.64 152.15 46.28 152.11 46.04 152.32Z" fill="#FFFFFF" fill-opacity="0.500000" fill-rule="nonzero"/>
	<path id="path" d="M114.15 44.73L111.98 46.54L110.34 45.9L112.93 43.74C113.15 43.56 113.18 43.23 113.01 43.01C112.83 42.78 112.52 42.75 112.3 42.93L109.25 45.48L108.39 45.15L108.75 44.15C108.85 43.88 108.72 43.58 108.46 43.48C108.2 43.38 107.91 43.51 107.81 43.78L107.45 44.78L105.01 43.83L107.06 42.17L107.69 43.01C107.81 43.16 107.99 43.23 108.17 43.21C108.25 43.19 108.33 43.16 108.4 43.1C108.62 42.92 108.66 42.6 108.49 42.37L107.85 41.53L108.58 40.95L112.23 42.43C112.31 42.47 112.4 42.47 112.49 42.46C112.66 42.43 112.81 42.32 112.88 42.14C112.98 41.87 112.85 41.57 112.59 41.46L109.5 40.2L110.88 39.08L113.47 40.14C113.56 40.18 113.65 40.18 113.73 40.17C113.91 40.14 114.06 40.02 114.13 39.85C114.23 39.58 114.1 39.28 113.84 39.17L111.8 38.34L113.14 37.25C113.36 37.08 113.4 36.75 113.22 36.52C113.05 36.3 112.74 36.26 112.52 36.43L111.18 37.52L110.9 35.26C110.86 34.98 110.61 34.78 110.33 34.81C110.06 34.86 109.86 35.12 109.9 35.4L110.26 38.26L108.88 39.38L108.45 35.96C108.41 35.68 108.16 35.48 107.88 35.51C107.62 35.56 107.42 35.82 107.45 36.1L107.96 40.12L107.24 40.71L106.6 39.87C106.43 39.65 106.12 39.61 105.9 39.78C105.68 39.96 105.64 40.29 105.81 40.51L106.44 41.35L104.36 43.04L103.96 40.33L104.98 40.17C105.25 40.13 105.44 39.86 105.4 39.58C105.35 39.29 105.1 39.1 104.82 39.14L103.81 39.3L103.67 38.36L106.7 35.79C106.92 35.61 106.95 35.28 106.77 35.06C106.6 34.83 106.28 34.8 106.07 34.98L103.49 37.17L103.23 35.37L105.38 33.54C105.6 33.36 105.63 33.03 105.45 32.81C105.28 32.59 104.96 32.55 104.75 32.74L103.05 34.18L102.79 32.44C102.75 32.15 102.49 31.96 102.22 32C101.94 32.04 101.75 32.31 101.8 32.59L102.05 34.34L100.02 33.49C99.76 33.38 99.47 33.51 99.36 33.78C99.26 34.05 99.39 34.35 99.64 34.46L102.23 35.53L102.5 37.33L99.41 36.04C99.15 35.94 98.86 36.07 98.76 36.33C98.65 36.6 98.78 36.91 99.04 37.01L102.68 38.52L102.81 39.46L101.8 39.62C101.53 39.67 101.34 39.93 101.38 40.22C101.42 40.5 101.68 40.7 101.95 40.65L102.97 40.49L103.37 43.2L100.89 42.24L101.25 41.24C101.35 40.97 101.22 40.67 100.96 40.57C100.7 40.47 100.41 40.61 100.31 40.87L99.95 41.87L99.09 41.54L98.41 37.54C98.36 37.26 98.11 37.07 97.84 37.11C97.57 37.16 97.37 37.43 97.42 37.72L98 41.11L96.36 40.48L95.87 37.63C95.83 37.35 95.57 37.16 95.3 37.21C95.03 37.26 94.84 37.53 94.88 37.81L95.27 40.05L93.67 39.43C93.42 39.33 93.12 39.47 93.03 39.74C92.93 40.01 93.06 40.31 93.32 40.41L94.91 41.03L93.21 42.46C92.99 42.64 92.96 42.96 93.13 43.19C93.25 43.34 93.43 43.4 93.6 43.37C93.68 43.36 93.77 43.33 93.84 43.27L96.01 41.45L97.65 42.09L95.06 44.25C94.84 44.43 94.81 44.76 94.98 44.99C95.1 45.13 95.28 45.2 95.45 45.17C95.54 45.16 95.62 45.12 95.69 45.06L98.74 42.51L99.6 42.84L99.24 43.84C99.14 44.11 99.27 44.41 99.53 44.51C99.62 44.54 99.7 44.55 99.79 44.54C99.96 44.51 100.12 44.39 100.18 44.21L100.54 43.21L102.98 44.16L100.93 45.82L100.3 44.98C100.13 44.75 99.81 44.71 99.59 44.89C99.37 45.07 99.33 45.39 99.5 45.62L100.14 46.46L99.41 47.04L95.76 45.56C95.51 45.45 95.21 45.59 95.11 45.85C95.01 46.12 95.14 46.42 95.4 46.53L98.49 47.79L97.11 48.91L94.52 47.85C94.26 47.75 93.97 47.88 93.87 48.15C93.76 48.41 93.89 48.72 94.15 48.82L96.19 49.65L94.85 50.74C94.63 50.91 94.6 51.24 94.77 51.47C94.88 51.62 95.07 51.69 95.24 51.66C95.32 51.65 95.4 51.61 95.47 51.56L96.81 50.47L97.1 52.73C97.13 53.01 97.38 53.21 97.66 53.18C97.93 53.13 98.13 52.87 98.09 52.59L97.73 49.73L99.11 48.61L99.54 52.03C99.58 52.31 99.83 52.51 100.11 52.48C100.38 52.43 100.58 52.17 100.54 51.89L100.03 47.87L100.75 47.28L101.39 48.12C101.5 48.27 101.69 48.34 101.86 48.31C101.94 48.3 102.02 48.26 102.09 48.21C102.31 48.03 102.35 47.7 102.18 47.48L101.55 46.64L103.63 44.95L104.03 47.66L103.02 47.82C102.74 47.86 102.55 48.13 102.6 48.41C102.64 48.7 102.89 48.89 103.17 48.85L104.18 48.69L104.32 49.63L101.29 52.2C101.07 52.38 101.04 52.71 101.22 52.93C101.39 53.16 101.71 53.19 101.92 53.01L104.5 50.82L104.77 52.62L102.61 54.45C102.39 54.63 102.36 54.96 102.54 55.18C102.71 55.4 103.03 55.44 103.24 55.25L104.94 53.81L105.2 55.55C105.24 55.84 105.5 56.03 105.77 55.99C106.05 55.95 106.24 55.68 106.19 55.39L105.94 53.65L107.97 54.5C108.06 54.54 108.15 54.55 108.24 54.53C108.41 54.5 108.56 54.39 108.63 54.21C108.73 53.94 108.61 53.64 108.35 53.53L105.76 52.46L105.49 50.66L108.58 51.95C108.67 51.98 108.76 51.99 108.84 51.98C109.01 51.95 109.17 51.83 109.23 51.66C109.34 51.39 109.21 51.09 108.95 50.98L105.32 49.47L105.18 48.53L106.19 48.37C106.47 48.33 106.65 48.06 106.61 47.78C106.57 47.49 106.31 47.3 106.04 47.34L105.02 47.5L104.62 44.79L107.1 45.76L106.74 46.75C106.64 47.02 106.77 47.32 107.03 47.42C107.11 47.46 107.2 47.46 107.28 47.45C107.46 47.42 107.61 47.3 107.68 47.12L108.04 46.12L108.9 46.46L109.58 50.46C109.63 50.73 109.88 50.92 110.15 50.88C110.42 50.83 110.62 50.56 110.57 50.27L109.99 46.88L111.63 47.52L112.12 50.36C112.16 50.64 112.42 50.83 112.69 50.79C112.96 50.74 113.15 50.46 113.11 50.18L112.72 47.94L114.32 48.56C114.4 48.59 114.49 48.6 114.57 48.58C114.74 48.56 114.9 48.44 114.96 48.25C115.06 47.98 114.93 47.68 114.67 47.58L113.08 46.96L114.79 45.54C115 45.36 115.04 45.03 114.86 44.8C114.69 44.58 114.37 44.54 114.15 44.73Z" fill="#FFFFFF" fill-opacity="0.500000" fill-rule="nonzero"/>
	<path id="path" d="M154.03 160.41L148.84 161.5L146.65 159.02L152.84 157.72C153.35 157.61 153.69 157.1 153.59 156.58C153.49 156.06 152.99 155.72 152.48 155.83L145.19 157.37L144.04 156.07L145.5 154.75C145.89 154.39 145.93 153.78 145.58 153.39C145.24 152.99 144.63 152.97 144.24 153.32L142.78 154.65L139.52 150.96L144.38 150.02L144.71 151.95C144.77 152.3 145.02 152.58 145.33 152.68C145.48 152.73 145.65 152.75 145.81 152.71C146.33 152.61 146.68 152.11 146.59 151.59L146.25 149.65L147.96 149.32L152.78 154.95C152.89 155.08 153.03 155.17 153.19 155.22C153.5 155.33 153.85 155.27 154.12 155.03C154.52 154.68 154.57 154.07 154.23 153.67L150.14 148.9L153.4 148.26L156.83 152.27C156.94 152.4 157.09 152.49 157.24 152.54C157.55 152.64 157.91 152.58 158.17 152.35C158.57 152 158.62 151.39 158.28 150.99L155.58 147.84L158.75 147.22C159.27 147.12 159.61 146.62 159.52 146.09C159.43 145.57 158.94 145.23 158.42 145.33L155.25 145.95L156.72 141.99C156.9 141.49 156.65 140.93 156.16 140.76C155.67 140.59 155.12 140.85 154.94 141.34L153.08 146.37L149.81 147.01L152.03 141C152.21 140.5 151.96 139.95 151.47 139.77C150.98 139.61 150.43 139.86 150.25 140.36L147.63 147.43L145.92 147.76L145.59 145.83C145.5 145.31 145 144.97 144.49 145.07C143.97 145.17 143.62 145.67 143.71 146.2L144.05 148.13L139.12 149.09L140.78 144.28L142.61 144.9C143.11 145.07 143.65 144.8 143.82 144.29C144 143.78 143.74 143.24 143.24 143.07L141.41 142.45L141.98 140.79L149.26 139.2C149.78 139.09 150.11 138.57 150.01 138.05C149.91 137.53 149.4 137.2 148.89 137.32L142.71 138.66L143.81 135.48L148.99 134.35C149.5 134.24 149.84 133.72 149.73 133.2C149.63 132.68 149.13 132.35 148.62 132.47L144.54 133.36L145.61 130.27C145.78 129.76 145.52 129.22 145.02 129.05C144.53 128.88 143.98 129.15 143.81 129.66L142.74 132.75L140.07 129.58C139.73 129.18 139.13 129.14 138.73 129.49C138.32 129.84 138.27 130.45 138.61 130.85L142.01 134.87L140.92 138.06L136.86 133.26C136.52 132.86 135.92 132.81 135.52 133.16C135.11 133.51 135.06 134.12 135.4 134.52L140.18 140.18L139.61 141.85L137.78 141.23C137.28 141.06 136.74 141.34 136.56 141.84C136.39 142.35 136.65 142.89 137.14 143.06L138.98 143.68L137.32 148.48L134.02 144.74L135.47 143.42C135.87 143.06 135.91 142.45 135.56 142.06C135.21 141.67 134.61 141.64 134.22 141.99L132.76 143.32L131.61 142.02L133.91 134.84C134.07 134.34 133.81 133.81 133.32 133.64C132.82 133.49 132.26 133.77 132.1 134.28L130.15 140.37L127.95 137.89L129.59 132.78C129.75 132.28 129.49 131.75 129 131.59C128.5 131.43 127.94 131.71 127.78 132.22L126.49 136.24L124.36 133.83C124.02 133.44 123.42 133.41 123.02 133.77C122.63 134.13 122.59 134.74 122.94 135.13L125.06 137.54L120.98 138.4C120.47 138.51 120.13 139.02 120.23 139.54C120.29 139.89 120.54 140.15 120.85 140.25C121 140.31 121.17 140.32 121.34 140.28L126.53 139.19L128.72 141.67L122.53 142.97C122.02 143.08 121.68 143.59 121.78 144.11C121.85 144.46 122.09 144.73 122.4 144.83C122.55 144.88 122.72 144.89 122.89 144.86L130.18 143.32L131.33 144.62L129.87 145.94C129.48 146.3 129.44 146.91 129.79 147.3C129.9 147.43 130.04 147.52 130.19 147.57C130.5 147.67 130.86 147.61 131.13 147.36L132.59 146.04L135.85 149.72L130.99 150.67L130.66 148.74C130.57 148.22 130.07 147.87 129.56 147.97C129.04 148.08 128.69 148.58 128.78 149.1L129.12 151.03L127.41 151.37L122.59 145.74C122.25 145.34 121.65 145.3 121.25 145.66C120.85 146.01 120.8 146.62 121.14 147.02L125.23 151.79L121.97 152.43L118.54 148.42C118.2 148.03 117.59 147.99 117.2 148.34C116.8 148.69 116.75 149.3 117.09 149.7L119.79 152.85L116.62 153.47C116.1 153.57 115.76 154.07 115.85 154.6C115.91 154.95 116.16 155.22 116.47 155.33C116.62 155.38 116.78 155.39 116.95 155.36L120.12 154.74L118.65 158.7C118.47 159.2 118.72 159.75 119.21 159.93C119.7 160.1 120.25 159.84 120.44 159.35L122.29 154.32L125.56 153.68L123.34 159.68C123.16 160.19 123.41 160.74 123.9 160.91C124.39 161.08 124.94 160.82 125.13 160.33L127.74 153.26L129.45 152.92L129.78 154.86C129.85 155.21 130.09 155.48 130.41 155.59C130.56 155.64 130.72 155.65 130.89 155.62C131.4 155.52 131.75 155.01 131.66 154.49L131.32 152.56L136.25 151.6L134.59 156.4L132.76 155.79C132.26 155.62 131.72 155.89 131.55 156.4C131.37 156.9 131.64 157.45 132.13 157.61L133.96 158.23L133.39 159.9L126.11 161.49C125.6 161.6 125.26 162.11 125.36 162.63C125.47 163.15 125.97 163.48 126.48 163.37L132.66 162.02L131.56 165.21L126.38 166.34C125.87 166.45 125.53 166.96 125.64 167.48C125.74 168 126.24 168.33 126.75 168.22L130.83 167.33L129.77 170.42C129.59 170.93 129.85 171.47 130.35 171.64C130.84 171.81 131.39 171.53 131.56 171.03L132.63 167.94L135.3 171.11C135.42 171.24 135.56 171.34 135.71 171.39C136.02 171.49 136.38 171.43 136.64 171.2C137.05 170.85 137.1 170.24 136.76 169.84L133.36 165.81L134.45 162.63L138.51 167.43C138.63 167.57 138.77 167.66 138.92 167.71C139.23 167.82 139.59 167.76 139.85 167.53C140.25 167.18 140.31 166.57 139.97 166.17L135.19 160.51L135.76 158.84L137.59 159.46C138.09 159.63 138.63 159.35 138.81 158.85C138.98 158.34 138.72 157.8 138.22 157.63L136.39 157.01L138.04 152.21L141.35 155.95L139.89 157.27C139.5 157.63 139.46 158.24 139.81 158.63C139.92 158.76 140.06 158.85 140.21 158.9C140.52 159 140.89 158.94 141.15 158.69L142.61 157.37L143.76 158.67L141.46 165.85C141.3 166.35 141.56 166.88 142.05 167.05C142.55 167.2 143.11 166.92 143.27 166.41L145.22 160.32L147.42 162.8L145.78 167.91C145.62 168.41 145.88 168.94 146.37 169.1C146.87 169.26 147.43 168.98 147.59 168.47L148.88 164.45L151 166.86C151.12 166.98 151.25 167.07 151.4 167.12C151.72 167.23 152.08 167.16 152.35 166.92C152.74 166.56 152.78 165.95 152.43 165.56L150.3 163.15L154.39 162.29C154.9 162.18 155.24 161.67 155.14 161.15C155.04 160.63 154.54 160.3 154.03 160.41Z" fill="#FFFFFF" fill-opacity="0.500000" fill-rule="nonzero"/>
	<line id="Line 4" x1="24.000122" y1="0.000000" x2="24.000122" y2="58.000000" stroke="#FFFFFF" stroke-opacity="1.000000" stroke-width="2.000000"/>
	<line id="Line 5" x1="129.000122" y1="0.000000" x2="129.000122" y2="63.000000" stroke="#FFFFFF" stroke-opacity="1.000000" stroke-width="2.000000"/>
	<line id="Line 6" x1="79.000122" y1="0.000000" x2="79.000122" y2="132.000000" stroke="#FFFFFF" stroke-opacity="1.000000" stroke-width="2.000000"/>
	<rect id="rect" x="57.364380" y="132.031250" width="41.564247" height="10.179063" transform="rotate(-0.546886 57.364380 132.031250)" stroke="#FFFFFF" stroke-opacity="1.000000" stroke-width="2.000000"/>
	<path id="polyline" d="M95.36 141.85L93.34 165.69L63.58 165.97L61.1 142.17" stroke="#FFFFFF" stroke-opacity="1.000000" stroke-width="2.000000"/>
	<rect id="rect" x="75.426025" y="142.041016" width="5.631031" height="23.817146" transform="rotate(-0.546886 75.426025 142.041016)" stroke="#FFFFFF" stroke-opacity="1.000000" stroke-width="2.000000"/>
	<rect id="rect" x="74.496948" y="131.868164" width="7.299040" height="10.172059" transform="rotate(-0.546886 74.496948 131.868164)" stroke="#FFFFFF" stroke-opacity="1.000000" stroke-width="2.000000"/>
	<path id="path" d="M78.62 131.83C83.58 123.35 86.97 120.2 89.69 121.61C92.41 123.01 92.17 129.99 88.41 131.74" stroke="#FFFFFF" stroke-opacity="1.000000" stroke-width="2.000000"/>
	<path id="path" d="M81.33 131.81C83.05 129.53 85.31 126.96 86.71 127.67C88.1 128.37 83.84 131.78 83.84 131.78" stroke="#FFFFFF" stroke-opacity="1.000000" stroke-width="2.000000"/>
	<path id="path" d="M78.13 131.84C73.01 123.45 69.57 120.37 66.87 121.82C64.18 123.28 64.56 130.25 68.35 131.93" stroke="#FFFFFF" stroke-opacity="1.000000" stroke-width="2.000000"/>
	<path id="path" d="M75.43 131.86C73.66 129.62 71.35 127.1 69.97 127.82C68.59 128.55 72.92 131.89 72.92 131.89" stroke="#FFFFFF" stroke-opacity="1.000000" stroke-width="2.000000"/>
	<path id="path" d="M40.55 76.34C39.39 79.12 35.96 87.38 35.33 88.9C34.7 90.41 34.18 94.05 37.07 98.51C39.96 102.98 43.69 106.6 40.87 111.96C38.06 117.31 32.52 117.78 25.84 112.93C19.16 108.08 12.99 97.71 12.26 95.42C11.52 93.14 11.38 91.11 13.38 86.3C15.37 81.5 20.89 67.93 20.89 67.93" stroke="#FFFFFF" stroke-opacity="1.000000" stroke-width="1.891800" stroke-linejoin="round" stroke-linecap="round"/>
	<path id="path" d="M43.49 76.92L47.24 67.9C39.64 63.07 31.52 59.66 22.84 57.76L19.09 66.79C26.75 71.37 34.89 74.76 43.49 76.92Z" stroke="#FFFFFF" stroke-opacity="1.000000" stroke-width="1.833100" stroke-linejoin="round"/>
	<path id="path" d="M40.37 103.76C35.29 104.2 30.16 110.92 29.58 115.04" stroke="#FFFFFF" stroke-opacity="1.000000" stroke-width="1.833100" stroke-linejoin="round" stroke-linecap="round"/>
	<path id="path" d="M14.68 99.59C17.52 93.87 17.67 89.17 13.75 85.53" stroke="#FFFFFF" stroke-opacity="1.000000" stroke-width="1.833100" stroke-linejoin="round" stroke-linecap="round"/>
	<path id="path" d="M156.54 86.88C156.93 82.9 155.52 79.7 152.34 77.27C139.67 81 127.74 86.17 116.58 92.9C115.86 96.72 117.36 99.9 120.79 102.52C133.3 98.56 145.23 93.36 156.54 86.88Z" stroke="#FFFFFF" stroke-opacity="1.000000" stroke-width="2.000000" stroke-linejoin="round"/>
	<path id="path" d="M151.04 77.13C148.52 72.19 144.52 68.43 142.26 66.85C136.75 62.98 129.77 61.75 122.61 64.42C117.47 66.33 111.57 71.51 110.27 76.67C108.24 84.65 111.18 91.23 112.96 93.8" stroke="#FFFFFF" stroke-opacity="1.000000" stroke-width="2.000000" stroke-linejoin="round" stroke-linecap="round"/>
	<path id="path" d="M117.39 91.99C116.42 89.36 114.57 83.16 116.04 78.84" stroke="#FFFFFF" stroke-opacity="1.000000" stroke-width="2.000000" stroke-linejoin="round" stroke-linecap="round"/>
	<path id="path" d="M116.44 94.49C114.81 90.96 111.91 89.69 113.43 95.42" stroke="#FFFFFF" stroke-opacity="1.000000" stroke-width="2.000000" stroke-linejoin="round" stroke-linecap="round"/>
	<path id="path" d="M113.17 94.82C108.76 92.62 105.69 94.87 108.14 98.65" stroke="#FFFFFF" stroke-opacity="1.000000" stroke-width="2.000000" stroke-linejoin="round" stroke-linecap="round"/>
	<path id="path" d="M110.1 97.77C107.99 98.39 106.11 99.9 108.57 101.97" stroke="#FFFFFF" stroke-opacity="1.000000" stroke-width="2.000000" stroke-linejoin="round" stroke-linecap="round"/>
	<path id="path" d="M107.79 101.32C103.93 104.18 106.95 108.32 110.71 104.7C111.28 107.48 113.6 107.42 113.79 105.25" stroke="#FFFFFF" stroke-opacity="1.000000" stroke-width="2.000000" stroke-linejoin="round" stroke-linecap="round"/>
	<path id="path" d="M113.57 106.28C116.43 109.44 119.2 106.85 117.87 104.3" stroke="#FFFFFF" stroke-opacity="1.000000" stroke-width="2.000000" stroke-linejoin="round" stroke-linecap="round"/>
	<path id="path" d="M120.81 102.36C121.91 104.95 119.56 105.51 118.2 104.85" stroke="#FFFFFF" stroke-opacity="1.000000" stroke-width="2.000000" stroke-linejoin="round" stroke-linecap="round"/>
	<path id="path" d="M115.83 101.72C115.01 103.55 111.77 103.59 111.94 100.48" stroke="#FFFFFF" stroke-opacity="1.000000" stroke-width="2.000000" stroke-linejoin="round" stroke-linecap="round"/>
</svg>
