<svg width="23.994141" height="25.000000" viewBox="0 0 23.9941 25" fill="none" xmlns="http://www.w3.org/2000/svg" xmlns:xlink="http://www.w3.org/1999/xlink">
	<desc>
			Created with Pixso.
	</desc>
	<defs/>
	<path id="path" d="M23.07 13.26L20.71 15.15L18.92 14.48L21.74 12.23C21.98 12.04 22.01 11.7 21.82 11.46C21.63 11.23 21.29 11.19 21.05 11.38L17.72 14.04L16.79 13.69L17.18 12.66C17.29 12.37 17.14 12.06 16.86 11.96C16.58 11.85 16.26 11.99 16.15 12.28L15.76 13.31L13.1 12.33L15.34 10.6L16.03 11.47C16.15 11.63 16.35 11.7 16.54 11.67C16.63 11.66 16.72 11.62 16.8 11.56C17.04 11.38 17.08 11.04 16.89 10.8L16.2 9.93L16.99 9.32L20.97 10.87C21.07 10.9 21.16 10.91 21.26 10.9C21.44 10.87 21.61 10.75 21.68 10.56C21.8 10.28 21.66 9.97 21.37 9.86L18 8.54L19.5 7.38L22.34 8.48C22.43 8.52 22.53 8.52 22.62 8.51C22.81 8.48 22.97 8.36 23.05 8.17C23.16 7.89 23.02 7.58 22.74 7.47L20.51 6.6L21.97 5.47C22.21 5.29 22.25 4.95 22.07 4.71C21.88 4.48 21.53 4.43 21.3 4.62L19.83 5.75L19.53 3.4C19.49 3.1 19.21 2.89 18.91 2.93C18.62 2.98 18.4 3.25 18.44 3.54L18.83 6.52L17.32 7.69L16.86 4.13C16.82 3.83 16.54 3.62 16.24 3.66C15.95 3.7 15.73 3.98 15.77 4.27L16.32 8.46L15.53 9.07L14.84 8.2C14.65 7.96 14.31 7.92 14.07 8.11C13.83 8.29 13.79 8.63 13.98 8.87L14.67 9.74L12.39 11.5L11.96 8.68L13.06 8.51C13.36 8.46 13.57 8.19 13.52 7.89C13.48 7.6 13.2 7.39 12.9 7.44L11.79 7.61L11.64 6.63L14.95 3.95C15.19 3.76 15.22 3.42 15.03 3.19C14.84 2.95 14.49 2.92 14.26 3.11L11.45 5.38L11.16 3.51L13.51 1.61C13.75 1.42 13.78 1.08 13.59 0.84C13.4 0.61 13.05 0.58 12.82 0.77L10.97 2.27L10.69 0.45C10.64 0.16 10.36 -0.04 10.06 0C9.76 0.05 9.56 0.32 9.6 0.62L9.88 2.43L7.66 1.55C7.38 1.44 7.06 1.58 6.95 1.86C6.83 2.13 6.97 2.45 7.25 2.56L10.07 3.68L10.36 5.55L6.99 4.21C6.71 4.1 6.39 4.24 6.28 4.52C6.17 4.79 6.31 5.11 6.59 5.22L10.56 6.79L10.71 7.77L9.6 7.94C9.3 7.99 9.1 8.26 9.14 8.56C9.19 8.86 9.47 9.06 9.77 9.01L10.87 8.84L11.31 11.66L8.61 10.66L9 9.62C9.11 9.34 8.97 9.03 8.68 8.93C8.4 8.82 8.08 8.96 7.98 9.24L7.58 10.28L6.65 9.93L5.91 5.77C5.85 5.48 5.58 5.28 5.28 5.33C4.98 5.38 4.77 5.66 4.83 5.96L5.45 9.49L3.66 8.83L3.14 5.86C3.09 5.57 2.81 5.38 2.52 5.42C2.22 5.48 2.01 5.76 2.06 6.05L2.47 8.39L0.74 7.74C0.45 7.64 0.14 7.78 0.03 8.06C-0.08 8.34 0.07 8.65 0.35 8.76L2.09 9.4L0.22 10.89C-0.01 11.08 -0.05 11.42 0.14 11.65C0.27 11.81 0.46 11.88 0.65 11.85C0.74 11.83 0.83 11.8 0.91 11.74L3.28 9.84L5.07 10.51L2.24 12.76C2.01 12.95 1.97 13.29 2.16 13.53C2.29 13.68 2.48 13.75 2.67 13.72C2.76 13.71 2.85 13.67 2.93 13.61L6.26 10.95L7.2 11.3L6.8 12.33C6.7 12.62 6.84 12.93 7.12 13.03C7.21 13.07 7.31 13.08 7.4 13.06C7.59 13.03 7.76 12.91 7.83 12.72L8.22 11.68L10.88 12.66L8.64 14.39L7.96 13.52C7.77 13.28 7.42 13.24 7.19 13.43C6.95 13.61 6.9 13.95 7.09 14.19L7.78 15.06L6.99 15.67L3.01 14.12C2.73 14.01 2.41 14.15 2.3 14.43C2.19 14.71 2.33 15.03 2.61 15.13L5.99 16.45L4.48 17.61L1.65 16.51C1.37 16.4 1.05 16.54 0.94 16.82C0.83 17.1 0.97 17.41 1.25 17.52L3.48 18.39L2.01 19.52C1.78 19.7 1.73 20.04 1.92 20.28C2.05 20.44 2.25 20.51 2.43 20.48C2.52 20.47 2.61 20.43 2.69 20.37L4.15 19.24L4.46 21.59C4.5 21.89 4.77 22.1 5.07 22.06C5.37 22.01 5.59 21.74 5.55 21.45L5.15 18.47L6.66 17.3L7.13 20.86C7.17 21.16 7.44 21.37 7.74 21.33C8.04 21.29 8.26 21.01 8.22 20.72L7.67 16.53L8.45 15.92L9.14 16.79C9.27 16.95 9.47 17.02 9.66 16.99C9.75 16.98 9.84 16.94 9.91 16.88C10.15 16.7 10.19 16.36 10.01 16.12L9.32 15.25L11.59 13.49L12.03 16.31L10.92 16.48C10.62 16.53 10.42 16.8 10.46 17.1C10.51 17.39 10.79 17.6 11.09 17.55L12.19 17.38L12.34 18.36L9.03 21.04C8.8 21.23 8.76 21.57 8.95 21.8C9.15 22.04 9.49 22.07 9.73 21.88L12.54 19.61L12.83 21.48L10.47 23.38C10.24 23.57 10.2 23.91 10.39 24.15C10.58 24.38 10.93 24.41 11.16 24.22L13.02 22.72L13.3 24.54C13.34 24.83 13.62 25.03 13.92 24.99C14.22 24.94 14.43 24.67 14.38 24.37L14.1 22.56L16.33 23.44C16.42 23.48 16.52 23.49 16.61 23.47C16.8 23.44 16.96 23.32 17.04 23.14C17.15 22.86 17.01 22.54 16.73 22.43L13.91 21.31L13.62 19.44L16.99 20.78C17.08 20.82 17.18 20.83 17.28 20.81C17.46 20.78 17.63 20.66 17.7 20.48C17.82 20.2 17.68 19.88 17.4 19.77L13.43 18.2L13.28 17.22L14.38 17.05C14.68 17.01 14.89 16.73 14.84 16.43C14.8 16.14 14.52 15.93 14.22 15.98L13.11 16.15L12.67 13.33L15.37 14.33L14.98 15.37C14.87 15.65 15.02 15.96 15.3 16.07C15.39 16.1 15.49 16.11 15.58 16.09C15.77 16.06 15.93 15.94 16.01 15.75L16.4 14.71L17.34 15.06L18.08 19.22C18.13 19.52 18.41 19.71 18.7 19.67C19 19.61 19.21 19.33 19.16 19.04L18.53 15.5L20.32 16.16L20.85 19.13C20.9 19.42 21.18 19.61 21.47 19.57C21.77 19.52 21.98 19.23 21.93 18.94L21.51 16.6L23.25 17.25C23.34 17.28 23.43 17.29 23.52 17.28C23.71 17.25 23.88 17.12 23.95 16.93C24.06 16.65 23.92 16.34 23.63 16.23L21.9 15.59L23.76 14.1C24 13.91 24.04 13.57 23.84 13.34C23.65 13.1 23.31 13.07 23.07 13.26Z" fill="#FFFFFF" fill-opacity="1.000000" fill-rule="nonzero"/>
</svg>
