<?xml version="1.0" encoding="UTF-8"?>
<svg id="_Слой_2" data-name="Слой 2" xmlns="http://www.w3.org/2000/svg" viewBox="0 0 203 230">
  <defs>
    <style>
      .cls-1 {
        fill: #91c2e7;
      }
    </style>
  </defs>
  <g id="_карточка" data-name="карточка">
    <g>
      <path class="cls-1" d="m202.57,114.9c-.74-1.06-2.34-1.86-3.68-2.07-4.58-.71-9.21-1.12-13.82-1.64-.09-.17-.17-.34-.26-.51.41-.29.83-.56,1.22-.88,2.79-2.31,5.62-4.58,8.33-6.98,1.69-1.5,1.78-3.64.46-5.28-1.3-1.61-3.43-1.91-5.27-.64-.99.68-1.88,1.51-2.82,2.27-1.87,1.53-3.75,3.07-6.12,5.02.8-4.72,1.47-8.73,2.14-12.73.5-3.02-.58-5.02-2.93-5.41-2.39-.41-4.03,1.03-4.65,4.07-.05.22-.1.44-.13.67-1.1,6.46-2.19,12.93-3.34,19.39-.14.78-.39,1.74-.93,2.21-4.4,3.76-8.88,7.43-13.49,11.25-5.95-8.44-13.28-15.12-21.91-20.07,14.96-20.92,14.28-41.07-1.86-60.79,3.17-.92,4.99-2.96,5.14-6.19.13-2.94.13-5.89,0-8.83-.16-3.5-2.58-5.85-6.05-6.13-.89-.07-1.78-.11-2.91-.18,0-4.02.02-7.92,0-11.83C129.65,3.28,126.34,0,120.02,0c-12.08,0-24.15,0-36.23,0-7.24,0-10.29,3.06-10.3,10.33,0,3.67,0,7.34,0,11.1-.8.06-1.31.11-1.83.13-4.86.2-7.13,2.54-7.17,7.38-.01,1.66.09,3.33-.02,4.98-.27,4.21.76,7.62,5.16,8.89-16.15,19.9-16.77,40.05-1.8,60.75-8.77,4.99-16,11.71-21.94,20.03-4.25-3.53-8.37-6.82-12.32-10.31-1.02-.9-1.86-2.36-2.12-3.7-1.28-6.51-2.31-13.06-3.49-19.59-.54-3-2.34-4.43-4.73-3.94-2.25.46-3.31,2.44-2.84,5.29.68,4.06,1.36,8.11,2.12,12.62-.89-.62-1.39-.91-1.83-1.28-2.1-1.73-4.16-3.49-6.27-5.2-2.28-1.85-4.46-1.83-6-.02-1.56,1.85-1.2,4,1.01,5.9.86.74,1.75,1.44,2.62,2.17,2.11,1.76,4.21,3.53,6.68,5.61-2.37.27-4.22.49-6.06.69-3,.33-6,.6-9,.99-2.48.32-3.88,2.04-3.64,4.32.22,2.1,1.76,3.39,4.08,3.35.98-.02,1.96-.14,2.93-.25,6-.67,11.99-1.39,17.99-2,.91-.09,2.12-.06,2.76.45,4.71,3.76,9.31,7.66,13.93,11.5-16.55,32.28-5.07,66.74,17.01,84.52,23.32,18.79,55.4,20.46,80.37,3.92,12.2-8.08,20.95-19.04,25.95-32.8,6.91-19,5.4-37.57-3.62-55.6,3.15-2.61,6.48-4.83,9.11-7.69,3.84-4.17,8.15-4.78,13.41-3.75,4.94.96,10.02,1.3,15.06,1.61,1.17.07,2.85-.81,3.52-1.79.61-.89.65-2.85.05-3.71ZM81.31,8.84c.01-.39,1.13-1.05,1.75-1.07,3.54-.1,7.09-.05,10.64-.05,8.6,0,17.21.06,25.81-.05,2.05-.03,2.59.62,2.51,2.58-.14,3.67-.04,7.36-.04,11.17-13.61,0-27.01,0-40.74,0,0-4.21-.05-8.4.08-12.59Zm-8.92,20.64c19.43,0,38.88,0,58.46,0,0,1.83,0,3.6,0,5.51-19.49,0-38.89,0-58.46,0,0-1.8,0-3.56,0-5.51Zm-7.49,42.28c.32-10.11,5.38-20.25,15.66-27.62,1.02-.73,2.47-1.2,3.72-1.21,11.55-.09,23.1-.08,34.65-.01,1.13,0,2.42.35,3.35.97,12.52,8.34,18.54,24.04,15.01,38.89-3.5,14.71-16.12,25.98-31.09,27.76-22.07,2.63-41.33-14.31-41.29-38.79Zm8.07,59.6c1.22-1.78,2.32-3.37,3.37-4.89,4.21,1.47,8.29,2.89,12.6,4.39-1.56,2.25-3.13,4.5-4.75,6.83-3.92-2.21-7.5-4.23-11.23-6.33Zm6.77,12.7c-.83,1.17-1.54,2.17-2.33,3.28-3.75-2.1-7.35-4.12-11.19-6.28.79-1.15,1.46-2.13,2.27-3.31,3.75,2.1,7.39,4.15,11.25,6.32Zm-10.81-32.18c1.42-.81,2.72-1.78,4.17-2.29.68-.24,1.8.19,2.49.66,15.2,10.17,30.96,11.15,47.28,2.92.94-.47,1.83-1.05,2.72-1.62q4.24-2.73,8.42.4c-16.1,15.63-46.53,17.04-65.08-.06Zm90.04,67.92c-7.48,24.96-30.64,42.19-56.93,42.48-26.07.29-49.47-16.57-57.55-41.61-7.98-24.72,1.22-50.17,18.05-63.78,2.29,1.81,4.58,3.63,7.12,5.64-2.3,3.31-4.6,6.62-6.91,9.93-3.62,5.2-7.25,10.39-10.84,15.61-1.48,2.15-1.22,4.26.54,5.63,1.76,1.37,4.1,1.02,5.57-.93,1.26-1.68,2.42-3.44,3.73-5.33.84.48,1.42.81,2.25,1.29-1.21,1.77-2.4,3.46-3.54,5.19-1.57,2.38-1.28,4.65.73,5.94,1.89,1.21,4.08.61,5.62-1.57,1.3-1.84,2.57-3.71,3.94-5.7.7.36,1.34.7,2.23,1.16-1.05,1.51-2.04,2.9-2.98,4.31-1.53,2.3-1.33,4.44.53,5.81,1.9,1.4,4.19.89,5.81-1.42,6.74-9.64,13.47-19.29,20.17-28.96.73-1.05,1.4-1.69,2.87-1.64,15.39.54,28.91-4.27,40.49-14.45.22-.2.48-.35.71-.52,16.04,12.85,25.98,37.57,18.39,62.92Z"/>
      <path class="cls-1" d="m75.23,199.68c-2.58.01-4.53,2.01-4.49,4.61.04,2.57,2.1,4.54,4.65,4.47,2.42-.07,4.41-2.1,4.43-4.52.02-2.52-2.05-4.57-4.59-4.56Z"/>
      <path class="cls-1" d="m127.75,134.55c-2.41.06-4.4,2.07-4.44,4.5-.04,2.59,1.92,4.58,4.51,4.59,2.59,0,4.58-1.98,4.56-4.55-.02-2.51-2.16-4.59-4.64-4.54Z"/>
      <path class="cls-1" d="m141.28,151.08c-2.58,0-4.55,2.01-4.51,4.59.04,2.53,2.17,4.59,4.64,4.5,2.39-.08,4.42-2.15,4.45-4.53.03-2.51-2.04-4.57-4.59-4.57Z"/>
      <path class="cls-1" d="m63.35,185.68c-2.49-.03-4.63,2.07-4.63,4.55,0,2.51,2.09,4.56,4.62,4.53,2.56-.03,4.55-2.07,4.48-4.63-.06-2.45-2.03-4.42-4.47-4.45Z"/>
      <path class="cls-1" d="m143.94,129.26c-.06-2.55-2.13-4.48-4.72-4.4-2.46.08-4.41,2.08-4.4,4.51,0,2.48,2.17,4.61,4.63,4.58,2.49-.04,4.55-2.18,4.49-4.69Z"/>
      <path class="cls-1" d="m102.54,85.25c.35-.03.9.03,1.4-.12,7.94-2.34,15.9-4.6,23.76-7.18,1.05-.34,2.01-2.22,2.21-3.52.26-1.65-.91-3.02-2.62-3.5-7.75-2.18-15.46-4.56-23.3-6.36-5.71-1.32-11.43,3.49-11.9,9.32-.48,6.08,4.26,11.32,10.45,11.36Zm-2.18-11.83c.8-.72,2.25-1.22,3.3-1.05,2.92.46,5.78,1.32,8.66,2.02,0,.23,0,.46-.01.69-2.89.77-5.76,1.71-8.7,2.23-1.03.18-2.5-.38-3.29-1.12-.49-.45-.46-2.32.04-2.77Z"/>
      <path class="cls-1" d="m113.59,90.81c-1.66-1.49-3.83-1.3-5.63.51-4.18,4.19-8.56,4.18-12.78-.04-1.78-1.78-3.99-1.95-5.63-.44-1.61,1.48-1.66,3.75-.04,5.66,3.16,3.73,7.25,5.51,12.03,5.63,4.91-.14,9.01-1.91,12.15-5.66,1.6-1.91,1.52-4.19-.11-5.66Z"/>
      <path class="cls-1" d="m88.94,60.61c2.16.14,4.08-1.63,4.16-3.83.08-2.23-1.63-4.1-3.82-4.17-2.17-.07-4.02,1.74-4.04,3.95-.02,2.13,1.61,3.92,3.71,4.05Z"/>
      <path class="cls-1" d="m113.94,60.6c2.18.04,4-1.76,4-3.98,0-2.22-1.8-4.04-3.98-4.02-2.09.02-3.83,1.76-3.89,3.88-.06,2.24,1.67,4.08,3.86,4.12Z"/>
    </g>
  </g>
</svg>