<?xml version="1.0" encoding="UTF-8"?>
<svg id="_Слой_2" data-name="Слой 2" xmlns="http://www.w3.org/2000/svg" viewBox="0 0 208.22 230">
  <defs>
    <style>
      .cls-1 {
        fill: #91c2e7;
      }
    </style>
  </defs>
  <g id="_карточка" data-name="карточка">
    <g>
      <path class="cls-1" d="m208.07,134.56c-.52-1.95-2.19-3.04-4.35-2.77-.6.07-1.18.27-1.77.41-5.58,1.34-11.23,1.9-16.93,1.08-.85-.12-1.84-.69-2.37-1.36-2.78-3.51-5.5-7.07-8.11-10.71-1.25-1.75-2.74-2.67-4.9-2.78-2.95-.15-5.9-.54-8.85-.71-1.78-.11-2.93-.52-3.63-2.52-.65-1.86-2.03-3.54-3.38-5.04-1.34-1.51-3.04-2.7-4.57-4.02,8.62-17.71,8-35-2.21-52,.9-.62,1.85-1.22,2.75-1.9,6.7-5.08,6.67-12.33-.19-17.16-1.96-1.39-4.19-2.43-6.38-3.45-1.17-.54-1.65-1.14-1.81-2.48-1.65-13.84-11.36-25.19-24.88-28.08C110.93-.13,105.02-.05,99.28.06c-16.67.31-30.22,12.74-32.02,29.11-.14,1.29-.73,1.72-1.75,2.26-2.86,1.53-5.91,2.9-8.36,4.95-4.91,4.11-4.88,10.05-.24,14.47,1.31,1.24,2.84,2.24,4.27,3.35-10.15,16.96-10.81,34.31-2.19,52.18-3.49,2.47-6.82,5.15-8.19,9.42-.43,1.34-1.16,1.75-2.42,1.84-3.1.22-6.2.58-9.31.74-2.47.12-4.29,1.05-5.64,3.19-1.21,1.92-3.04,3.5-4.02,5.51-3.19,6.59-8.71,7.34-15.02,6.45-.15-.02-.3-.03-.45-.06-3.06-.54-6.11-1.11-9.17-1.62-2.28-.38-4.05.68-4.6,2.69-.59,2.12.45,3.98,2.74,4.76,1,.34,2.03.65,3.07.81,4,.6,8.01,1.12,11.97,1.67-.67,1.3-1.56,2.56-2,3.96-1.41,4.48-2.67,9.01-3.95,13.53-.74,2.6.23,4.7,2.39,5.35,2.26.68,4.22-.57,5.05-3.3,1.21-3.99,2.33-8,3.57-11.98.31-.99.79-1.98,1.4-2.8,4.71-6.33,9.47-12.62,14.24-18.91.4-.53.89-1.32,1.42-1.39,2.93-.37,5.89-.55,9.16-.83-20.61,30.33-12.14,68.3,11.18,88.39,22.81,19.65,56.7,21.76,81.3,4.68,12.66-8.79,21.54-20.48,25.98-35.22,6.16-20.44,3.07-39.7-8.82-57.89,3.2.26,5.99.46,8.77.75.47.05,1.04.37,1.31.75,4.18,5.87,9.67,10.92,10.96,18.57.48,2.88,1.13,6.05,2.73,8.36,4.06,5.85,8.65,11.34,13.16,16.87,1.63,1.99,4.45,1.72,5.91-.29,1.33-1.84.88-3.55-.43-5.2-3.3-4.17-6.43-8.47-9.91-12.48-2.81-3.24-3.18-7.23-4.58-11.24,1.59,0,2.88.15,4.13-.03,4.87-.66,9.75-1.28,14.57-2.22,2.2-.43,3.13-2.55,2.58-4.6ZM81.6,15.7c4.47-4.69,9.91-7.6,16.42-7.77,5.36-.14,10.86-.38,16.08.57,11.66,2.12,19.73,12.6,19.64,24.49q-.04,5-5.05,5h-24.35c-9.03,0-18.06-.05-27.09.04-1.91.02-2.4-.63-2.47-2.48-.28-7.52,1.51-14.28,6.82-19.85Zm-18.78,25.97c1.25-.96,2.67-1.69,4.32-2.71,2.01,5.55,6.02,6.87,11.13,6.84,17.53-.12,35.07-.1,52.61-.01,4.89.02,8.62-1.48,10.52-6.69,1.59,1.04,3.05,1.93,4.43,2.94,1.44,1.06,1.48,2.46-.03,3.3-3.08,1.73-6.17,3.62-9.5,4.68-12,3.81-24.41,4.53-36.91,4.16-8.97-.27-17.9-1.13-26.48-3.87-3.49-1.11-6.86-2.79-10.04-4.62-2.21-1.27-2.08-2.47-.05-4.01Zm4.91,16.93c.28-.44.62-.84.97-1.31,15.88,4.67,31.88,5.69,48.01,4.13,7.21-.7,14.32-2.42,21.46-3.8,1.2-.23,1.77.02,2.35,1,8.96,14.87,9.42,30,.88,45.1-3.39,5.98-9.28,9.5-15.34,12.45-17.91,8.72-39.86,5.79-54.79-7.15-5.84-5.06-8.39-11.78-9.72-19.06-2.04-11.22.02-21.72,6.17-31.36Zm-7.34,56.56c.98-.92,2.11-1.69,3.15-2.51,21.98,21.88,59.97,21.3,80.93.11,7.46,3.91,7.83,9,.9,13.63-5.71,3.81-12.18,5.74-18.84,7.02-17.63,3.37-35.18,3.2-52.46-2.01-3.87-1.17-7.48-3.22-11.16-4.97-.93-.44-1.73-1.23-2.5-1.96-3.42-3.25-3.43-6.09-.02-9.31Zm87.08,88.04c-22.03,23.98-59.16,25.6-83.07,3.64-24.62-22.61-23.08-57.26-8.91-76.13,10.31,7.95,22.5,10.58,35.02,11.93,15.29,1.64,30.48.85,45.33-3.54,6.07-1.79,11.84-4.28,16.76-8.4,12.76,16.21,16.55,48.9-5.13,72.5Z"/>
      <path class="cls-1" d="m104.05,156.5c-2.06.03-3.72,1.68-3.78,3.76-.06,2.17,1.63,3.94,3.79,3.96,2.16.03,3.91-1.7,3.9-3.86,0-2.15-1.77-3.9-3.91-3.86Z"/>
      <path class="cls-1" d="m103.97,187.87c-2.09.06-3.69,1.7-3.71,3.79-.02,2.14,1.75,3.93,3.86,3.92,2.12-.01,3.86-1.81,3.82-3.96-.04-2.17-1.78-3.81-3.97-3.75Z"/>
      <path class="cls-1" d="m104.3,179.86c2.08-.09,3.65-1.76,3.64-3.85-.02-2.16-1.77-3.88-3.92-3.83-2.14.05-3.82,1.84-3.75,4,.07,2.17,1.84,3.78,4.03,3.68Z"/>
      <path class="cls-1" d="m75.79,100.87c3.26-.04,6.52-.01,9.51-.01,5.89-.43,11.53-.52,17.06-1.33,5.54-.81,8.97-6.32,7.86-11.65-1.46-7.03-8.55-10.39-15.18-6.85-7.28,3.89-14.35,8.18-21.52,12.29-1.88,1.08-2.76,2.66-2.15,4.76.62,2.13,2.31,2.82,4.42,2.8Zm23.39-13.21c1.62-.81,2.9-.14,3.37,1.51.46,1.61-.5,2.73-2.05,2.9-3.27.36-6.56.5-9.84.73-.06-.18-.11-.37-.17-.55,2.9-1.53,5.77-3.12,8.7-4.58Z"/>
      <path class="cls-1" d="m97.37,102.99c-1.84-1.86-3.93-2.06-5.64-.54-1.67,1.49-1.77,3.75-.16,5.67,3.26,3.89,7.51,5.74,12.53,5.91,4.72-.01,9.43-2.2,12.39-5.74,1.72-2.05,1.7-4.32-.03-5.85-1.72-1.51-3.79-1.31-5.63.55-4.3,4.34-9.14,4.34-13.46,0Z"/>
      <path class="cls-1" d="m90.81,75.01c2.24,0,4.04-1.81,4-4.02-.04-2.21-1.89-3.94-4.14-3.88-2.16.06-3.85,1.76-3.87,3.9-.02,2.24,1.74,4,4,4Z"/>
      <path class="cls-1" d="m115.65,75.01c2.29.06,4.05-1.61,4.09-3.89.04-2.28-1.67-4.02-3.95-4.02-2.2,0-3.88,1.59-3.97,3.77-.09,2.29,1.56,4.07,3.83,4.13Z"/>
    </g>
  </g>
</svg>