<svg width="144.426514" height="160.000000" viewBox="0 0 144.427 160" fill="none" xmlns="http://www.w3.org/2000/svg" xmlns:xlink="http://www.w3.org/1999/xlink">
	<desc>
			Created with Pixso.
	</desc>
	<defs/>
	<path id="path" d="M144.31 93.58C143.95 92.23 142.79 91.47 141.29 91.66C140.87 91.7 140.47 91.84 140.06 91.94C136.19 92.87 132.27 93.26 128.32 92.69C127.73 92.61 127.04 92.21 126.68 91.75C124.75 89.3 122.86 86.83 121.05 84.3C120.18 83.08 119.15 82.44 117.65 82.36C115.61 82.26 113.56 81.99 111.51 81.87C110.28 81.79 109.48 81.51 108.99 80.12C108.54 78.82 107.59 77.65 106.65 76.61C105.72 75.56 104.54 74.73 103.48 73.81C109.46 61.5 109.03 49.47 101.95 37.64C102.57 37.21 103.23 36.8 103.86 36.32C108.5 32.79 108.48 27.75 103.72 24.39C102.36 23.42 100.82 22.7 99.3 21.99C98.49 21.61 98.15 21.19 98.04 20.26C96.9 10.64 90.16 2.74 80.78 0.73C76.93 -0.1 72.84 -0.04 68.85 0.04C57.29 0.25 47.89 8.9 46.64 20.28C46.55 21.18 46.14 21.48 45.43 21.86C43.45 22.92 41.33 23.87 39.63 25.3C36.23 28.16 36.25 32.29 39.46 35.36C40.37 36.23 41.43 36.92 42.43 37.69C35.39 49.49 34.93 61.56 40.91 73.99C38.49 75.71 36.18 77.57 35.23 80.54C34.93 81.47 34.42 81.76 33.55 81.82C31.4 81.97 29.25 82.22 27.09 82.33C25.38 82.42 24.11 83.07 23.18 84.55C22.34 85.89 21.07 86.99 20.39 88.39C18.18 92.97 14.35 93.49 9.97 92.87C9.87 92.86 9.76 92.85 9.66 92.83C7.54 92.46 5.42 92.06 3.3 91.7C1.72 91.44 0.49 92.18 0.11 93.58C-0.3 95.05 0.42 96.34 2.01 96.89C2.7 97.12 3.42 97.34 4.14 97.45C6.91 97.87 9.69 98.23 12.44 98.61C11.98 99.51 11.36 100.39 11.05 101.37C10.08 104.48 9.2 107.63 8.31 110.78C7.8 112.59 8.47 114.05 9.97 114.5C11.54 114.97 12.9 114.1 13.47 112.2C14.31 109.43 15.09 106.64 15.95 103.87C16.17 103.18 16.5 102.49 16.92 101.92C20.19 97.52 23.49 93.14 26.8 88.77C27.08 88.4 27.42 87.85 27.78 87.8C29.82 87.54 31.87 87.42 34.14 87.22C19.84 108.32 25.72 134.73 41.89 148.71C57.71 162.37 81.22 163.84 98.28 151.96C107.07 145.85 113.23 137.72 116.31 127.46C120.58 113.25 118.44 99.85 110.19 87.2C112.41 87.38 114.34 87.52 116.27 87.72C116.6 87.75 116.99 87.98 117.18 88.24C120.08 92.32 123.89 95.84 124.78 101.16C125.11 103.16 125.57 105.36 126.68 106.97C129.49 111.04 132.67 114.86 135.8 118.71C136.93 120.09 138.89 119.9 139.9 118.5C140.83 117.22 140.51 116.03 139.6 114.89C137.32 111.99 135.14 109 132.73 106.21C130.78 103.95 130.53 101.18 129.55 98.39C130.66 98.39 131.55 98.49 132.42 98.37C135.8 97.91 139.18 97.48 142.53 96.82C144.05 96.52 144.69 95.01 144.31 93.58ZM56.59 10.91C59.69 7.65 63.46 5.62 67.98 5.5C71.7 5.41 75.51 5.24 79.13 5.9C87.22 7.37 92.82 14.66 92.76 22.93C92.74 25.25 91.57 26.41 89.25 26.41L72.36 26.41C66.1 26.41 59.84 26.38 53.57 26.44C52.25 26.45 51.91 26 51.86 24.71C51.67 19.48 52.91 14.78 56.59 10.91ZM43.56 28.97C44.43 28.3 45.42 27.8 46.56 27.09C47.95 30.95 50.74 31.86 54.28 31.84C66.44 31.76 78.61 31.77 90.77 31.84C94.16 31.85 96.75 30.81 98.07 27.18C99.17 27.91 100.19 28.53 101.14 29.23C102.14 29.97 102.17 30.94 101.12 31.52C98.99 32.73 96.84 34.04 94.53 34.78C86.21 37.43 77.6 37.93 68.93 37.67C62.71 37.48 56.51 36.89 50.56 34.98C48.14 34.21 45.8 33.04 43.6 31.77C42.07 30.88 42.16 30.04 43.56 28.97ZM46.97 40.75C47.16 40.44 47.4 40.16 47.64 39.84C58.66 43.08 69.76 43.79 80.94 42.71C85.95 42.22 90.88 41.03 95.83 40.07C96.66 39.91 97.06 40.08 97.46 40.76C103.67 51.1 103.99 61.63 98.07 72.13C95.72 76.29 91.63 78.74 87.43 80.79C75.01 86.86 59.78 84.82 49.43 75.82C45.37 72.3 43.61 67.62 42.68 62.56C41.27 54.76 42.7 47.45 46.97 40.75ZM41.88 80.09C42.56 79.45 43.34 78.91 44.06 78.34C59.31 93.56 85.66 93.16 100.2 78.42C105.37 81.14 105.63 84.68 100.82 87.9C96.86 90.55 92.37 91.89 87.76 92.78C75.53 95.13 63.35 95.01 51.37 91.38C48.68 90.57 46.18 89.14 43.63 87.93C42.98 87.62 42.43 87.07 41.89 86.56C39.52 84.3 39.51 82.33 41.88 80.09ZM102.28 141.33C87 158 61.24 159.13 44.66 143.86C27.58 128.13 28.65 104.03 38.48 90.9C45.63 96.43 54.09 98.26 62.77 99.2C73.38 100.34 83.91 99.79 94.21 96.74C98.42 95.5 102.43 93.76 105.84 90.9C114.69 102.17 117.32 124.91 102.28 141.33Z" fill="#91C2E7" fill-opacity="1.000000" fill-rule="nonzero"/>
	<path id="path" d="M72.16 108.85C70.73 108.87 69.58 110.02 69.53 111.47C69.49 112.97 70.66 114.21 72.16 114.22C73.66 114.24 74.87 113.04 74.87 111.54C74.87 110.04 73.64 108.82 72.16 108.85Z" fill="#91C2E7" fill-opacity="1.000000" fill-rule="nonzero"/>
	<path id="path" d="M72.11 130.66C70.66 130.7 69.55 131.85 69.53 133.3C69.52 134.79 70.75 136.03 72.21 136.03C73.68 136.02 74.89 134.77 74.86 133.27C74.83 131.76 73.63 130.62 72.11 130.66Z" fill="#91C2E7" fill-opacity="1.000000" fill-rule="nonzero"/>
	<path id="path" d="M72.34 125.09C73.78 125.03 74.87 123.87 74.86 122.41C74.85 120.91 73.63 119.71 72.14 119.75C70.66 119.78 69.49 121.03 69.54 122.53C69.59 124.04 70.82 125.16 72.34 125.09Z" fill="#91C2E7" fill-opacity="1.000000" fill-rule="nonzero"/>
	<path id="path" d="M55.48 68.15C57.44 68.13 59.4 68.15 61.2 68.15C64.74 67.9 68.12 67.84 71.45 67.37C74.78 66.89 76.84 63.65 76.17 60.51C75.29 56.37 71.03 54.39 67.05 56.48C62.67 58.77 58.43 61.29 54.12 63.71C52.99 64.35 52.46 65.28 52.83 66.51C53.2 67.77 54.21 68.17 55.48 68.15ZM69.54 60.38C70.51 59.9 71.28 60.3 71.56 61.27C71.84 62.22 71.26 62.87 70.33 62.98C68.36 63.19 66.39 63.27 64.42 63.41C64.38 63.3 64.35 63.19 64.31 63.08C66.06 62.18 67.78 61.24 69.54 60.38Z" fill="#91C2E7" fill-opacity="1.000000" fill-rule="nonzero"/>
	<path id="path" d="M67.53 78.22C66.25 79.51 64.8 79.65 63.62 78.6C62.46 77.56 62.39 75.99 63.51 74.65C65.77 71.95 68.72 70.66 72.2 70.54C75.47 70.55 78.74 72.07 80.79 74.53C81.98 75.96 81.97 77.54 80.77 78.6C79.58 79.65 78.14 79.51 76.87 78.22C73.88 75.2 70.53 75.2 67.53 78.22Z" fill="#91C2E7" fill-opacity="1.000000" fill-rule="nonzero"/>
	<path id="path" d="M62.97 52.16C64.53 52.16 65.77 50.9 65.75 49.37C65.72 47.83 64.44 46.62 62.87 46.67C61.38 46.71 60.2 47.89 60.19 49.38C60.18 50.94 61.4 52.16 62.97 52.16Z" fill="#91C2E7" fill-opacity="1.000000" fill-rule="nonzero"/>
	<path id="path" d="M80.21 52.16C81.8 52.2 83.02 51.04 83.05 49.46C83.07 47.87 81.89 46.66 80.31 46.66C78.78 46.66 77.61 47.76 77.55 49.28C77.49 50.87 78.63 52.12 80.21 52.16Z" fill="#91C2E7" fill-opacity="1.000000" fill-rule="nonzero"/>
</svg>
