<?xml version="1.0" encoding="UTF-8"?>
<svg xmlns="http://www.w3.org/2000/svg" viewBox="0 0 462.04 189.47">
  <defs>
    <style>
      .cls-1 {
        fill: #fff;
      }

      .cls-2 {
        fill: #575756;
      }

      .cls-3 {
        isolation: isolate;
      }

      .cls-4 {
        fill: #da332a;
      }

      .cls-5 {
        mix-blend-mode: multiply;
        opacity: .5;
      }
    </style>
  </defs>
  <g class="cls-3">
    <g id="_Слой_2" data-name="Слой 2">
      <g id="_Текст" data-name="Текст">
        <g>
          <g class="cls-5">
            <path class="cls-2" d="m3,178.88c-.04-.87.71-2.23,2.25-4.08,1.54-1.85,3.36-3.78,5.44-5.8-3.56-2.54-5.14-7.01-4.73-13.4.35-4.8,1.99-8.55,4.92-11.25,2.93-2.67,6.34-4.55,10.21-5.64,3.89-1.09,7.84-1.48,11.84-1.17,4.02.3,7.26,1.02,9.72,2.15.67.33,1.2,2.84,1.57,7.53.37,4.67.62,9.81.75,15.42.13,5.63.12,10.85-.03,15.65-.15,4.85-.42,7.58-.82,8.18-.26.5-.82,2.09-1.32,2.22-.7.2-2.38.38-5.05.55-2.67.17-5.07.23-7.17.16-1.83-.07-2.92-.5-3.29-1.3-.37-.8-.42-3.25-.5-4.79-.2-.91-1.08-1.06-2.64-.46-1.61.7-3.71,2.01-6.29,3.95-2.57,1.96-4.56,2.84-6,2.64-.33.02-.96-.4-1.89-1.27-.93-.87-1.91-1.88-2.93-3.03-1.02-1.17-1.93-2.35-2.74-3.52-.8-1.2-1.23-2.11-1.27-2.74Zm18.03-21.94c.07,1.13.6,2.18,1.6,3.16.98.98,2.29,1.49,3.95,1.53,1.83.07,2.81-1.39,2.97-4.37.17-3-.64-4.53-2.45-4.6-2.17-.07-3.75.35-4.73,1.24-.96.89-1.4,1.9-1.34,3.03Z"/>
            <path class="cls-2" d="m91.91,162.12c-.76,4.83-2.96,8.86-6.59,12.1-3.63,3.24-7.97,4.63-13.01,4.17-.2,2.5-.43,4.61-.7,6.33-.27,1.72-.57,2.77-.9,3.16-.46.85-2.68,1.36-6.68,1.53-4,.17-6.83-.1-8.48-.82-.74-.33-1.4-2.51-1.97-6.54-.58-4.03-1.04-8.57-1.4-13.61-.36-5.04-.59-9.9-.7-14.56-.11-4.66-.09-7.79.07-9.37.15-1.48,1.41-2.61,3.77-3.39,2.36-.78,5.09-1.27,8.2-1.47,3.11-.2,6.24-.12,9.39.21,3.15.34,5.61.88,7.37,1.61,9.28,3.91,13.16,10.79,11.64,20.64Zm-14.02-3.91c-.5-2.35-2.09-3.66-4.76-3.95-.5-.02-.9-.01-1.21.03-2.09.37-3.03,1.86-2.84,4.47.2,2.61.89,4.3,2.09,5.09.52.37,1.32.46,2.38.26,1.59-.24,2.78-.92,3.57-2.04.79-1.12,1.05-2.41.77-3.86Z"/>
            <path class="cls-2" d="m127.97,157.13c2.15-3.2,4.23-6.25,6.24-9.16,2.01-2.91,3.79-5.11,5.33-6.59.67-.65,1.99-1.13,3.95-1.43,1.96-.3,3.99-.45,6.11-.42,2.12.02,4.04.18,5.77.49,1.73.3,2.72.73,2.98,1.27.41.96.74,3.78.98,8.46.24,4.68.36,9.74.36,15.18s-.13,10.47-.39,15.11c-.26,4.64-.68,7.39-1.27,8.23-.46.52-2.67.85-6.65.99-3.98.14-6.77.05-8.38-.28-.65-.13-1.25-2.01-1.79-5.64-.54-3.63-.91-7.3-1.11-11.02-.44.46-1.21,1.27-2.33,2.45-1.12,1.17-2.32,2.38-3.6,3.62-1.28,1.24-2.52,2.34-3.7,3.29-1.18.96-2.06,1.43-2.62,1.43s-1.42-.46-2.56-1.37c-1.14-.91-2.33-1.96-3.55-3.15-1.23-1.18-2.38-2.34-3.46-3.47-1.08-1.13-1.82-1.91-2.23-2.35-.26,3.48-.65,7-1.17,10.56-.52,3.57-1.09,5.45-1.7,5.64-.8.24-2,.38-3.59.42-1.59.04-3.2.03-4.83-.03-1.63-.07-3.09-.2-4.39-.41-1.29-.21-2.03-.44-2.2-.7-.59-.83-1.03-3.61-1.34-8.35-.3-4.74-.47-9.85-.49-15.34-.02-5.49.07-10.57.26-15.26.2-4.68.52-7.39.98-8.1.33-.52,1.36-.93,3.1-1.24,1.74-.3,3.65-.46,5.74-.47,2.09-.01,4.09.14,6.02.44,1.92.3,3.23.78,3.93,1.43,1.52,1.48,3.31,3.67,5.36,6.59,2.05,2.91,4.13,5.97,6.24,9.16Z"/>
            <path class="cls-2" d="m163.58,188.37c-.41-.43-.63-.97-.65-1.6-.04-2.11.33-5.28,1.11-9.52.78-4.24,1.76-8.65,2.93-13.22,1.17-4.58,2.42-8.86,3.73-12.86,1.31-4,2.46-6.81,3.44-8.44.39-.63,1.54-1.2,3.44-1.71,1.9-.51,4-.86,6.31-1.06,2.3-.2,4.52-.19,6.65.02,2.13.21,3.62.7,4.47,1.48,1.22,1.17,2.66,3.75,4.32,7.73s3.29,8.31,4.87,12.99c1.59,4.68,3.01,9.18,4.27,13.48,1.26,4.3,2.1,7.35,2.51,9.13.28,1.3.2,2.21-.26,2.72-.46.51-1.25.86-2.38,1.06-1.91.33-4.29.57-7.12.73-2.84.16-4.61.2-5.33.11-.28-.04-.54-.14-.78-.29-.78-.48-1.54-1.85-2.27-4.12-.73-2.27-1.44-3.83-2.14-4.68-.41-.5-.96-.79-1.63-.88l-5.35-.03c-1.67.04-2.76.6-3.26,1.66-.65,1.37-1.39,2.89-2.22,4.56-.83,1.67-1.43,2.71-1.83,3.1-.2.24-.49.4-.88.49-.89.2-2.99.24-6.31.15-3.32-.1-5.2-.43-5.66-.99Zm21.13-28.76c-.72.76-1.43,2.04-2.14,3.83-.71,1.79-.96,2.97-.77,3.54.33.96,1.73,1.39,4.22,1.29,2.49-.1,3.84-.7,4.06-1.81.13-.67-.52-2.21-1.96-4.61-1.43-2.4-2.58-3.15-3.42-2.23Z"/>
            <path class="cls-2" d="m253.73,162.12c-.76,4.83-2.96,8.86-6.59,12.1-3.63,3.24-7.97,4.63-13.01,4.17-.2,2.5-.43,4.61-.7,6.33-.27,1.72-.57,2.77-.9,3.16-.46.85-2.68,1.36-6.68,1.53-4,.17-6.83-.1-8.48-.82-.74-.33-1.4-2.51-1.97-6.54-.58-4.03-1.04-8.57-1.4-13.61-.36-5.04-.59-9.9-.7-14.56-.11-4.66-.09-7.79.07-9.37.15-1.48,1.41-2.61,3.77-3.39,2.36-.78,5.09-1.27,8.2-1.47,3.11-.2,6.24-.12,9.39.21,3.15.34,5.61.88,7.37,1.61,9.28,3.91,13.16,10.79,11.64,20.64Zm-14.02-3.91c-.5-2.35-2.09-3.66-4.76-3.95-.5-.02-.9-.01-1.21.03-2.09.37-3.03,1.86-2.84,4.47.2,2.61.89,4.3,2.09,5.09.52.37,1.32.46,2.38.26,1.59-.24,2.78-.92,3.57-2.04.79-1.12,1.05-2.41.77-3.86Z"/>
            <path class="cls-2" d="m301.17,151.75c.07.85-1,2.58-3.2,5.18-2.2,2.61-4.75,5.41-7.66,8.41,4.63,2.39,8.32,4.53,11.09,6.42.7.5.86,1.74.51,3.72-.36,1.98-.99,4.03-1.91,6.16-.91,2.13-1.98,4-3.21,5.61-1.23,1.61-2.35,2.31-3.37,2.12-1.11-.24-3.06-1.03-5.87-2.38-2.8-1.35-5.78-2.85-8.93-4.5-.39,2.93-.8,4.68-1.24,5.25-.5.87-2.78,1.41-6.83,1.63-4.05.22-6.91-.03-8.56-.75-.74-.33-1.39-2.57-1.94-6.73-.55-4.16-.99-8.84-1.3-14.04-.32-5.19-.51-10.19-.57-15-.07-4.8.01-8.02.23-9.65.17-1.02,1.35-1.82,3.54-2.4,2.18-.58,4.56-.92,7.12-1.03,2.56-.11,4.92.01,7.06.36,2.14.35,3.27.93,3.37,1.76.09.91.17,1.86.24,2.85.08.99.14,2.09.18,3.31,2.54-2.13,4.86-3.85,6.96-5.15,2.1-1.3,3.47-1.83,4.12-1.57,1.7.78,3.83,2.5,6.41,5.15,2.58,2.65,3.83,4.4,3.77,5.25Z"/>
            <path class="cls-2" d="m305.34,188.37c-.41-.43-.63-.97-.65-1.6-.04-2.11.33-5.28,1.11-9.52.78-4.24,1.76-8.65,2.93-13.22,1.17-4.58,2.42-8.86,3.73-12.86,1.31-4,2.46-6.81,3.44-8.44.39-.63,1.54-1.2,3.44-1.71,1.9-.51,4-.86,6.31-1.06,2.3-.2,4.52-.19,6.65.02,2.13.21,3.62.7,4.47,1.48,1.22,1.17,2.66,3.75,4.32,7.73,1.66,3.98,3.29,8.31,4.87,12.99,1.59,4.68,3.01,9.18,4.27,13.48,1.26,4.3,2.1,7.35,2.51,9.13.28,1.3.2,2.21-.26,2.72-.46.51-1.25.86-2.38,1.06-1.91.33-4.29.57-7.12.73-2.84.16-4.61.2-5.33.11-.28-.04-.54-.14-.78-.29-.78-.48-1.54-1.85-2.27-4.12-.73-2.27-1.44-3.83-2.14-4.68-.41-.5-.96-.79-1.63-.88l-5.35-.03c-1.67.04-2.76.6-3.26,1.66-.65,1.37-1.39,2.89-2.22,4.56-.83,1.67-1.43,2.71-1.83,3.1-.2.24-.49.4-.88.49-.89.2-2.99.24-6.31.15-3.32-.1-5.2-.43-5.66-.99Zm21.13-28.76c-.72.76-1.43,2.04-2.14,3.83-.71,1.79-.96,2.97-.77,3.54.33.96,1.73,1.39,4.22,1.29,2.49-.1,3.84-.7,4.06-1.81.13-.67-.52-2.21-1.96-4.61-1.43-2.4-2.58-3.15-3.42-2.23Z"/>
          </g>
          <g class="cls-5">
            <path class="cls-2" d="m3.89,66.23c-1.26-1.39-1.18-2.71.24-3.98,1.22-.98,2.27-1.71,3.12-2.2,9.26-5.55,18.47-9.94,27.61-13.16,1.35-.53,2.31-1.43,2.88-2.69.98-2.08,2.16-4.53,3.55-7.35l3.67-7.29,9.62-19.33c.41-.73,2.04-3.53,2.2-3.73.45-.65,1.08-.94,1.9-.86,2.16.24,3.86,1.37,5.08,3.37.2.37.26.76.18,1.16l-.12.61-.18.61c-.57,1.63-9.91,20.92-10.85,23.12l-1.29,2.76-1.22,2.82-.18.43-.18.37c-.16.41-.31.76-.43,1.04,1.92-.53,4.02-1.12,6.31-1.78,1.35-.37,3.35-.92,6-1.65,6.2-1.67,12.45-3.14,18.73-4.41,1.06-.24,1.86-.86,2.39-1.84,0,0,11.05-22.68,13.4-26.61.83-1.38,2.28-2.28,2.9-2.53.65-.24,1.57-.1,2.75.43,3.06,1.27,4.35,3.22,3.86,5.88-.21,1.02-6.99,16.18-7.48,17.57l-.73,1.9-.67,1.9c1.8-.29,3.9-.61,6.31-.98,5.31-.86,10.29-1.51,14.94-1.96,3.51-.37,6.24.2,8.2,1.71l.55.43c.2.16.37.33.49.49,1.51,1.55,1.24,2.69-.8,3.43-1.63.53-2.92.63-3.86.31-.16-.08-.41-.1-.73-.06l-.43.06-.37.06-13.47,2.88-13.47,2.82c-1.1.2-1.92.86-2.45,1.96-9.63,19.31-19.65,42.57-30.06,69.79-4.91,13.5-4.51,15.65-12.98,15.65-2.88,0-3.71-3.39-3.43-6.24.41-3.31,4.82-15.51,6.62-20l4.71-12.06c4.08-10.53,7.33-18.53,9.73-24,2.82-6.49,5.86-12.88,9.12-19.16l.37-.73.31-.67c-.21-.12-.43-.16-.67-.12l-.25.06-.31.06c-11.59,2.86-21.24,5.49-28.96,7.9-1.1.33-1.92,1.06-2.45,2.2-5.8,12.73-16.07,35.71-21.66,48.56-.98,2.16-2.12,4.29-3.43,6.37-.61.94-1.53,1.29-2.76,1.04-2.82-.73-4.37-2.98-4.65-6.73-.12-1.88,4.82-14.01,5.68-16.05.29-.73.71-1.61,1.29-2.63l.67-1.29.67-1.29,1.04-2.33,1.04-2.33c.41-.86.61-1.86.61-3-.04-1.31-.25-2.2-.61-2.69-.37-.49-1.2-.92-2.51-1.29-1.18-.33-2.69-.59-4.53-.8l-2.33-.24-2.27-.24c-2.33-.37-4.33-1.51-6-3.43Zm11.14-1.04c4.29,1.06,7.61,2.43,9.98,4.1.24.16.43.16.55,0l.18-.18.12-.31c1.71-3.63,3.45-7.22,5.2-10.78-5.47,1.8-10.82,4.18-16.04,7.16Z"/>
            <path class="cls-2" d="m120.79,73.76c-.59,2.08-1.32,3.84-2.17,5.27-3.31,5.35-8.49,10.67-15.55,15.98-3.67,2.73-7.55,2.82-11.63.24-1.71-1.06-3.1-2.43-4.16-4.1-1.1-1.71-1.63-3.43-1.59-5.14v-1.53c-.16-3.51,1.12-7.12,3.86-10.84,2.37-3.1,5.65-6.16,9.86-9.18l1.78-1.35,1.78-1.35c3.84-3.02,7.71-3.92,11.63-2.69,2.16.65,3.92,1.94,5.27,3.86,1.35,1.96,1.98,4.08,1.9,6.37-.04.9-.36,2.39-.95,4.47Zm-23.29,12.24l-.12.49-.12.55c-.08.49-.08.92,0,1.29,5.59-2.86,10.22-6.69,13.9-11.51l2.94-5.39s.02-.08.06-.12c1.02-2.69,1.35-5.2.98-7.53l-.06-.31-.06-.24c-.12-.2-.31-.33-.55-.37-.41,0-1.22.31-2.45.92-1.27.61-1.92,1.08-1.96,1.41-.16.86-.53,1.74-1.1,2.63l-.86,1.16-.8,1.1c-5.84,7.47-9.1,12.78-9.8,15.92Z"/>
            <path class="cls-2" d="m151.99,71.99c.49,2.78-.1,5.61-1.78,8.51-3.18,5.43-6.49,9.73-9.92,12.92l-.8.73-.8.67c-.61.53-1.18.94-1.71,1.22-1.35.78-2.75.94-4.22.49-4.2-1.26-6.96-3.71-8.26-7.35-1.39-4.04-.9-10.04,1.47-18,2.29-7.63,5.92-15.8,10.9-24.49,11.59-20.28,24.1-34,37.53-41.14,3.63-1.92,6.98-1.8,10.04.37,2.2,1.51,2.92,3.53,2.14,6.06-.61,1.92-1.57,4.04-2.88,6.37l-1.84,3-1.84,2.94c-4.9,8.08-10.69,14.37-17.39,18.86-3.59,2.41-7.47,4.49-11.63,6.24l-.31.12-.37.12c-.2.12-.37.27-.49.43-2.12,3.67-3.78,6.51-4.96,8.51-.57,1.06-1.14,2.02-1.71,2.88,2.49,1.76,3.94,2.82,4.35,3.18,2.53,2.12,4.02,4.57,4.47,7.35Zm-5.88-1.96c-.12-2.33-1.06-4.1-2.82-5.33-.86-.61-1.47-.47-1.84.43l-1.16,2.51-1.16,2.51c-.86,1.96-1.55,3.65-2.08,5.08-1.92,5.27-3,9.86-3.24,13.77l.43-.31.31-.18c.25-.16.43-.29.55-.37,2.78-2.29,5.71-5.61,8.82-9.98,1.59-2.24,2.33-4.96,2.2-8.14Zm20.75-45.67c-5.1,6-8.2,10.53-9.31,13.59,6.82-4.24,13.9-12.57,21.24-24.98-2.86,1.55-6.84,5.35-11.94,11.39Z"/>
            <path class="cls-2" d="m190.83,73.76c-.59,2.08-1.32,3.84-2.17,5.27-3.31,5.35-8.49,10.67-15.55,15.98-3.67,2.73-7.55,2.82-11.63.24-1.71-1.06-3.1-2.43-4.16-4.1-1.1-1.71-1.63-3.43-1.59-5.14v-1.53c-.16-3.51,1.12-7.12,3.86-10.84,2.37-3.1,5.65-6.16,9.86-9.18l1.78-1.35,1.78-1.35c3.84-3.02,7.71-3.92,11.63-2.69,2.16.65,3.92,1.94,5.27,3.86,1.35,1.96,1.98,4.08,1.9,6.37-.04.9-.36,2.39-.95,4.47Zm-23.29,12.24l-.12.49-.12.55c-.08.49-.08.92,0,1.29,5.59-2.86,10.22-6.69,13.9-11.51l2.94-5.39s.02-.08.06-.12c1.02-2.69,1.35-5.2.98-7.53l-.06-.31-.06-.24c-.12-.2-.31-.33-.55-.37-.41,0-1.22.31-2.45.92-1.27.61-1.92,1.08-1.96,1.41-.16.86-.53,1.74-1.1,2.63l-.86,1.16-.8,1.1c-5.84,7.47-9.1,12.78-9.8,15.92Z"/>
            <path class="cls-2" d="m209.96,72.08c.61-.67,1.59-2.13,2.94-4.38.73-1.22,1.31-2.45,1.71-3.67-1.1.78-2.23,1.63-3.37,2.57l-1.41,1.29-1.41,1.29-1.9,1.84-1.9,1.84c-1.39,1.39-2.55,2.67-3.49,3.86-.73.98-1.74,1.16-3,.55-1.47-.69-2.14-1.61-2.02-2.76.08-.94.53-1.96,1.35-3.06,3.18-4.69,6.96-8.65,11.33-11.88,2.49-1.88,5.16-2.49,8.02-1.84,2.86.61,4.94,2.27,6.24,4.96.73,1.51.87,3.44.4,5.79-.47,2.35-1.07,4.21-1.81,5.6l-1.29,2.51-1.41,2.51c-.98,1.92-1.76,3.67-2.33,5.27-.53,1.43-.92,2.96-1.16,4.59-.12.86.25,1.16,1.1.92,3.14-.82,6.02-2.35,8.63-4.59,1.35-1.14,2.92-2.51,4.71-4.1l4.65-4.1c3.02-2.65,5.51-4.55,7.47-5.69.73-.41,1.31-.61,1.71-.61.9-.04,1.65.33,2.27,1.1.25.33.26.63.06.92l-.25.43-.31.37c-.57.9-1.12,1.57-1.65,2.02-5.06,4.86-10.22,9.71-15.49,14.57-1.55,1.43-3.76,3-6.61,4.71-3.55,2.04-7,1.84-10.35-.61-3.96-2.9-5.94-6.33-5.94-10.29.04-3.06.86-6,2.45-8.82.73-1.39,1.41-2.42,2.02-3.09Z"/>
            <path class="cls-2" d="m269.93,73.76c-.59,2.08-1.32,3.84-2.17,5.27-3.31,5.35-8.49,10.67-15.55,15.98-3.67,2.73-7.55,2.82-11.63.24-1.71-1.06-3.1-2.43-4.16-4.1-1.1-1.71-1.63-3.43-1.59-5.14v-1.53c-.16-3.51,1.12-7.12,3.86-10.84,2.37-3.1,5.65-6.16,9.86-9.18l1.78-1.35,1.78-1.35c3.84-3.02,7.71-3.92,11.63-2.69,2.16.65,3.92,1.94,5.27,3.86,1.35,1.96,1.98,4.08,1.9,6.37-.04.9-.36,2.39-.95,4.47Zm-23.29,12.24l-.12.49-.12.55c-.08.49-.08.92,0,1.29,5.59-2.86,10.22-6.69,13.9-11.51l2.94-5.39s.02-.08.06-.12c1.02-2.69,1.35-5.2.98-7.53l-.06-.31-.06-.24c-.12-.2-.31-.33-.55-.37-.41,0-1.22.31-2.45.92-1.27.61-1.92,1.08-1.96,1.41-.16.86-.53,1.74-1.1,2.63l-.86,1.16-.8,1.1c-5.84,7.47-9.1,12.78-9.8,15.92Z"/>
            <path class="cls-2" d="m249.63,139.7c4.74-2.08,9.88-5.47,15.43-10.16,13.1-11.1,21.67-22.75,25.71-34.96l-1.1.73-1.04.67c-.82.57-1.53,1.02-2.14,1.35-2.2,1.22-4.53,1.47-6.98.73-2.45-.73-4.61-2.06-6.49-3.98-2.53-2.73-3.28-5.63-2.27-8.69,3.22-10.08,8.1-18.71,14.63-25.9.37-.41.84-.84,1.41-1.29l1.53-1.16c5.06-3.55,9.94-3.31,14.63.73,1.59,1.35,3.06,3.61,4.41,6.8,1.55-2.53,3.45-4.75,5.69-6.67l1.04-.98,1.04-.92c.82-.69,1.57-1.26,2.27-1.71,2.16-1.39,4.29-1.35,6.37.12.94.61,1.2,1.41.8,2.39l-.31.73-.37.8c-2.08,3.63-4.53,8.37-7.35,14.2l-3.43,7.22c-1.39,2.86-2.57,5.27-3.55,7.22-9.51,18.94-18.96,33.2-28.35,42.79-13.31,13.59-27.04,18.71-41.2,15.37-1.1-.29-2.27-.9-3.49-1.84l-1.53-1.22c-.61-.53-1.12-.94-1.53-1.22-.16-.12-.26-.24-.31-.37-.08-.2-.08-.39,0-.55.16-.37.49-.55.98-.55,2,0,3.57.41,4.71,1.22,2.2,1.55,5.8,1.24,10.77-.92Zm44.32-58.04c1.06-1.1,2.39-2.55,3.98-4.35l3.98-4.35c.37-.37.37-.69,0-.98-.61-.45-1.08-1.06-1.41-1.84-.12-.29-.22-.63-.31-1.04l-.25-1.16-.18-1.22-.06-1.29c-.08-1.02-.22-1.84-.43-2.45-2.57,1.8-5.96,6.16-10.16,13.1-4.25,6.9-6.59,11.9-7.04,15,.37-.08.61-.16.73-.24.73-.41,1.51-.88,2.33-1.41,2.78-1.96,5.71-4.55,8.82-7.78Z"/>
            <path class="cls-2" d="m347.31,69.38c1.41-1.78,3.54-4.13,6.4-7.07,1.22-1.26,2.65-1.78,4.29-1.53,1.55.24,2.78,1.16,3.67,2.76.45.69.47,1.67.06,2.94-.41,1.18-.98,2.47-1.71,3.86l-1.04,1.9-1.04,1.84-1.41,2.51-1.41,2.51c-.98,1.92-1.76,3.67-2.33,5.27-.53,1.43-.92,2.96-1.16,4.59-.12.86.24,1.16,1.1.92,3.14-.82,6.02-2.35,8.63-4.59,1.35-1.14,2.92-2.51,4.71-4.1l4.65-4.1c3.02-2.65,5.51-4.55,7.47-5.69.73-.41,1.31-.61,1.71-.61.9-.04,1.65.33,2.27,1.1.25.33.27.63.06.92l-.24.43-.31.37c-.57.9-1.12,1.57-1.65,2.02-5.06,4.86-10.22,9.71-15.49,14.57-1.55,1.43-3.76,3-6.61,4.71-3.55,2.04-7,1.84-10.35-.61-3.96-2.9-5.94-6.33-5.94-10.29,0-.94.08-1.86.25-2.76-1.76-.29-3.47-.8-5.14-1.53-1.1-.45-2.1-.24-3,.61-1.59,1.43-3.06,2.9-4.41,4.41-.33.98-.69,2.06-1.1,3.24-1.35,4.04-2.71,5.84-4.1,5.39-3.14-.98-4.78-3.1-4.9-6.37-.12-2.9.41-6.06,1.59-9.49,1.75-5.27,4.41-9.77,7.96-13.53.9-.9,1.98-1.14,3.24-.73.73.2,1.53.63,2.39,1.29,1.1.82,1.75,1.57,1.96,2.27.2.73.04,1.69-.49,2.88-.41.94-1.12,2.51-2.14,4.71.37.08.77.18,1.22.31l1.29.49,1.35.43c1.06.24,2.12.06,3.18-.55l1.47-.98,1.47-1.04c.98-.65,2.17-1.87,3.58-3.64Z"/>
            <path class="cls-2" d="m391.24,75.72c-.65-.16-1.31-.47-1.96-.92-1.02-.65-1.84-1.47-2.45-2.45-.61-1.02-.9-2.04-.86-3.06v-.86c-.08-2.04.69-4.1,2.33-6.18,1.39-1.75,3.33-3.49,5.82-5.2l1.04-.73,1.04-.73c2.24-1.67,4.51-2.12,6.8-1.35,1.26.41,2.29,1.18,3.06,2.33.77,1.14,1.12,2.39,1.04,3.73,0,.16-.04.39-.12.67.24-.12.47-.2.67-.24.61-.12,1.41.1,2.39.67,2.29,1.31,3.2,3.16,2.75,5.57-.24,1.47-.76,3.1-1.53,4.9l-1.1,2.33-1.1,2.33-1.22,2.45-1.1,2.45c-.86,1.88-1.53,3.61-2.02,5.2.49-.33.98-.75,1.47-1.29l.61-.73.61-.67c2.86-3.51,5.43-6.28,7.71-8.33,1.26-1.1,2.53-1.1,3.8,0,.9.73,1.06,1.53.49,2.39-4.41,6.69-8.16,11.35-11.26,13.96-1.18.98-2.12,1.61-2.82,1.9-1.14.41-2.29.33-3.43-.24-3.18-1.51-4.96-3.73-5.33-6.67-.16-1.63,0-3.51.49-5.63.25-.94.63-2.04,1.16-3.31l.61-1.65.67-1.65.18-.31.18-.37c.12-.24.14-.49.06-.73-.24,0-.47.1-.67.31l-.25.24-.25.24c-1.92,1.92-4.14,4.35-6.67,7.29-4.65,5.1-7.55,8.16-8.69,9.18l-.92.86.06-.18c-.25.2-.43.33-.55.37-.2.08-.39.14-.55.18-1.55.49-3.1.39-4.65-.31-2.49-1.02-3.98-3-4.47-5.94-.57-3.63,1.18-8.33,5.26-14.08.94-1.22,2.16-1.53,3.67-.92.69.24,1.49.69,2.39,1.35.98.82,1.57,1.57,1.78,2.27.16.69-.4,2.08-1.68,4.16s-2.46,4.98-3.52,8.69c2.45-2.49,4.37-4.35,5.75-5.57l1.41-1.53,2.14-2.27c.53-.61,1.1-1.24,1.71-1.9Zm-.31-6.24v.24l-.06.31c-.04.24,0,.45.12.61,3.75-1.18,6.75-2.92,9-5.2l1.65-2.57s.02-.06.06-.06c.49-1.35.51-2.61.06-3.8l-.06-.18-.06-.12c-.12-.08-.27-.14-.43-.18-.29,0-.86.12-1.71.37-.86.24-1.29.45-1.29.61-.04.45-.22.88-.55,1.29l-.55.55-.43.55c-3.59,3.51-5.51,6.04-5.76,7.59Z"/>
            <path class="cls-2" d="m433.54,75.72c-.65-.16-1.31-.47-1.96-.92-1.02-.65-1.84-1.47-2.45-2.45-.61-1.02-.9-2.04-.86-3.06v-.86c-.08-2.04.69-4.1,2.33-6.18,1.39-1.75,3.33-3.49,5.82-5.2l1.04-.73,1.04-.73c2.24-1.67,4.51-2.12,6.8-1.35,1.26.41,2.29,1.18,3.06,2.33.77,1.14,1.12,2.39,1.04,3.73,0,.16-.04.39-.12.67.24-.12.47-.2.67-.24.61-.12,1.41.1,2.39.67,2.29,1.31,3.2,3.16,2.75,5.57-.24,1.47-.76,3.1-1.53,4.9l-1.1,2.33-1.1,2.33-1.22,2.45-1.1,2.45c-.86,1.88-1.53,3.61-2.02,5.2.49-.33.98-.75,1.47-1.29l.61-.73.61-.67c2.86-3.51,5.43-6.28,7.71-8.33,1.26-1.1,2.53-1.1,3.8,0,.9.73,1.06,1.53.49,2.39-4.41,6.69-8.16,11.35-11.26,13.96-1.18.98-2.12,1.61-2.82,1.9-1.14.41-2.29.33-3.43-.24-3.18-1.51-4.96-3.73-5.33-6.67-.16-1.63,0-3.51.49-5.63.25-.94.63-2.04,1.16-3.31l.61-1.65.67-1.65.18-.31.18-.37c.12-.24.14-.49.06-.73-.24,0-.47.1-.67.31l-.25.24-.25.24c-1.92,1.92-4.14,4.35-6.67,7.29-4.65,5.1-7.55,8.16-8.69,9.18l-.92.86.06-.18c-.25.2-.43.33-.55.37-.2.08-.39.14-.55.18-1.55.49-3.1.39-4.65-.31-2.49-1.02-3.98-3-4.47-5.94-.57-3.63,1.18-8.33,5.26-14.08.94-1.22,2.16-1.53,3.67-.92.69.24,1.49.69,2.39,1.35.98.82,1.57,1.57,1.78,2.27.16.69-.4,2.08-1.68,4.16s-2.46,4.98-3.52,8.69c2.45-2.49,4.37-4.35,5.75-5.57l1.41-1.53,2.14-2.27c.53-.61,1.1-1.24,1.71-1.9Zm-.31-6.24v.24l-.06.31c-.04.24,0,.45.12.61,3.75-1.18,6.75-2.92,9-5.2l1.65-2.57s.02-.06.06-.06c.49-1.35.51-2.61.06-3.8l-.06-.18-.06-.12c-.12-.08-.27-.14-.43-.18-.29,0-.86.12-1.71.37-.86.24-1.29.45-1.29.61-.04.45-.22.88-.55,1.29l-.55.55-.43.55c-3.59,3.51-5.51,6.04-5.76,7.59Z"/>
          </g>
          <g>
            <path class="cls-4" d="m0,175.88c-.04-.87.71-2.23,2.25-4.08,1.54-1.85,3.36-3.78,5.44-5.8-3.56-2.54-5.14-7.01-4.73-13.4.35-4.8,1.99-8.55,4.92-11.25,2.93-2.67,6.34-4.55,10.21-5.64,3.89-1.09,7.84-1.48,11.84-1.17,4.02.3,7.26,1.02,9.72,2.15.67.33,1.2,2.84,1.57,7.53.37,4.67.62,9.81.75,15.42.13,5.63.12,10.85-.03,15.65-.15,4.85-.42,7.58-.82,8.18-.26.5-.82,2.09-1.32,2.22-.7.2-2.38.38-5.05.55-2.67.17-5.07.23-7.17.16-1.83-.07-2.92-.5-3.29-1.3-.37-.8-.42-3.25-.5-4.79-.2-.91-1.08-1.06-2.64-.46-1.61.7-3.71,2.01-6.29,3.95-2.57,1.96-4.56,2.84-6,2.64-.33.02-.96-.4-1.89-1.27-.93-.87-1.91-1.88-2.93-3.03-1.02-1.17-1.93-2.35-2.74-3.52-.8-1.2-1.23-2.11-1.27-2.74Zm18.03-21.94c.07,1.13.6,2.18,1.6,3.16.98.98,2.29,1.49,3.95,1.53,1.83.07,2.81-1.39,2.97-4.37.17-3-.64-4.53-2.45-4.6-2.17-.07-3.75.35-4.73,1.24-.96.89-1.4,1.9-1.34,3.03Z"/>
            <path class="cls-4" d="m88.91,159.12c-.76,4.83-2.96,8.86-6.59,12.1-3.63,3.24-7.97,4.63-13.01,4.17-.2,2.5-.43,4.61-.7,6.33-.27,1.72-.57,2.77-.9,3.16-.46.85-2.68,1.36-6.68,1.53-4,.17-6.83-.1-8.48-.82-.74-.33-1.4-2.51-1.97-6.54-.58-4.03-1.04-8.57-1.4-13.61-.36-5.04-.59-9.9-.7-14.56-.11-4.66-.09-7.79.07-9.37.15-1.48,1.41-2.61,3.77-3.39,2.36-.78,5.09-1.27,8.2-1.47,3.11-.2,6.24-.12,9.39.21,3.15.34,5.61.88,7.37,1.61,9.28,3.91,13.16,10.79,11.64,20.64Zm-14.02-3.91c-.5-2.35-2.09-3.66-4.76-3.95-.5-.02-.9-.01-1.21.03-2.09.37-3.03,1.86-2.84,4.47.2,2.61.89,4.3,2.09,5.09.52.37,1.32.46,2.38.26,1.59-.24,2.78-.92,3.57-2.04.79-1.12,1.05-2.41.77-3.86Z"/>
            <path class="cls-4" d="m124.97,154.13c2.15-3.2,4.23-6.25,6.24-9.16,2.01-2.91,3.79-5.11,5.33-6.59.67-.65,1.99-1.13,3.95-1.43,1.96-.3,3.99-.45,6.11-.42,2.12.02,4.04.18,5.77.49,1.73.3,2.72.73,2.98,1.27.41.96.74,3.78.98,8.46.24,4.68.36,9.74.36,15.18s-.13,10.47-.39,15.11c-.26,4.64-.68,7.39-1.27,8.23-.46.52-2.67.85-6.65.99-3.98.14-6.77.05-8.38-.28-.65-.13-1.25-2.01-1.79-5.64-.54-3.63-.91-7.3-1.11-11.02-.44.46-1.21,1.27-2.33,2.45-1.12,1.17-2.32,2.38-3.6,3.62-1.28,1.24-2.52,2.34-3.7,3.29-1.18.96-2.06,1.43-2.62,1.43s-1.42-.46-2.56-1.37c-1.14-.91-2.33-1.96-3.55-3.15-1.23-1.18-2.38-2.34-3.46-3.47-1.08-1.13-1.82-1.91-2.23-2.35-.26,3.48-.65,7-1.17,10.56-.52,3.57-1.09,5.45-1.7,5.64-.8.24-2,.38-3.59.42-1.59.04-3.2.03-4.83-.03-1.63-.07-3.09-.2-4.39-.41-1.29-.21-2.03-.44-2.2-.7-.59-.83-1.03-3.61-1.34-8.35-.3-4.74-.47-9.85-.49-15.34-.02-5.49.07-10.57.26-15.26.2-4.68.52-7.39.98-8.1.33-.52,1.36-.93,3.1-1.24,1.74-.3,3.65-.46,5.74-.47,2.09-.01,4.09.14,6.02.44,1.92.3,3.23.78,3.93,1.43,1.52,1.48,3.31,3.67,5.36,6.59,2.05,2.91,4.13,5.97,6.24,9.16Z"/>
            <path class="cls-4" d="m160.58,185.37c-.41-.43-.63-.97-.65-1.6-.04-2.11.33-5.28,1.11-9.52.78-4.24,1.76-8.65,2.93-13.22,1.17-4.58,2.42-8.86,3.73-12.86,1.31-4,2.46-6.81,3.44-8.44.39-.63,1.54-1.2,3.44-1.71,1.9-.51,4-.86,6.31-1.06,2.3-.2,4.52-.19,6.65.02,2.13.21,3.62.7,4.47,1.48,1.22,1.17,2.66,3.75,4.32,7.73s3.29,8.31,4.87,12.99c1.59,4.68,3.01,9.18,4.27,13.48,1.26,4.3,2.1,7.35,2.51,9.13.28,1.3.2,2.21-.26,2.72-.46.51-1.25.86-2.38,1.06-1.91.33-4.29.57-7.12.73-2.84.16-4.61.2-5.33.11-.28-.04-.54-.14-.78-.29-.78-.48-1.54-1.85-2.27-4.12-.73-2.27-1.44-3.83-2.14-4.68-.41-.5-.96-.79-1.63-.88l-5.35-.03c-1.67.04-2.76.6-3.26,1.66-.65,1.37-1.39,2.89-2.22,4.56-.83,1.67-1.43,2.71-1.83,3.1-.2.24-.49.4-.88.49-.89.2-2.99.24-6.31.15-3.32-.1-5.2-.43-5.66-.99Zm21.13-28.76c-.72.76-1.43,2.04-2.14,3.83-.71,1.79-.96,2.97-.77,3.54.33.96,1.73,1.39,4.22,1.29,2.49-.1,3.84-.7,4.06-1.81.13-.67-.52-2.21-1.96-4.61-1.43-2.4-2.58-3.15-3.42-2.23Z"/>
            <path class="cls-4" d="m250.73,159.12c-.76,4.83-2.96,8.86-6.59,12.1-3.63,3.24-7.97,4.63-13.01,4.17-.2,2.5-.43,4.61-.7,6.33-.27,1.72-.57,2.77-.9,3.16-.46.85-2.68,1.36-6.68,1.53-4,.17-6.83-.1-8.48-.82-.74-.33-1.4-2.51-1.97-6.54-.58-4.03-1.04-8.57-1.4-13.61-.36-5.04-.59-9.9-.7-14.56-.11-4.66-.09-7.79.07-9.37.15-1.48,1.41-2.61,3.77-3.39,2.36-.78,5.09-1.27,8.2-1.47,3.11-.2,6.24-.12,9.39.21,3.15.34,5.61.88,7.37,1.61,9.28,3.91,13.16,10.79,11.64,20.64Zm-14.02-3.91c-.5-2.35-2.09-3.66-4.76-3.95-.5-.02-.9-.01-1.21.03-2.09.37-3.03,1.86-2.84,4.47.2,2.61.89,4.3,2.09,5.09.52.37,1.32.46,2.38.26,1.59-.24,2.78-.92,3.57-2.04.79-1.12,1.05-2.41.77-3.86Z"/>
            <path class="cls-4" d="m298.17,148.75c.07.85-1,2.58-3.2,5.18-2.2,2.61-4.75,5.41-7.66,8.41,4.63,2.39,8.32,4.53,11.09,6.42.7.5.86,1.74.51,3.72-.36,1.98-.99,4.03-1.91,6.16-.91,2.13-1.98,4-3.21,5.61-1.23,1.61-2.35,2.31-3.37,2.12-1.11-.24-3.06-1.03-5.87-2.38-2.8-1.35-5.78-2.85-8.93-4.5-.39,2.93-.8,4.68-1.24,5.25-.5.87-2.78,1.41-6.83,1.63-4.05.22-6.91-.03-8.56-.75-.74-.33-1.39-2.57-1.94-6.73-.55-4.16-.99-8.84-1.3-14.04-.32-5.19-.51-10.19-.57-15-.07-4.8.01-8.02.23-9.65.17-1.02,1.35-1.82,3.54-2.4,2.18-.58,4.56-.92,7.12-1.03,2.56-.11,4.92.01,7.06.36,2.14.35,3.27.93,3.37,1.76.09.91.17,1.86.24,2.85.08.99.14,2.09.18,3.31,2.54-2.13,4.86-3.85,6.96-5.15,2.1-1.3,3.47-1.83,4.12-1.57,1.7.78,3.83,2.5,6.41,5.15,2.58,2.65,3.83,4.4,3.77,5.25Z"/>
            <path class="cls-4" d="m302.34,185.37c-.41-.43-.63-.97-.65-1.6-.04-2.11.33-5.28,1.11-9.52.78-4.24,1.76-8.65,2.93-13.22,1.17-4.58,2.42-8.86,3.73-12.86,1.31-4,2.46-6.81,3.44-8.44.39-.63,1.54-1.2,3.44-1.71,1.9-.51,4-.86,6.31-1.06,2.3-.2,4.52-.19,6.65.02,2.13.21,3.62.7,4.47,1.48,1.22,1.17,2.66,3.75,4.32,7.73,1.66,3.98,3.29,8.31,4.87,12.99,1.59,4.68,3.01,9.18,4.27,13.48,1.26,4.3,2.1,7.35,2.51,9.13.28,1.3.2,2.21-.26,2.72-.46.51-1.25.86-2.38,1.06-1.91.33-4.29.57-7.12.73-2.84.16-4.61.2-5.33.11-.28-.04-.54-.14-.78-.29-.78-.48-1.54-1.85-2.27-4.12-.73-2.27-1.44-3.83-2.14-4.68-.41-.5-.96-.79-1.63-.88l-5.35-.03c-1.67.04-2.76.6-3.26,1.66-.65,1.37-1.39,2.89-2.22,4.56-.83,1.67-1.43,2.71-1.83,3.1-.2.24-.49.4-.88.49-.89.2-2.99.24-6.31.15-3.32-.1-5.2-.43-5.66-.99Zm21.13-28.76c-.72.76-1.43,2.04-2.14,3.83-.71,1.79-.96,2.97-.77,3.54.33.96,1.73,1.39,4.22,1.29,2.49-.1,3.84-.7,4.06-1.81.13-.67-.52-2.21-1.96-4.61-1.43-2.4-2.58-3.15-3.42-2.23Z"/>
          </g>
          <g>
            <path class="cls-1" d="m.89,63.23c-1.26-1.39-1.18-2.71.24-3.98,1.22-.98,2.27-1.71,3.12-2.2,9.26-5.55,18.47-9.94,27.61-13.16,1.35-.53,2.31-1.43,2.88-2.69.98-2.08,2.16-4.53,3.55-7.35l3.67-7.29,9.62-19.33c.41-.73,2.04-3.53,2.2-3.73.45-.65,1.08-.94,1.9-.86,2.16.24,3.86,1.37,5.08,3.37.2.37.26.76.18,1.16l-.12.61-.18.61c-.57,1.63-9.91,20.92-10.85,23.12l-1.29,2.76-1.22,2.82-.18.43-.18.37c-.16.41-.31.76-.43,1.04,1.92-.53,4.02-1.12,6.31-1.78,1.35-.37,3.35-.92,6-1.65,6.2-1.67,12.45-3.14,18.73-4.41,1.06-.24,1.86-.86,2.39-1.84,0,0,11.05-22.68,13.4-26.61.83-1.38,2.28-2.28,2.9-2.53.65-.24,1.57-.1,2.75.43,3.06,1.27,4.35,3.22,3.86,5.88-.21,1.02-6.99,16.18-7.48,17.57l-.73,1.9-.67,1.9c1.8-.29,3.9-.61,6.31-.98,5.31-.86,10.29-1.51,14.94-1.96,3.51-.37,6.24.2,8.2,1.71l.55.43c.2.16.37.33.49.49,1.51,1.55,1.24,2.69-.8,3.43-1.63.53-2.92.63-3.86.31-.16-.08-.41-.1-.73-.06l-.43.06-.37.06-13.47,2.88-13.47,2.82c-1.1.2-1.92.86-2.45,1.96-9.63,19.31-19.65,42.57-30.06,69.79-4.91,13.5-4.51,15.65-12.98,15.65-2.88,0-3.71-3.39-3.43-6.24.41-3.31,4.82-15.51,6.62-20l4.71-12.06c4.08-10.53,7.33-18.53,9.73-24,2.82-6.49,5.86-12.88,9.12-19.16l.37-.73.31-.67c-.21-.12-.43-.16-.67-.12l-.25.06-.31.06c-11.59,2.86-21.24,5.49-28.96,7.9-1.1.33-1.92,1.06-2.45,2.2-5.8,12.73-16.07,35.71-21.66,48.56-.98,2.16-2.12,4.29-3.43,6.37-.61.94-1.53,1.29-2.76,1.04-2.82-.73-4.37-2.98-4.65-6.73-.12-1.88,4.82-14.01,5.68-16.05.29-.73.71-1.61,1.29-2.63l.67-1.29.67-1.29,1.04-2.33,1.04-2.33c.41-.86.61-1.86.61-3-.04-1.31-.25-2.2-.61-2.69-.37-.49-1.2-.92-2.51-1.29-1.18-.33-2.69-.59-4.53-.8l-2.33-.24-2.27-.24c-2.33-.37-4.33-1.51-6-3.43Zm11.14-1.04c4.29,1.06,7.61,2.43,9.98,4.1.24.16.43.16.55,0l.18-.18.12-.31c1.71-3.63,3.45-7.22,5.2-10.78-5.47,1.8-10.82,4.18-16.04,7.16Z"/>
            <path class="cls-1" d="m117.79,70.76c-.59,2.08-1.32,3.84-2.17,5.27-3.31,5.35-8.49,10.67-15.55,15.98-3.67,2.73-7.55,2.82-11.63.24-1.71-1.06-3.1-2.43-4.16-4.1-1.1-1.71-1.63-3.43-1.59-5.14v-1.53c-.16-3.51,1.12-7.12,3.86-10.84,2.37-3.1,5.65-6.16,9.86-9.18l1.78-1.35,1.78-1.35c3.84-3.02,7.71-3.92,11.63-2.69,2.16.65,3.92,1.94,5.27,3.86,1.35,1.96,1.98,4.08,1.9,6.37-.04.9-.36,2.39-.95,4.47Zm-23.29,12.24l-.12.49-.12.55c-.08.49-.08.92,0,1.29,5.59-2.86,10.22-6.69,13.9-11.51l2.94-5.39s.02-.08.06-.12c1.02-2.69,1.35-5.2.98-7.53l-.06-.31-.06-.24c-.12-.2-.31-.33-.55-.37-.41,0-1.22.31-2.45.92-1.27.61-1.92,1.08-1.96,1.41-.16.86-.53,1.74-1.1,2.63l-.86,1.16-.8,1.1c-5.84,7.47-9.1,12.78-9.8,15.92Z"/>
            <path class="cls-1" d="m148.99,68.99c.49,2.78-.1,5.61-1.78,8.51-3.18,5.43-6.49,9.73-9.92,12.92l-.8.73-.8.67c-.61.53-1.18.94-1.71,1.22-1.35.78-2.75.94-4.22.49-4.2-1.26-6.96-3.71-8.26-7.35-1.39-4.04-.9-10.04,1.47-18,2.29-7.63,5.92-15.8,10.9-24.49,11.59-20.28,24.1-34,37.53-41.14,3.63-1.92,6.98-1.8,10.04.37,2.2,1.51,2.92,3.53,2.14,6.06-.61,1.92-1.57,4.04-2.88,6.37l-1.84,3-1.84,2.94c-4.9,8.08-10.69,14.37-17.39,18.86-3.59,2.41-7.47,4.49-11.63,6.24l-.31.12-.37.12c-.2.12-.37.27-.49.43-2.12,3.67-3.78,6.51-4.96,8.51-.57,1.06-1.14,2.02-1.71,2.88,2.49,1.76,3.94,2.82,4.35,3.18,2.53,2.12,4.02,4.57,4.47,7.35Zm-5.88-1.96c-.12-2.33-1.06-4.1-2.82-5.33-.86-.61-1.47-.47-1.84.43l-1.16,2.51-1.16,2.51c-.86,1.96-1.55,3.65-2.08,5.08-1.92,5.27-3,9.86-3.24,13.77l.43-.31.31-.18c.25-.16.43-.29.55-.37,2.78-2.29,5.71-5.61,8.82-9.98,1.59-2.24,2.33-4.96,2.2-8.14Zm20.75-45.67c-5.1,6-8.2,10.53-9.31,13.59,6.82-4.24,13.9-12.57,21.24-24.98-2.86,1.55-6.84,5.35-11.94,11.39Z"/>
            <path class="cls-1" d="m187.83,70.76c-.59,2.08-1.32,3.84-2.17,5.27-3.31,5.35-8.49,10.67-15.55,15.98-3.67,2.73-7.55,2.82-11.63.24-1.71-1.06-3.1-2.43-4.16-4.1-1.1-1.71-1.63-3.43-1.59-5.14v-1.53c-.16-3.51,1.12-7.12,3.86-10.84,2.37-3.1,5.65-6.16,9.86-9.18l1.78-1.35,1.78-1.35c3.84-3.02,7.71-3.92,11.63-2.69,2.16.65,3.92,1.94,5.27,3.86,1.35,1.96,1.98,4.08,1.9,6.37-.04.9-.36,2.39-.95,4.47Zm-23.29,12.24l-.12.49-.12.55c-.08.49-.08.92,0,1.29,5.59-2.86,10.22-6.69,13.9-11.51l2.94-5.39s.02-.08.06-.12c1.02-2.69,1.35-5.2.98-7.53l-.06-.31-.06-.24c-.12-.2-.31-.33-.55-.37-.41,0-1.22.31-2.45.92-1.27.61-1.92,1.08-1.96,1.41-.16.86-.53,1.74-1.1,2.63l-.86,1.16-.8,1.1c-5.84,7.47-9.1,12.78-9.8,15.92Z"/>
            <path class="cls-1" d="m206.96,69.08c.61-.67,1.59-2.13,2.94-4.38.73-1.22,1.31-2.45,1.71-3.67-1.1.78-2.23,1.63-3.37,2.57l-1.41,1.29-1.41,1.29-1.9,1.84-1.9,1.84c-1.39,1.39-2.55,2.67-3.49,3.86-.73.98-1.74,1.16-3,.55-1.47-.69-2.14-1.61-2.02-2.76.08-.94.53-1.96,1.35-3.06,3.18-4.69,6.96-8.65,11.33-11.88,2.49-1.88,5.16-2.49,8.02-1.84,2.86.61,4.94,2.27,6.24,4.96.73,1.51.87,3.44.4,5.79-.47,2.35-1.07,4.21-1.81,5.6l-1.29,2.51-1.41,2.51c-.98,1.92-1.76,3.67-2.33,5.27-.53,1.43-.92,2.96-1.16,4.59-.12.86.25,1.16,1.1.92,3.14-.82,6.02-2.35,8.63-4.59,1.35-1.14,2.92-2.51,4.71-4.1l4.65-4.1c3.02-2.65,5.51-4.55,7.47-5.69.73-.41,1.31-.61,1.71-.61.9-.04,1.65.33,2.27,1.1.25.33.26.63.06.92l-.25.43-.31.37c-.57.9-1.12,1.57-1.65,2.02-5.06,4.86-10.22,9.71-15.49,14.57-1.55,1.43-3.76,3-6.61,4.71-3.55,2.04-7,1.84-10.35-.61-3.96-2.9-5.94-6.33-5.94-10.29.04-3.06.86-6,2.45-8.82.73-1.39,1.41-2.42,2.02-3.09Z"/>
            <path class="cls-1" d="m266.93,70.76c-.59,2.08-1.32,3.84-2.17,5.27-3.31,5.35-8.49,10.67-15.55,15.98-3.67,2.73-7.55,2.82-11.63.24-1.71-1.06-3.1-2.43-4.16-4.1-1.1-1.71-1.63-3.43-1.59-5.14v-1.53c-.16-3.51,1.12-7.12,3.86-10.84,2.37-3.1,5.65-6.16,9.86-9.18l1.78-1.35,1.78-1.35c3.84-3.02,7.71-3.92,11.63-2.69,2.16.65,3.92,1.94,5.27,3.86,1.35,1.96,1.98,4.08,1.9,6.37-.04.9-.36,2.39-.95,4.47Zm-23.29,12.24l-.12.49-.12.55c-.08.49-.08.92,0,1.29,5.59-2.86,10.22-6.69,13.9-11.51l2.94-5.39s.02-.08.06-.12c1.02-2.69,1.35-5.2.98-7.53l-.06-.31-.06-.24c-.12-.2-.31-.33-.55-.37-.41,0-1.22.31-2.45.92-1.27.61-1.92,1.08-1.96,1.41-.16.86-.53,1.74-1.1,2.63l-.86,1.16-.8,1.1c-5.84,7.47-9.1,12.78-9.8,15.92Z"/>
            <path class="cls-1" d="m246.63,136.7c4.74-2.08,9.88-5.47,15.43-10.16,13.1-11.1,21.67-22.75,25.71-34.96l-1.1.73-1.04.67c-.82.57-1.53,1.02-2.14,1.35-2.2,1.22-4.53,1.47-6.98.73-2.45-.73-4.61-2.06-6.49-3.98-2.53-2.73-3.28-5.63-2.27-8.69,3.22-10.08,8.1-18.71,14.63-25.9.37-.41.84-.84,1.41-1.29l1.53-1.16c5.06-3.55,9.94-3.31,14.63.73,1.59,1.35,3.06,3.61,4.41,6.8,1.55-2.53,3.45-4.75,5.69-6.67l1.04-.98,1.04-.92c.82-.69,1.57-1.26,2.27-1.71,2.16-1.39,4.29-1.35,6.37.12.94.61,1.2,1.41.8,2.39l-.31.73-.37.8c-2.08,3.63-4.53,8.37-7.35,14.2l-3.43,7.22c-1.39,2.86-2.57,5.27-3.55,7.22-9.51,18.94-18.96,33.2-28.35,42.79-13.31,13.59-27.04,18.71-41.2,15.37-1.1-.29-2.27-.9-3.49-1.84l-1.53-1.22c-.61-.53-1.12-.94-1.53-1.22-.16-.12-.26-.24-.31-.37-.08-.2-.08-.39,0-.55.16-.37.49-.55.98-.55,2,0,3.57.41,4.71,1.22,2.2,1.55,5.8,1.24,10.77-.92Zm44.32-58.04c1.06-1.1,2.39-2.55,3.98-4.35l3.98-4.35c.37-.37.37-.69,0-.98-.61-.45-1.08-1.06-1.41-1.84-.12-.29-.22-.63-.31-1.04l-.25-1.16-.18-1.22-.06-1.29c-.08-1.02-.22-1.84-.43-2.45-2.57,1.8-5.96,6.16-10.16,13.1-4.25,6.9-6.59,11.9-7.04,15,.37-.08.61-.16.73-.24.73-.41,1.51-.88,2.33-1.41,2.78-1.96,5.71-4.55,8.82-7.78Z"/>
            <path class="cls-1" d="m344.31,66.38c1.41-1.78,3.54-4.13,6.4-7.07,1.22-1.26,2.65-1.78,4.29-1.53,1.55.24,2.78,1.16,3.67,2.76.45.69.47,1.67.06,2.94-.41,1.18-.98,2.47-1.71,3.86l-1.04,1.9-1.04,1.84-1.41,2.51-1.41,2.51c-.98,1.92-1.76,3.67-2.33,5.27-.53,1.43-.92,2.96-1.16,4.59-.12.86.24,1.16,1.1.92,3.14-.82,6.02-2.35,8.63-4.59,1.35-1.14,2.92-2.51,4.71-4.1l4.65-4.1c3.02-2.65,5.51-4.55,7.47-5.69.73-.41,1.31-.61,1.71-.61.9-.04,1.65.33,2.27,1.1.25.33.27.63.06.92l-.24.43-.31.37c-.57.9-1.12,1.57-1.65,2.02-5.06,4.86-10.22,9.71-15.49,14.57-1.55,1.43-3.76,3-6.61,4.71-3.55,2.04-7,1.84-10.35-.61-3.96-2.9-5.94-6.33-5.94-10.29,0-.94.08-1.86.25-2.76-1.76-.29-3.47-.8-5.14-1.53-1.1-.45-2.1-.24-3,.61-1.59,1.43-3.06,2.9-4.41,4.41-.33.98-.69,2.06-1.1,3.24-1.35,4.04-2.71,5.84-4.1,5.39-3.14-.98-4.78-3.1-4.9-6.37-.12-2.9.41-6.06,1.59-9.49,1.75-5.27,4.41-9.77,7.96-13.53.9-.9,1.98-1.14,3.24-.73.73.2,1.53.63,2.39,1.29,1.1.82,1.75,1.57,1.96,2.27.2.73.04,1.69-.49,2.88-.41.94-1.12,2.51-2.14,4.71.37.08.77.18,1.22.31l1.29.49,1.35.43c1.06.24,2.12.06,3.18-.55l1.47-.98,1.47-1.04c.98-.65,2.17-1.87,3.58-3.64Z"/>
            <path class="cls-1" d="m388.24,72.72c-.65-.16-1.31-.47-1.96-.92-1.02-.65-1.84-1.47-2.45-2.45-.61-1.02-.9-2.04-.86-3.06v-.86c-.08-2.04.69-4.1,2.33-6.18,1.39-1.75,3.33-3.49,5.82-5.2l1.04-.73,1.04-.73c2.24-1.67,4.51-2.12,6.8-1.35,1.26.41,2.29,1.18,3.06,2.33.77,1.14,1.12,2.39,1.04,3.73,0,.16-.04.39-.12.67.24-.12.47-.2.67-.24.61-.12,1.41.1,2.39.67,2.29,1.31,3.2,3.16,2.75,5.57-.24,1.47-.76,3.1-1.53,4.9l-1.1,2.33-1.1,2.33-1.22,2.45-1.1,2.45c-.86,1.88-1.53,3.61-2.02,5.2.49-.33.98-.75,1.47-1.29l.61-.73.61-.67c2.86-3.51,5.43-6.28,7.71-8.33,1.26-1.1,2.53-1.1,3.8,0,.9.73,1.06,1.53.49,2.39-4.41,6.69-8.16,11.35-11.26,13.96-1.18.98-2.12,1.61-2.82,1.9-1.14.41-2.29.33-3.43-.24-3.18-1.51-4.96-3.73-5.33-6.67-.16-1.63,0-3.51.49-5.63.25-.94.63-2.04,1.16-3.31l.61-1.65.67-1.65.18-.31.18-.37c.12-.24.14-.49.06-.73-.24,0-.47.1-.67.31l-.25.24-.25.24c-1.92,1.92-4.14,4.35-6.67,7.29-4.65,5.1-7.55,8.16-8.69,9.18l-.92.86.06-.18c-.25.2-.43.33-.55.37-.2.08-.39.14-.55.18-1.55.49-3.1.39-4.65-.31-2.49-1.02-3.98-3-4.47-5.94-.57-3.63,1.18-8.33,5.26-14.08.94-1.22,2.16-1.53,3.67-.92.69.24,1.49.69,2.39,1.35.98.82,1.57,1.57,1.78,2.27.16.69-.4,2.08-1.68,4.16s-2.46,4.98-3.52,8.69c2.45-2.49,4.37-4.35,5.75-5.57l1.41-1.53,2.14-2.27c.53-.61,1.1-1.24,1.71-1.9Zm-.31-6.24v.24l-.06.31c-.04.24,0,.45.12.61,3.75-1.18,6.75-2.92,9-5.2l1.65-2.57s.02-.06.06-.06c.49-1.35.51-2.61.06-3.8l-.06-.18-.06-.12c-.12-.08-.27-.14-.43-.18-.29,0-.86.12-1.71.37-.86.24-1.29.45-1.29.61-.04.45-.22.88-.55,1.29l-.55.55-.43.55c-3.59,3.51-5.51,6.04-5.76,7.59Z"/>
            <path class="cls-1" d="m430.54,72.72c-.65-.16-1.31-.47-1.96-.92-1.02-.65-1.84-1.47-2.45-2.45-.61-1.02-.9-2.04-.86-3.06v-.86c-.08-2.04.69-4.1,2.33-6.18,1.39-1.75,3.33-3.49,5.82-5.2l1.04-.73,1.04-.73c2.24-1.67,4.51-2.12,6.8-1.35,1.26.41,2.29,1.18,3.06,2.33.77,1.14,1.12,2.39,1.04,3.73,0,.16-.04.39-.12.67.24-.12.47-.2.67-.24.61-.12,1.41.1,2.39.67,2.29,1.31,3.2,3.16,2.75,5.57-.24,1.47-.76,3.1-1.53,4.9l-1.1,2.33-1.1,2.33-1.22,2.45-1.1,2.45c-.86,1.88-1.53,3.61-2.02,5.2.49-.33.98-.75,1.47-1.29l.61-.73.61-.67c2.86-3.51,5.43-6.28,7.71-8.33,1.26-1.1,2.53-1.1,3.8,0,.9.73,1.06,1.53.49,2.39-4.41,6.69-8.16,11.35-11.26,13.96-1.18.98-2.12,1.61-2.82,1.9-1.14.41-2.29.33-3.43-.24-3.18-1.51-4.96-3.73-5.33-6.67-.16-1.63,0-3.51.49-5.63.25-.94.63-2.04,1.16-3.31l.61-1.65.67-1.65.18-.31.18-.37c.12-.24.14-.49.06-.73-.24,0-.47.1-.67.31l-.25.24-.25.24c-1.92,1.92-4.14,4.35-6.67,7.29-4.65,5.1-7.55,8.16-8.69,9.18l-.92.86.06-.18c-.25.2-.43.33-.55.37-.2.08-.39.14-.55.18-1.55.49-3.1.39-4.65-.31-2.49-1.02-3.98-3-4.47-5.94-.57-3.63,1.18-8.33,5.26-14.08.94-1.22,2.16-1.53,3.67-.92.69.24,1.49.69,2.39,1.35.98.82,1.57,1.57,1.78,2.27.16.69-.4,2.08-1.68,4.16s-2.46,4.98-3.52,8.69c2.45-2.49,4.37-4.35,5.75-5.57l1.41-1.53,2.14-2.27c.53-.61,1.1-1.24,1.71-1.9Zm-.31-6.24v.24l-.06.31c-.04.24,0,.45.12.61,3.75-1.18,6.75-2.92,9-5.2l1.65-2.57s.02-.06.06-.06c.49-1.35.51-2.61.06-3.8l-.06-.18-.06-.12c-.12-.08-.27-.14-.43-.18-.29,0-.86.12-1.71.37-.86.24-1.29.45-1.29.61-.04.45-.22.88-.55,1.29l-.55.55-.43.55c-3.59,3.51-5.51,6.04-5.76,7.59Z"/>
          </g>
        </g>
      </g>
    </g>
  </g>
</svg>